<svg width="80" height="80" viewBox="0 0 80 80" fill="none" xmlns="http://www.w3.org/2000/svg">
<path d="M12.5 61.25V18.75C12.5 10.1205 19.4955 3.125 28.125 3.125L61.2422 3.15953L61.25 3.125H18.75C10.1205 3.125 3.125 10.1205 3.125 18.75V61.25C3.125 69.8794 10.1205 76.875 18.75 76.875L26.8841 76.8259C18.8348 76.1934 12.5 69.4617 12.5 61.25Z" fill="#CEE1F2"/>
<path d="M44.6875 80H18.75C8.41125 80 0 71.5888 0 61.25V18.75C0 8.41125 8.41125 0 18.75 0H61.25C71.5888 0 80 8.41125 80 18.75V44.375C80 46.1009 78.6009 47.5 76.875 47.5C75.1491 47.5 73.75 46.1009 73.75 44.375V18.75C73.75 11.8575 68.1425 6.25 61.25 6.25H18.75C11.8575 6.25 6.25 11.8575 6.25 18.75V61.25C6.25 68.1425 11.8575 73.75 18.75 73.75H44.6875C46.4134 73.75 47.8125 75.1491 47.8125 76.875C47.8125 78.6009 46.4134 80 44.6875 80ZM67.5 20.1562C67.5 18.4303 66.1009 17.0312 64.375 17.0312H15.625C13.8991 17.0312 12.5 18.4303 12.5 20.1562C12.5 21.8822 13.8991 23.2812 15.625 23.2812H64.375C66.1009 23.2812 67.5 21.8822 67.5 20.1562ZM58.9062 70.625V61.875C58.9062 60.1519 60.3081 58.75 62.0312 58.75H70.9375C72.6634 58.75 74.0625 57.3509 74.0625 55.625C74.0625 53.8991 72.6634 52.5 70.9375 52.5H62.0312C56.8619 52.5 52.6562 56.7056 52.6562 61.875V70.625C52.6562 72.3509 54.0553 73.75 55.7812 73.75C57.5072 73.75 58.9062 72.3509 58.9062 70.625ZM79.0847 79.0847C80.3052 77.8642 80.3052 75.8856 79.0847 74.6653L68.7722 64.3528C67.5517 63.1323 65.5731 63.1323 64.3528 64.3528C63.1325 65.5733 63.1323 67.5519 64.3528 68.7722L74.6653 79.0847C75.2755 79.6948 76.0752 80 76.875 80C77.6748 80 78.4745 79.6948 79.0847 79.0847Z" fill="#00E7FF"/>
<path d="M48.9063 53.5938C48.9063 49.2859 45.0511 45.7812 40.3125 45.7812C38.7983 45.7812 37.6563 45.1095 37.6563 44.2188C37.6563 43.3572 38.3572 42.6562 39.2188 42.6562C40.3288 42.6562 41.6789 42.7819 44.0236 43.6938C45.6322 44.3189 47.4433 43.5223 48.0688 41.9139C48.6942 40.3053 47.8974 38.4942 46.2889 37.8688C45.2875 37.4794 44.3967 37.193 43.5938 36.9812V36.4062C43.5938 34.6803 42.1947 33.2812 40.4688 33.2812C38.7428 33.2812 37.3438 34.6803 37.3438 36.4062V36.6353C33.9388 37.4775 31.4063 40.5573 31.4063 44.2188C31.4063 48.6727 35.2352 52.0312 40.3125 52.0312C41.6325 52.0312 42.6563 52.8711 42.6563 53.5938C42.6563 54.3969 41.783 55.1562 40.8594 55.1562C40.2063 55.1562 37.9755 54.9433 35.5294 53.9711C33.9258 53.3339 32.1086 54.117 31.4711 55.7208C30.8336 57.3247 31.6169 59.1416 33.2208 59.7791C34.651 60.3475 36.0702 60.7406 37.3439 60.9989V61.4062C37.3439 63.1322 38.743 64.5312 40.4689 64.5312C42.1949 64.5312 43.5939 63.1322 43.5939 61.4062V60.923C46.6574 59.8092 48.9063 56.902 48.9063 53.5938Z" fill="#70C5A3"/>
</svg>
