<svg width="72" height="80" viewBox="0 0 72 80" fill="none" xmlns="http://www.w3.org/2000/svg">
<path d="M22.5998 21.0938C22.5998 13.1058 27.8127 6.33656 35.0217 3.99891C33.2745 3.4325 31.4108 3.125 29.4748 3.125C19.5509 3.125 11.5061 11.1698 11.5061 21.0938C11.5061 31.0177 19.5509 39.0625 29.4748 39.0625C31.4108 39.0625 33.2745 38.755 35.0217 38.1886C27.8127 35.8509 22.5998 29.0817 22.5998 21.0938Z" fill="#CEE1F2"/>
<path d="M3.8125 80C2.08656 80 0.6875 78.6009 0.6875 76.875C0.6875 61.1945 13.4445 48.4375 29.125 48.4375H33.8125C37.2553 48.4375 40.6219 49.0469 43.8184 50.2486C45.4339 50.8559 46.2511 52.658 45.6439 54.2734C45.0364 55.8889 43.2339 56.7062 41.6191 56.0989C39.1281 55.1623 36.5016 54.6875 33.8125 54.6875H29.125C16.8908 54.6875 6.9375 64.6408 6.9375 76.875C6.9375 78.6009 5.53844 80 3.8125 80ZM52.25 21.0938C52.25 9.46266 42.7873 0 31.1562 0C19.5252 0 10.0625 9.46266 10.0625 21.0938C10.0625 32.7248 19.5252 42.1875 31.1562 42.1875C42.7873 42.1875 52.25 32.7248 52.25 21.0938ZM46 21.0938C46 29.2786 39.3411 35.9375 31.1562 35.9375C22.9714 35.9375 16.3125 29.2786 16.3125 21.0938C16.3125 12.9089 22.9714 6.25 31.1562 6.25C39.3411 6.25 46 12.9089 46 21.0938Z" fill="#00E7FF"/>
<path d="M71.3125 66.6145C71.3125 61.7323 66.9706 57.7603 61.6338 57.7603C59.3652 57.7605 57.7188 56.6652 57.7188 55.1562C57.7188 53.7203 58.8753 52.552 60.2969 52.552C61.7302 52.552 63.5971 52.7083 66.5774 53.8673C68.1856 54.4928 69.9969 53.6961 70.6225 52.0875C71.2481 50.4791 70.4513 48.6678 68.8427 48.0423C67.2913 47.4391 65.9386 47.0434 64.75 46.783V44.375C64.75 42.6491 63.351 41.25 61.625 41.25C59.8991 41.25 58.5 42.6491 58.5 44.375V46.4869C54.491 47.3217 51.4688 50.8914 51.4688 55.1562C51.4688 60.2039 55.8388 64.0105 61.6338 64.0105C63.4925 64.0105 65.0625 65.203 65.0625 66.6147C65.0625 68.0019 63.7725 69.2189 62.3021 69.2189C61.1547 69.2189 58.276 68.7981 55.4356 67.6691C53.8321 67.0319 52.0149 67.8148 51.3774 69.4186C50.7397 71.0225 51.5231 72.8395 53.1269 73.477C54.9366 74.1964 56.8246 74.7097 58.5 75.0348V76.875C58.5 78.6009 59.8991 80 61.625 80C63.351 80 64.75 78.6009 64.75 76.875V75.1298C66.1789 74.7278 67.4994 73.9764 68.5999 72.9158C70.3491 71.2302 71.3125 68.9922 71.3125 66.6145Z" fill="#70C5A3"/>
</svg>
