<svg width="80" height="80" viewBox="0 0 80 80" fill="none" xmlns="http://www.w3.org/2000/svg">
<path d="M12.5 65.4567V34.1054C12.5 32.4196 13.2866 30.8306 14.6269 29.8082L39.8992 10.5328C43.1277 8.07041 47.0756 7.03166 50.9131 7.41041L49.4756 6.314C43.8794 2.04572 36.1203 2.04572 30.5241 6.314L9.27406 22.5217C5.39906 25.4773 3.125 30.0718 3.125 34.9454V61.2378C3.125 69.4065 9.39391 76.1099 17.383 76.8026C14.3761 73.9548 12.5 69.9249 12.5 65.4567Z" fill="#CEE1F2"/>
<path d="M61.25 79.9884H18.75C8.41125 79.9884 0 71.5771 0 61.2384V34.9461C0 29.135 2.75844 23.5617 7.37922 20.0375L28.6292 3.8298C35.3242 -1.2766 44.6759 -1.2766 51.3709 3.8298L72.6209 20.0375C77.2416 23.5615 80 29.1348 80 34.9461V61.2384C80 71.5771 71.5888 79.9884 61.25 79.9884ZM40 6.24605C37.3256 6.24605 34.6511 7.09715 32.4194 8.79918L11.1694 25.0068C8.08906 27.3564 6.25 31.072 6.25 34.9461V61.2384C6.25 68.1309 11.8575 73.7384 18.75 73.7384H61.25C68.1425 73.7384 73.75 68.1309 73.75 61.2384V34.9461C73.75 31.072 71.9109 27.3565 68.8306 25.007L47.5806 8.79934C45.3489 7.09715 42.6744 6.24605 40 6.24605ZM51.3711 54.2717L66.4266 42.7854C67.7988 41.7386 68.0625 39.7776 67.0156 38.4054C65.9691 37.0334 64.0077 36.7695 62.6358 37.8164L47.5805 49.3025C43.117 52.7067 36.8827 52.7067 32.4158 49.2996L17.5166 37.9697C16.1428 36.925 14.1822 37.1917 13.1375 38.5656C12.0928 39.9393 12.3595 41.9 13.7333 42.9446L28.6291 54.272C31.9766 56.8251 35.9881 58.1017 39.9997 58.1017C44.0117 58.1015 48.0236 56.825 51.3711 54.2717Z" fill="#00E7FF"/>
<path d="M30.1563 31.7066C29.3588 31.7066 28.5614 31.4033 27.9517 30.7965C26.7286 29.579 26.7239 27.6002 27.9416 26.3769L32.8903 21.4051C36.8545 17.4411 43.297 17.4402 47.2566 21.3982L52.2142 26.3765C53.4322 27.5993 53.4281 29.578 52.2051 30.7958C50.9823 32.0136 49.0037 32.0097 47.7858 30.7866L42.8331 25.8135C41.3148 24.2961 38.837 24.2966 37.3148 25.8194L32.3711 30.7861C31.7605 31.3996 30.9584 31.7066 30.1563 31.7066ZM43.2812 42.8004V33.1129C43.2812 31.3869 41.8822 29.9879 40.1562 29.9879C38.4303 29.9879 37.0312 31.3869 37.0312 33.1129V42.8004C37.0312 44.5263 38.4303 45.9254 40.1562 45.9254C41.8822 45.9254 43.2812 44.5261 43.2812 42.8004Z" fill="#70C5A3"/>
</svg>
