<svg width="1920" height="577" viewBox="0 0 1920 577" fill="none" xmlns="http://www.w3.org/2000/svg">
<path opacity="0.8" d="M1893.39 0.862813C1892.28 0.29568 1891.05 0 1889.8 0C1888.55 0 1887.32 0.29568 1886.21 0.862813C1884.71 1.72627 1884.34 2.9735 1885.09 4.06082L1773.92 68.2289V149.25L1746.83 164.889V253.01L1654.08 306.576L1639.69 298.23L1711.23 256.927V208.621L1710.94 208.446L1629.5 161.499V145.109L1675.51 118.55C1676.56 118.968 1677.69 119.159 1678.82 119.109C1679.95 119.06 1681.05 118.771 1682.06 118.262C1682.5 118.117 1682.88 117.838 1683.15 117.464C1683.42 117.091 1683.56 116.643 1683.56 116.183C1683.56 115.723 1683.42 115.275 1683.15 114.901C1682.88 114.528 1682.5 114.249 1682.06 114.104C1680.95 113.545 1679.72 113.253 1678.47 113.253C1677.23 113.253 1676 113.545 1674.88 114.104C1673.09 115.144 1672.93 116.743 1674.37 117.894L1628.36 144.453V162.138L1628.65 162.314L1710 209.277V256.272L1655.93 287.468V267.353L1680.72 253.042C1681.77 253.458 1682.9 253.646 1684.03 253.594C1685.16 253.541 1686.27 253.25 1687.28 252.738C1689.26 251.603 1689.26 249.748 1687.28 248.596C1686.16 248.037 1684.93 247.745 1683.69 247.745C1682.44 247.745 1681.21 248.037 1680.1 248.596C1678.31 249.636 1678.15 251.235 1679.59 252.386L1654.8 266.697V288.124L1638.54 297.574L1619.2 286.381V251.363L1655.58 230.256V206.079L1655.29 205.903L1578.54 161.595C1579.97 160.443 1579.81 158.844 1578.02 157.805C1576.91 157.245 1575.68 156.954 1574.43 156.954C1573.19 156.954 1571.96 157.245 1570.84 157.805C1568.86 158.956 1568.86 160.811 1570.84 161.946C1571.85 162.458 1572.96 162.75 1574.09 162.802C1575.22 162.854 1576.35 162.666 1577.4 162.25L1654.53 206.735V229.648L1619.2 250.036V225.891L1618.91 225.715L1571.95 198.532C1573.39 197.38 1573.23 195.781 1571.44 194.742C1570.32 194.175 1569.09 193.879 1567.85 193.879C1566.6 193.879 1565.37 194.175 1564.26 194.742C1562.27 195.893 1562.27 197.748 1564.26 198.883C1565.26 199.395 1566.37 199.687 1567.5 199.739C1568.63 199.791 1569.76 199.603 1570.81 199.187L1618.07 226.466V285.629L1604.47 277.778L1582.09 290.698L1561.78 279.137V250.707L1561.49 250.531L1507.92 219.607V192.807C1508.98 192.768 1510.01 192.483 1510.94 191.976C1512.92 190.84 1512.92 188.986 1510.94 187.834C1509.83 187.275 1508.6 186.983 1507.35 186.983C1506.1 186.983 1504.87 187.275 1503.76 187.834C1501.78 188.986 1501.78 190.84 1503.76 191.976C1504.69 192.483 1505.72 192.768 1506.78 192.807V220.262L1507.07 220.422L1560.64 251.363V278.546L1473.44 228.209V174.786L1520.73 147.475H1564.11H1564.26L1638.71 104.414C1639.76 104.833 1640.89 105.024 1642.02 104.974C1643.15 104.924 1644.26 104.636 1645.27 104.127C1645.7 103.981 1646.08 103.702 1646.35 103.329C1646.62 102.956 1646.77 102.508 1646.77 102.048C1646.77 101.588 1646.62 101.139 1646.35 100.766C1646.08 100.393 1645.7 100.114 1645.27 99.9691C1644.15 99.4094 1642.92 99.1179 1641.68 99.1179C1640.43 99.1179 1639.2 99.4094 1638.09 99.9691C1636.3 101.008 1636.14 102.607 1637.58 103.759L1563.81 146.34H1522.69L1659.48 67.3654C1660.54 67.784 1661.66 67.9747 1662.79 67.9251C1663.92 67.8755 1665.03 67.5866 1666.04 67.0776C1666.48 66.9324 1666.86 66.6535 1667.13 66.2804C1667.4 65.9073 1667.54 65.4589 1667.54 64.9989C1667.54 64.5388 1667.4 64.0905 1667.13 63.7174C1666.86 63.3442 1666.48 63.0653 1666.04 62.9202C1664.93 62.3604 1663.7 62.0689 1662.45 62.0689C1661.2 62.0689 1659.97 62.3604 1658.86 62.9202C1657.07 63.9595 1656.91 65.5745 1658.35 66.7098L1472.22 174.131V228.801L1472.51 228.961L1580.97 291.482L1559.17 304.066L1374.17 197.316V133.612L1373.88 133.452L1311 97.1388C1312.44 96.0036 1312.28 94.3886 1310.49 93.3652C1309.38 92.7981 1308.15 92.5024 1306.9 92.5024C1305.65 92.5024 1304.42 92.7981 1303.31 93.3652C1301.32 94.5005 1301.32 96.3553 1303.31 97.5066C1304.32 98.0157 1305.42 98.3045 1306.55 98.3541C1307.69 98.4038 1308.81 98.213 1309.86 97.7944L1373.08 134.316V198.02L1373.37 198.18L1558 304.77L1537.21 316.762L1354.32 211.068H1245.26L1177.1 171.716V111.322C1177.79 111.2 1178.46 110.962 1179.07 110.618C1179.5 110.47 1179.87 110.19 1180.14 109.819C1180.4 109.448 1180.55 109.004 1180.55 108.548C1180.55 108.092 1180.4 107.648 1180.14 107.276C1179.87 106.905 1179.5 106.626 1179.07 106.477C1177.96 105.91 1176.73 105.614 1175.48 105.614C1174.23 105.614 1173 105.91 1171.89 106.477C1171.46 106.626 1171.09 106.905 1170.82 107.276C1170.56 107.648 1170.41 108.092 1170.41 108.548C1170.41 109.004 1170.56 109.448 1170.82 109.819C1171.09 110.19 1171.46 110.47 1171.89 110.618C1173.15 111.269 1174.56 111.557 1175.97 111.45V172.436L1176.26 172.612L1245.02 212.267H1354.08L1508.46 301.396H1477.34L1424.65 271.015H1384.06H1383.94L1327.65 303.506C1326.59 303.09 1325.47 302.902 1324.34 302.954C1323.21 303.007 1322.1 303.298 1321.09 303.81C1319.11 304.961 1319.11 306.816 1321.09 307.952C1322.21 308.514 1323.44 308.807 1324.69 308.807C1325.94 308.807 1327.17 308.514 1328.29 307.952C1330.06 306.928 1330.22 305.313 1328.78 304.178L1384.38 272.086H1424.36L1477.05 302.467H1510.38L1536.08 317.306L1480.68 349.286L1464.93 340.187V316.378L1424.95 293.289C1426.39 292.137 1426.23 290.522 1424.46 289.499C1423.34 288.937 1422.11 288.644 1420.86 288.644C1419.61 288.644 1418.38 288.937 1417.26 289.499C1416.83 289.648 1416.46 289.927 1416.19 290.298C1415.93 290.669 1415.79 291.114 1415.79 291.57C1415.79 292.026 1415.93 292.47 1416.19 292.841C1416.46 293.212 1416.83 293.492 1417.26 293.64C1418.27 294.152 1419.38 294.444 1420.51 294.496C1421.64 294.548 1422.77 294.36 1423.82 293.944L1463.8 317.034V339.596L1421.05 315.003H1400.89L1400.76 315.083L1376.68 328.994C1375.63 328.576 1374.5 328.385 1373.37 328.435C1372.24 328.484 1371.13 328.773 1370.12 329.282C1369.68 329.427 1369.3 329.706 1369.03 330.079C1368.76 330.453 1368.62 330.901 1368.62 331.361C1368.62 331.821 1368.76 332.269 1369.03 332.642C1369.3 333.016 1369.68 333.294 1370.12 333.44C1371.23 333.999 1372.46 334.291 1373.71 334.291C1374.96 334.291 1376.19 333.999 1377.3 333.44C1379.09 332.416 1379.25 330.801 1377.81 329.666L1401.21 316.154H1420.8L1479.53 350.069L1468.87 356.225L1502.91 375.765L1486.92 384.976H1462.85L1445.6 375.014C1446.97 373.878 1446.8 372.295 1445.02 371.272C1443.91 370.712 1442.68 370.421 1441.43 370.421C1440.19 370.421 1438.96 370.712 1437.84 371.272C1435.86 372.423 1435.86 374.278 1437.84 375.414C1438.87 375.932 1439.99 376.224 1441.13 376.271C1442.28 376.318 1443.42 376.118 1444.48 375.685L1462.63 386.159H1485.02L1444.35 409.632L1348.69 354.403H1279.83L1279.7 354.483L1240.96 376.869C1239.9 376.453 1238.78 376.264 1237.65 376.317C1236.52 376.369 1235.41 376.661 1234.4 377.172C1232.42 378.308 1232.42 380.163 1234.4 381.314C1235.51 381.874 1236.74 382.165 1237.99 382.165C1239.24 382.165 1240.47 381.874 1241.58 381.314C1243.36 380.274 1243.52 378.675 1242.09 377.524L1280.14 355.554H1348.37L1422.16 398.151H1390.57L1359.69 380.322C1361.13 379.187 1360.97 377.572 1359.18 376.549C1358.07 375.982 1356.84 375.686 1355.59 375.686C1354.34 375.686 1353.11 375.982 1352 376.549C1350.02 377.684 1350.02 379.539 1352 380.69C1353.01 381.202 1354.12 381.493 1355.25 381.546C1356.38 381.598 1357.51 381.41 1358.56 380.994L1390.27 399.287H1424.12L1443.2 410.304L1394.63 438.334H1239.41L1118.81 368.714C1120.25 367.562 1120.09 365.963 1118.32 364.924C1117.2 364.362 1115.97 364.069 1114.72 364.069C1113.47 364.069 1112.24 364.362 1111.12 364.924C1109.14 366.075 1109.14 367.93 1111.12 369.065C1112.13 369.577 1113.24 369.869 1114.37 369.921C1115.5 369.973 1116.63 369.785 1117.68 369.369L1239.1 439.47H1392.62L1373.35 450.663H1258.5H1258.37L1201.7 483.378C1200.65 482.96 1199.52 482.769 1198.39 482.819C1197.26 482.868 1196.15 483.157 1195.14 483.666C1193.16 484.817 1193.16 486.672 1195.14 487.808C1196.25 488.375 1197.48 488.67 1198.73 488.67C1199.98 488.67 1201.21 488.375 1202.32 487.808C1204.11 486.784 1204.27 485.169 1202.83 484.034L1258.8 451.718H1373.7L1373.83 451.638L1504.05 376.485L1518.44 384.832L1381.54 463.87H1281.48L1281.35 463.95L1160.39 533.747H992.882L960.5 515.055V516.366L992.579 534.882H1160.73L1160.86 534.802L1236.75 490.99V516.925L1186.73 545.803C1185.68 545.385 1184.55 545.194 1183.42 545.244C1182.29 545.293 1181.18 545.582 1180.17 546.091C1179.74 546.236 1179.36 546.515 1179.09 546.888C1178.82 547.262 1178.67 547.71 1178.67 548.17C1178.67 548.63 1178.82 549.078 1179.09 549.451C1179.36 549.825 1179.74 550.103 1180.17 550.249C1181.29 550.808 1182.52 551.1 1183.76 551.1C1185.01 551.1 1186.24 550.808 1187.35 550.249C1189.14 549.209 1189.3 547.61 1187.87 546.459L1237.89 517.581V490.478H1237.63L1281.78 464.99H1381.91L1382.03 464.91L1519.56 385.471L1536.06 394.953L1269.13 549.081V576.936H1270.27V549.753L1537.33 395.625L1557.62 407.346L1419.88 486.848V501.063L1395.47 515.166V547.85L1348.12 575.193C1347.06 574.775 1345.94 574.584 1344.81 574.633C1343.68 574.683 1342.57 574.972 1341.56 575.481C1340.94 575.798 1340.46 576.317 1340.18 576.952H1350.1C1349.92 576.513 1349.63 576.13 1349.25 575.849L1396.47 548.458V515.806L1419.76 502.358V554.71L1433.51 562.705L1408.74 577H1411.01L1434.64 563.36L1458.26 577H1460.53L1420.89 554.054V487.488L1558.58 407.985L1577.05 418.651L1479.63 474.904C1478.58 474.487 1477.45 474.299 1476.32 474.352C1475.19 474.404 1474.08 474.696 1473.07 475.207C1471.09 476.343 1471.09 478.198 1473.07 479.349C1474.18 479.916 1475.41 480.212 1476.66 480.212C1477.91 480.212 1479.14 479.916 1480.25 479.349C1482.04 478.325 1482.2 476.71 1480.76 475.559L1578.31 419.306L1596.14 429.588L1479.55 496.906H1447.79C1447.52 496.25 1447.03 495.711 1446.4 495.387C1445.28 494.827 1444.06 494.536 1442.81 494.536C1441.56 494.536 1440.33 494.827 1439.22 495.387C1438.78 495.532 1438.4 495.811 1438.13 496.184C1437.86 496.557 1437.72 497.005 1437.72 497.465C1437.72 497.926 1437.86 498.374 1438.13 498.747C1438.4 499.12 1438.78 499.399 1439.22 499.544C1440.33 500.104 1441.56 500.395 1442.81 500.395C1444.06 500.395 1445.28 500.104 1446.4 499.544C1447.02 499.221 1447.52 498.69 1447.79 498.041H1479.77L1479.92 497.961L1597.2 430.243L1604.39 434.401L1609.94 431.203L1637.86 447.337V469.723L1614.79 483.059H1578.58H1578.44L1538.7 506.004C1537.65 505.59 1536.53 505.404 1535.4 505.456C1534.27 505.508 1533.17 505.799 1532.16 506.308C1530.18 507.443 1530.18 509.298 1532.16 510.449C1533.27 511.017 1534.5 511.312 1535.75 511.312C1537 511.312 1538.23 511.017 1539.34 510.449C1541.12 509.41 1541.28 507.811 1539.85 506.66L1578.89 484.178H1612.95L1545.1 523.337C1544.03 522.89 1542.88 522.68 1541.72 522.721C1540.56 522.763 1539.43 523.055 1538.4 523.577C1536.41 524.713 1536.41 526.567 1538.4 527.719C1539.51 528.278 1540.74 528.57 1541.99 528.57C1543.23 528.57 1544.46 528.278 1545.58 527.719C1547.32 526.711 1547.53 525.144 1546.2 524.009L1630.83 475.159V485.953L1580.49 515.023V535.538L1539.5 559.203C1538.45 558.787 1537.32 558.599 1536.19 558.651C1535.06 558.704 1533.95 558.995 1532.94 559.507C1532.51 559.656 1532.14 559.935 1531.87 560.306C1531.61 560.677 1531.47 561.122 1531.47 561.578C1531.47 562.033 1531.61 562.478 1531.87 562.849C1532.14 563.22 1532.51 563.5 1532.94 563.648C1534.06 564.215 1535.29 564.511 1536.53 564.511C1537.78 564.511 1539.01 564.215 1540.12 563.648C1541.9 562.625 1542.06 561.01 1540.64 559.859L1581.62 536.209V515.678L1631.96 486.608V474.504L1639.02 470.426V446.681L1611.09 430.547L1629.45 419.962L1686.93 453.141V490.894L1647.89 513.424C1646.82 512.974 1645.67 512.761 1644.52 512.799C1643.36 512.838 1642.22 513.127 1641.19 513.647C1640.75 513.793 1640.37 514.071 1640.1 514.445C1639.84 514.818 1639.69 515.266 1639.69 515.726C1639.69 516.186 1639.84 516.635 1640.1 517.008C1640.37 517.381 1640.75 517.66 1641.19 517.805C1642.3 518.365 1643.53 518.656 1644.78 518.656C1646.03 518.656 1647.26 518.365 1648.37 517.805C1650.13 516.813 1650.32 515.246 1649.01 514.111L1686.93 492.221V522.698L1656.96 539.983V576.984H1658.09V540.591L1686.88 523.961V576.936H1688.11V452.518L1630.54 419.306L1651.15 407.394L1726.31 450.775V554.054L1762.42 574.841V576.872H1763.56V574.186L1727.45 553.399V450.119L1652.29 406.738L1667.56 397.927L1768.95 456.451V544.588L1824.99 576.936H1827.23L1770.05 543.933V455.795L1668.66 397.272L1693.42 382.977L1862.11 480.356V524.201L1919.98 557.588V556.261L1863.31 523.545V479.701L1768.43 424.919H1843.47L1919.98 469.099V467.788L1843.77 423.735H1766.47L1694.62 382.321L1723.4 365.708L1785.14 401.349H1884.29L1919.98 421.945V420.633L1912.16 416.124H1919.98V414.989H1910.2L1884.61 400.214H1785.46L1768.19 390.236H1810.35L1810.47 390.156L1831.62 377.956H1919.71L1920 378.116V376.821H1833.63L1857.44 363.085C1858.49 363.501 1859.62 363.689 1860.75 363.637C1861.88 363.585 1862.99 363.293 1864 362.781C1864.43 362.633 1864.8 362.353 1865.07 361.982C1865.33 361.611 1865.47 361.166 1865.47 360.711C1865.47 360.255 1865.33 359.81 1865.07 359.439C1864.8 359.068 1864.43 358.789 1864 358.64C1862.89 358.073 1861.66 357.777 1860.41 357.777C1859.16 357.777 1857.93 358.073 1856.82 358.64C1855.03 359.663 1854.87 361.278 1856.31 362.43L1810.09 389.101H1766.27L1724.6 365.116L1740 356.225L1730.09 350.501H1758.87L1796.51 372.231C1795.08 373.383 1795.24 374.982 1797.03 376.021C1798.14 376.588 1799.37 376.884 1800.62 376.884C1801.86 376.884 1803.09 376.588 1804.21 376.021C1806.19 374.87 1806.19 373.015 1804.21 371.88C1803.2 371.368 1802.09 371.076 1800.96 371.024C1799.83 370.972 1798.7 371.16 1797.65 371.576L1759.17 349.366H1728.09L1707.03 337.197L1719.98 329.714H1742.96L1763.17 318.057H1778.25L1812.31 337.709C1810.71 338.86 1810.91 340.507 1812.73 341.563C1813.84 342.13 1815.07 342.425 1816.32 342.425C1817.57 342.425 1818.8 342.13 1819.91 341.563C1821.89 340.411 1821.89 338.556 1819.91 337.421C1818.93 336.925 1817.85 336.637 1816.75 336.577C1815.65 336.516 1814.55 336.684 1813.51 337.069L1778.6 316.922H1762.92L1742.7 328.579H1721.91L1763.35 304.674H1785.74L1832.37 331.585H1919.98V330.45H1832.64L1786.02 303.522H1763.04L1762.9 303.602L1705.86 336.542L1690.88 327.907L1755.35 290.682H1800.83L1838.33 312.333H1919.98V311.198H1838.65L1803.1 290.682H1919.98V289.419H1755.05L1754.92 289.499L1689.71 327.188L1672.71 317.37L1762.64 265.434H1919.98V264.299H1805.33L1919.98 198.1V196.789L1803.05 264.299H1763.46L1848.71 215.081V204.24L1889.49 180.687C1890.54 181.105 1891.67 181.296 1892.8 181.247C1893.93 181.197 1895.03 180.908 1896.04 180.399C1898.03 179.248 1898.03 177.393 1896.04 176.258C1894.93 175.69 1893.7 175.395 1892.45 175.395C1891.21 175.395 1889.98 175.69 1888.86 176.258C1887.07 177.281 1886.91 178.896 1888.35 180.031L1866.14 192.823V163.098L1919.98 132.093V130.782L1865.01 162.506V193.479L1847.57 203.553V214.394L1761.64 263.963L1761.92 264.459L1671.61 316.602L1655.18 307.12L1747.93 253.553V165.544L1919.98 66.2301V64.9189L1775.05 148.595V68.8845L1885.97 4.79636L1886.21 4.95626C1887.32 5.5234 1888.55 5.81908 1889.8 5.81908C1891.05 5.81908 1892.28 5.5234 1893.39 4.95626C1895.37 3.85295 1895.37 1.99811 1893.39 0.862813ZM1737.68 356.161L1604.41 433.09L1471.15 356.161L1604.41 279.217L1737.68 356.161Z" fill="#00E7FF" fill-opacity="0.2"/>
<path opacity="0.8" d="M26.6375 0.862813C27.7503 0.29568 28.9819 0 30.2313 0C31.4806 0 32.7122 0.29568 33.825 0.862813C35.3298 1.72627 35.698 2.9735 34.9456 4.06082L146.234 68.2289V149.25L173.351 164.889V253.01L266.198 306.576L280.605 298.23L208.985 256.927V208.621L209.273 208.446L290.802 161.499V145.109L244.747 118.55C243.695 118.968 242.566 119.159 241.435 119.109C240.303 119.06 239.195 118.771 238.184 118.262C237.747 118.117 237.367 117.838 237.097 117.464C236.828 117.091 236.683 116.643 236.683 116.183C236.683 115.723 236.828 115.275 237.097 114.901C237.367 114.528 237.747 114.249 238.184 114.104C239.299 113.545 240.53 113.253 241.778 113.253C243.026 113.253 244.256 113.545 245.372 114.104C247.164 115.144 247.325 116.743 245.884 117.894L291.939 144.453V162.138L291.651 162.314L210.218 209.277V256.272L264.341 287.468V267.353L239.529 253.042C238.475 253.458 237.346 253.646 236.214 253.594C235.083 253.541 233.976 253.25 232.965 252.738C230.98 251.603 230.98 249.748 232.965 248.596C234.08 248.037 235.311 247.745 236.559 247.745C237.807 247.745 239.038 248.037 240.153 248.596C241.946 249.636 242.106 251.235 240.665 252.386L265.478 266.697V288.124L281.758 297.574L301.112 286.381V251.363L264.693 230.256V206.079L264.981 205.903L341.82 161.595C340.379 160.443 340.539 158.844 342.332 157.805C343.448 157.245 344.678 156.954 345.926 156.954C347.174 156.954 348.405 157.245 349.52 157.805C351.505 158.956 351.505 160.811 349.52 161.946C348.51 162.458 347.402 162.75 346.271 162.802C345.14 162.854 344.01 162.666 342.957 162.25L265.75 206.735V229.648L301.112 250.036V225.891L301.4 225.715L348.416 198.532C346.975 197.38 347.135 195.781 348.928 194.742C350.041 194.175 351.272 193.879 352.522 193.879C353.771 193.879 355.003 194.175 356.115 194.742C358.1 195.893 358.1 197.748 356.115 198.883C355.105 199.395 353.998 199.687 352.866 199.739C351.735 199.791 350.605 199.603 349.552 199.187L302.248 226.466V285.629L315.855 277.778L338.266 290.698L358.597 279.137V250.707L358.885 250.531L412.512 219.607V192.807C411.452 192.768 410.417 192.483 409.486 191.976C407.501 190.84 407.501 188.986 409.486 187.834C410.601 187.275 411.832 186.983 413.08 186.983C414.328 186.983 415.559 187.275 416.674 187.834C418.659 188.986 418.659 190.84 416.674 191.976C415.743 192.483 414.708 192.768 413.648 192.807V220.262L413.36 220.422L359.733 251.363V278.546L447.025 228.209V174.786L399.689 147.475H356.259H356.115L281.582 104.414C280.53 104.833 279.401 105.024 278.269 104.974C277.138 104.924 276.03 104.636 275.019 104.127C274.581 103.981 274.201 103.702 273.932 103.329C273.662 102.956 273.517 102.508 273.517 102.048C273.517 101.588 273.662 101.139 273.932 100.766C274.201 100.393 274.581 100.114 275.019 99.9691C276.134 99.4094 277.364 99.1179 278.612 99.1179C279.86 99.1179 281.091 99.4094 282.206 99.9691C283.999 101.008 284.159 102.607 282.718 103.759L356.564 146.34H397.72L260.787 67.3654C259.735 67.784 258.606 67.9747 257.475 67.9251C256.343 67.8755 255.235 67.5866 254.224 67.0776C253.787 66.9324 253.407 66.6535 253.137 66.2804C252.868 65.9073 252.723 65.4589 252.723 64.9989C252.723 64.5388 252.868 64.0905 253.137 63.7174C253.407 63.3442 253.787 63.0653 254.224 62.9202C255.339 62.3604 256.57 62.0689 257.818 62.0689C259.066 62.0689 260.297 62.3604 261.412 62.9202C263.205 63.9595 263.365 65.5745 261.924 66.7098L448.242 174.131V228.801L447.954 228.961L339.387 291.482L361.206 304.066L546.403 197.316V133.612L546.691 133.452L609.635 97.1388C608.194 96.0036 608.354 94.3886 610.147 93.3652C611.26 92.7981 612.492 92.5024 613.741 92.5024C614.99 92.5024 616.222 92.7981 617.335 93.3652C619.32 94.5005 619.32 96.3553 617.335 97.5066C616.324 98.0157 615.216 98.3045 614.084 98.3541C612.953 98.4038 611.824 98.213 610.772 97.7944L547.492 134.316V198.02L547.204 198.18L362.375 304.77L383.185 316.762L566.269 211.068H675.444L743.671 171.716V111.322C742.979 111.2 742.314 110.962 741.702 110.618C741.27 110.47 740.896 110.19 740.631 109.819C740.366 109.448 740.224 109.004 740.224 108.548C740.224 108.092 740.366 107.648 740.631 107.276C740.896 106.905 741.27 106.626 741.702 106.477C742.814 105.91 744.046 105.614 745.295 105.614C746.545 105.614 747.776 105.91 748.889 106.477C749.32 106.626 749.695 106.905 749.959 107.276C750.224 107.648 750.367 108.092 750.367 108.548C750.367 109.004 750.224 109.448 749.959 109.819C749.695 110.19 749.32 110.47 748.889 110.618C747.632 111.269 746.219 111.557 744.807 111.45V172.436L744.519 172.612L675.684 212.267H566.509L411.967 301.396H443.119L495.866 271.015H536.494H536.622L592.971 303.506C594.024 303.09 595.154 302.902 596.285 302.954C597.416 303.007 598.524 303.298 599.534 303.81C601.519 304.961 601.519 306.816 599.534 307.952C598.417 308.514 597.183 308.807 595.932 308.807C594.681 308.807 593.448 308.514 592.33 307.952C590.553 306.928 590.393 305.313 591.834 304.178L536.174 272.086H496.154L443.407 302.467H410.047L384.322 317.306L439.773 349.286L455.541 340.187V316.378L495.562 293.289C494.121 292.137 494.281 290.522 496.058 289.499C497.175 288.937 498.409 288.644 499.66 288.644C500.911 288.644 502.144 288.937 503.261 289.499C503.693 289.648 504.067 289.927 504.332 290.298C504.597 290.669 504.739 291.114 504.739 291.57C504.739 292.026 504.597 292.47 504.332 292.841C504.067 293.212 503.693 293.492 503.261 293.64C502.251 294.152 501.144 294.444 500.012 294.496C498.881 294.548 497.751 294.36 496.698 293.944L456.678 317.034V339.596L499.468 315.003H519.654L519.782 315.083L543.89 328.994C544.942 328.576 546.071 328.385 547.202 328.435C548.334 328.484 549.442 328.773 550.453 329.282C550.89 329.427 551.27 329.706 551.54 330.079C551.809 330.453 551.954 330.901 551.954 331.361C551.954 331.821 551.809 332.269 551.54 332.642C551.27 333.016 550.89 333.294 550.453 333.44C549.338 333.999 548.107 334.291 546.859 334.291C545.611 334.291 544.381 333.999 543.266 333.44C541.473 332.416 541.313 330.801 542.753 329.666L519.334 316.154H499.724L440.926 350.069L451.603 356.225L417.522 375.765L433.53 384.976H457.622L474.895 375.014C473.518 373.878 473.695 372.295 475.471 371.272C476.587 370.712 477.817 370.421 479.065 370.421C480.313 370.421 481.544 370.712 482.659 371.272C484.644 372.423 484.644 374.278 482.659 375.414C481.636 375.932 480.513 376.224 479.367 376.271C478.221 376.318 477.078 376.118 476.016 375.685L457.847 386.159H435.435L476.144 409.632L571.904 354.403H640.835L640.963 354.483L679.75 376.869C680.804 376.453 681.933 376.264 683.065 376.317C684.196 376.369 685.303 376.661 686.314 377.172C688.299 378.308 688.299 380.163 686.314 381.314C685.199 381.874 683.968 382.165 682.72 382.165C681.472 382.165 680.241 381.874 679.126 381.314C677.349 380.274 677.189 378.675 678.614 377.524L640.531 355.554H572.224L498.363 398.151H529.979L560.89 380.322C559.45 379.187 559.61 377.572 561.403 376.549C562.516 375.982 563.747 375.686 564.997 375.686C566.246 375.686 567.477 375.982 568.59 376.549C570.575 377.684 570.575 379.539 568.59 380.69C567.58 381.202 566.473 381.493 565.341 381.546C564.21 381.598 563.08 381.41 562.027 380.994L530.283 399.287H496.394L477.296 410.304L525.913 438.334H681.303L802.02 368.714C800.579 367.562 800.739 365.963 802.516 364.924C803.633 364.362 804.867 364.069 806.118 364.069C807.369 364.069 808.603 364.362 809.72 364.924C811.705 366.075 811.705 367.93 809.72 369.065C808.71 369.577 807.602 369.869 806.471 369.921C805.339 369.973 804.21 369.785 803.157 369.369L681.607 439.47H527.93L547.22 450.663H662.19H662.318L719.05 483.378C720.102 482.96 721.231 482.769 722.363 482.819C723.494 482.868 724.602 483.157 725.613 483.666C727.598 484.817 727.598 486.672 725.613 487.808C724.501 488.375 723.269 488.67 722.02 488.67C720.77 488.67 719.539 488.375 718.426 487.808C716.633 486.784 716.473 485.169 717.914 484.034L661.885 451.718H546.867L546.739 451.638L416.386 376.485L401.978 384.832L539.023 463.87H639.186L639.314 463.95L760.399 533.747H928.083L960.5 515.055V516.366L928.388 534.882H760.063L759.935 534.802L683.96 490.99V516.925L734.034 545.803C735.086 545.385 736.215 545.194 737.346 545.244C738.478 545.293 739.586 545.582 740.597 546.091C741.034 546.236 741.414 546.515 741.684 546.888C741.953 547.262 742.098 547.71 742.098 548.17C742.098 548.63 741.953 549.078 741.684 549.451C741.414 549.825 741.034 550.103 740.597 550.249C739.482 550.808 738.251 551.1 737.003 551.1C735.755 551.1 734.525 550.808 733.409 550.249C731.616 549.209 731.456 547.61 732.897 546.459L682.824 517.581V490.478H683.08L638.882 464.99H538.655L538.527 464.91L400.858 385.471L384.338 394.953L651.544 549.081V576.936H650.408V549.753L383.073 395.625L362.759 407.346L500.636 486.848V501.063L525.08 515.166V547.85L572.48 575.193C573.532 574.775 574.662 574.584 575.793 574.633C576.924 574.683 578.032 574.972 579.044 575.481C579.659 575.798 580.146 576.317 580.42 576.952H570.495C570.67 576.513 570.964 576.13 571.344 575.849L524.072 548.458V515.806L500.764 502.358V554.71L486.997 562.705L511.794 577H509.521L485.861 563.36L462.217 577H459.944L499.628 554.054V487.488L361.798 407.985L343.309 418.651L440.83 474.904C441.883 474.487 443.013 474.299 444.144 474.352C445.276 474.404 446.383 474.696 447.393 475.207C449.378 476.343 449.378 478.198 447.393 479.349C446.28 479.916 445.049 480.212 443.8 480.212C442.55 480.212 441.319 479.916 440.206 479.349C438.413 478.325 438.253 476.71 439.693 475.559L342.044 419.306L324.195 429.588L440.91 496.906H472.702C472.97 496.25 473.464 495.711 474.095 495.387C475.21 494.827 476.441 494.536 477.689 494.536C478.937 494.536 480.167 494.827 481.282 495.387C481.719 495.532 482.1 495.811 482.369 496.184C482.638 496.557 482.783 497.005 482.783 497.465C482.783 497.926 482.638 498.374 482.369 498.747C482.1 499.12 481.719 499.399 481.282 499.544C480.167 500.104 478.937 500.395 477.689 500.395C476.441 500.395 475.21 500.104 474.095 499.544C473.469 499.221 472.976 498.69 472.702 498.041H440.686L440.542 497.961L323.139 430.243L315.935 434.401L310.38 431.203L282.43 447.337V469.723L305.53 483.059H341.772H341.916L381.696 506.004C382.747 505.59 383.874 505.404 385.002 505.456C386.131 505.508 387.235 505.799 388.244 506.308C390.229 507.443 390.229 509.298 388.244 510.449C387.131 511.017 385.899 511.312 384.65 511.312C383.4 511.312 382.169 511.017 381.056 510.449C379.279 509.41 379.119 507.811 380.544 506.66L341.468 484.178H307.371L375.293 523.337C376.362 522.89 377.515 522.68 378.673 522.721C379.831 522.763 380.966 523.055 382 523.577C383.985 524.713 383.985 526.567 382 527.719C380.885 528.278 379.655 528.57 378.407 528.57C377.159 528.57 375.928 528.278 374.813 527.719C373.068 526.711 372.86 525.144 374.188 524.009L289.474 475.159V485.953L339.867 515.023V535.538L380.896 559.203C381.949 558.787 383.079 558.599 384.21 558.651C385.342 558.704 386.449 558.995 387.459 559.507C387.89 559.656 388.265 559.935 388.529 560.306C388.794 560.677 388.937 561.122 388.937 561.578C388.937 562.033 388.794 562.478 388.529 562.849C388.265 563.22 387.89 563.5 387.459 563.648C386.346 564.215 385.115 564.511 383.865 564.511C382.616 564.511 381.384 564.215 380.272 563.648C378.495 562.625 378.335 561.01 379.759 559.859L338.731 536.209V515.678L288.337 486.608V474.504L281.278 470.426V446.681L309.228 430.547L290.85 419.962L233.318 453.141V490.894L272.393 513.424C273.461 512.974 274.613 512.761 275.771 512.799C276.93 512.838 278.065 513.127 279.101 513.647C279.538 513.793 279.918 514.071 280.187 514.445C280.457 514.818 280.602 515.266 280.602 515.726C280.602 516.186 280.457 516.635 280.187 517.008C279.918 517.381 279.538 517.66 279.101 517.805C277.985 518.365 276.755 518.656 275.507 518.656C274.259 518.656 273.028 518.365 271.913 517.805C270.152 516.813 269.96 515.246 271.273 514.111L233.318 492.221V522.698L263.317 539.983V576.984H262.18V540.591L233.366 523.961V576.936H232.133V452.518L289.762 419.306L269.128 407.394L193.89 450.775V554.054L157.743 574.841V576.872H156.607V574.186L192.753 553.399V450.119L267.991 406.738L252.703 397.927L151.212 456.451V544.588L95.1039 576.936H92.8628L150.108 543.933V455.795L251.599 397.272L226.818 382.977L57.9492 480.356V524.201L0.0159912 557.588V556.261L56.7486 523.545V479.701L151.724 424.919H76.6146L0.0159912 469.099V467.788L76.3104 423.735H153.693L225.618 382.321L196.803 365.708L134.996 401.349H35.746L0.0159912 421.945V420.633L7.84399 416.124H0.0159912V414.989H9.81293L35.4258 400.214H134.676L151.965 390.236H109.767L109.639 390.156L88.4766 377.956H0.288147L0 378.116V376.821H86.4595L62.6235 363.085C61.5703 363.501 60.4407 363.689 59.3093 363.637C58.1779 363.585 57.0704 363.293 56.0602 362.781C55.629 362.633 55.2548 362.353 54.99 361.982C54.7252 361.611 54.5828 361.166 54.5828 360.711C54.5828 360.255 54.7252 359.81 54.99 359.439C55.2548 359.068 55.629 358.789 56.0602 358.64C57.1732 358.073 58.4047 357.777 59.6541 357.777C60.9034 357.777 62.1349 358.073 63.2479 358.64C65.0408 359.663 65.2009 361.278 63.7601 362.43L110.023 389.101H153.885L195.602 365.116L180.187 356.225L190.112 350.501H161.297L123.614 372.231C125.055 373.383 124.895 374.982 123.102 376.021C121.989 376.588 120.758 376.884 119.508 376.884C118.259 376.884 117.027 376.588 115.914 376.021C113.929 374.87 113.929 373.015 115.914 371.88C116.925 371.368 118.032 371.076 119.163 371.024C120.295 370.972 121.424 371.16 122.478 371.576L160.993 349.366H192.113L213.195 337.197L200.229 329.714H177.225L156.991 318.057H141.896L107.798 337.709C109.399 338.86 109.207 340.507 107.382 341.563C106.269 342.13 105.038 342.425 103.788 342.425C102.539 342.425 101.307 342.13 100.195 341.563C98.2095 340.411 98.2095 338.556 100.195 337.421C101.18 336.925 102.257 336.637 103.359 336.577C104.461 336.516 105.564 336.684 106.598 337.069L141.543 316.922H157.247L177.481 328.579H198.292L156.815 304.674H134.404L87.7242 331.585H0.0159912V330.45H87.452L134.116 303.522H157.119L157.263 303.602L214.364 336.542L229.364 327.907L164.819 290.682H119.292L81.7532 312.333H0.0159912V311.198H81.433L117.019 290.682H0.0159912V289.419H165.123L165.251 289.499L230.532 327.188L247.549 317.37L157.519 265.434H0.0159912V264.299H114.794L0.0159912 198.1V196.789L117.067 264.299H156.703L71.364 215.081V204.24L30.5434 180.687C29.4913 181.105 28.3622 181.296 27.2308 181.247C26.0994 181.197 24.9914 180.908 23.98 180.399C21.9951 179.248 21.9951 177.393 23.98 176.258C25.0929 175.69 26.3246 175.395 27.5739 175.395C28.8233 175.395 30.0549 175.69 31.1677 176.258C32.9606 177.281 33.1207 178.896 31.68 180.031L53.9152 192.823V163.098L0.0159912 132.093V130.782L55.0518 162.506V193.479L72.5005 203.553V214.394L158.528 263.963L158.24 264.459L248.653 316.602L265.094 307.12L172.247 253.553V165.544L0.0159912 66.2301V64.9189L145.097 148.595V68.8845L34.0652 4.79636L33.825 4.95626C32.7122 5.5234 31.4806 5.81908 30.2313 5.81908C28.9819 5.81908 27.7503 5.5234 26.6375 4.95626C24.6524 3.85295 24.6524 1.99811 26.6375 0.862813ZM182.508 356.161L315.919 433.09L449.314 356.161L315.919 279.217L182.508 356.161Z" fill="#00E7FF" fill-opacity="0.2"/>
</svg>
