<svg width="160" height="160" viewBox="0 0 160 160" fill="none" xmlns="http://www.w3.org/2000/svg">
<path d="M126.452 67.0968C144.98 67.0968 160 52.0766 160 33.5484C160 15.0201 144.98 0 126.452 0C107.923 0 92.9033 15.0201 92.9033 33.5484C92.9033 52.0766 107.923 67.0968 126.452 67.0968Z" fill="#00E7FF"/>
<path d="M33.5484 67.0968C52.0766 67.0968 67.0968 52.0766 67.0968 33.5484C67.0968 15.0201 52.0766 0 33.5484 0C15.0201 0 0 15.0201 0 33.5484C0 52.0766 15.0201 67.0968 33.5484 67.0968Z" fill="#00E7FF"/>
<path d="M113.548 144.516H46.4512V149.677H113.548V144.516Z" fill="#28AA9A"/>
<path d="M104.268 58.7148L107.68 54.8439C101.569 49.4555 98.0646 41.6929 98.0646 33.5484C98.0646 17.8968 110.8 5.16129 126.452 5.16129C142.103 5.16129 154.839 17.8968 154.839 33.5484C154.839 41.6877 151.337 49.4477 145.226 54.8387L148.643 58.7071C155.861 52.3381 160 43.169 160 33.5484C160 15.0503 144.95 0 126.452 0C107.954 0 92.9033 15.0503 92.9033 33.5484C92.9033 43.1716 97.0453 52.3458 104.268 58.7148Z" fill="#333333"/>
<path d="M11.1871 58.5574L14.6297 54.7123C8.61161 49.329 5.16129 41.6129 5.16129 33.5484C5.16129 17.8968 17.8968 5.16129 33.5484 5.16129C49.2 5.16129 61.9355 17.8968 61.9355 33.5484C61.9355 41.6877 58.4335 49.4477 52.3226 54.8387L55.7394 58.7071C62.9574 52.3381 67.0968 43.169 67.0968 33.5484C67.0968 15.0503 52.0465 0 33.5484 0C15.0503 0 0 15.0503 0 33.5484C0 43.0813 4.07742 52.1961 11.1871 58.5574Z" fill="#333333"/>
<path d="M125.2 24.3333H128.8C130.785 24.3333 132.4 25.9778 132.4 28H136C136 23.9557 132.771 20.6667 128.8 20.6667V17H125.2V20.6667C121.229 20.6667 118 23.9557 118 28C118 32.0443 121.229 35.3333 125.2 35.3333H128.8C130.785 35.3333 132.4 36.9778 132.4 39C132.4 41.0222 130.785 42.6667 128.8 42.6667H125.2C123.215 42.6667 121.6 41.0222 121.6 39H118C118 43.0443 121.229 46.3333 125.2 46.3333V50H128.8V46.3333C132.771 46.3333 136 43.0443 136 39C136 34.9557 132.771 31.6667 128.8 31.6667H125.2C123.215 31.6667 121.6 30.0222 121.6 28C121.6 25.9778 123.215 24.3333 125.2 24.3333Z" fill="#333333"/>
<path d="M92.9033 64.5161C92.9033 77.3213 103.321 87.7419 116.129 87.7419H118.71V98.0645H95.6982V103.226H154.839V108.387H95.6982V113.548H154.839C157.685 113.548 160 111.234 160 108.387V103.226C160 100.379 157.685 98.0645 154.839 98.0645H134.194V87.7419H136.774C149.582 87.7419 160 77.3213 160 64.5161V61.9355H92.9033V64.5161ZM129.032 98.0645H123.871V87.7419H129.032V98.0645ZM154.656 67.0968C153.401 75.84 145.861 82.5806 136.774 82.5806H116.129C107.043 82.5806 99.5046 75.84 98.2478 67.0968H154.656Z" fill="#333333"/>
<path d="M103.226 129.032H90.3227V103.226C90.3227 98.9574 86.8492 95.4839 82.5808 95.4839H77.4195C73.1511 95.4839 69.6775 98.9574 69.6775 103.226V129.032H56.7743C49.6595 129.032 43.8711 134.821 43.8711 141.935V160H116.129V141.935C116.129 134.821 110.341 129.032 103.226 129.032ZM74.8388 103.226C74.8388 101.801 75.995 100.645 77.4195 100.645H82.5808C84.0053 100.645 85.1614 101.801 85.1614 103.226V129.032H74.8388V103.226ZM110.968 154.839H49.0324V141.935C49.0324 137.667 52.5059 134.194 56.7743 134.194H103.226C107.494 134.194 110.968 137.667 110.968 141.935V154.839Z" fill="#333333"/>
<path d="M64.5161 108.387H5.16129V103.226H64.5161V98.0645H41.2903V87.7419H43.871C56.6787 87.7419 67.0968 77.3213 67.0968 64.5161V61.9355H0V64.5161C0 77.3213 10.4181 87.7419 23.2258 87.7419H25.8064V98.0645H5.16129C2.31484 98.0645 0 100.379 0 103.226V108.387C0 111.234 2.31484 113.548 5.16129 113.548H64.5161V108.387ZM5.34452 67.0968H61.7497C60.4955 75.84 52.9548 82.5806 43.8684 82.5806H23.2232C14.1394 82.5806 6.60129 75.84 5.34452 67.0968ZM30.9677 87.7419H36.129V98.0645H30.9677V87.7419Z" fill="#333333"/>
<g clip-path="url(#clip0)">
<path d="M25.1797 43.7779V24.5239L27.3111 25.6866V43.7912L25.1797 43.7779ZM32.4558 47.9636V28.8624L34.5871 28.9022V47.9636H32.4558ZM19 40.3098V22.8032L21.1436 21.6936V39.7982L19 40.3098ZM33.1157 30.9685L19.2634 23.7665L21.7561 22.5308L34.0405 28.8823L33.1218 30.9685H33.1157ZM46.9297 24.783L32.6701 16.1128L33.5214 14L47.9724 22.7633L46.9359 24.783H46.9297ZM33.5949 49L19 40.3497L20.0351 38.3283L34.5228 46.9205L33.5949 49ZM20.6598 24.4442L19 22.8032L33.5214 14.0399L34.5351 16.1111L20.6598 24.4442ZM45.8686 40.2234V23.5672L48 22.7699V40.2301L45.8686 40.2234ZM33.6592 40.358L32.6793 38.305L46.4321 30.5848L47.412 32.6394L33.6592 40.3646V40.358ZM33.1999 31.3023L32.2812 29.2162L46.3678 21.873L47.2865 23.9592L33.1999 31.3023ZM33.5965 48.9934L32.664 46.9122L46.6082 38.3964L48.0015 40.1836L33.5965 48.9867V48.9934Z" fill="#333333"/>
</g>
<mask id="path-13-outside-1" maskUnits="userSpaceOnUse" x="18" y="13" width="31" height="37" fill="black">
<rect fill="white" x="18" y="13" width="31" height="37"/>
<path d="M25.1797 43.7779V24.5239L27.3111 25.6866V43.7912L25.1797 43.7779ZM32.4558 47.9636V28.8624L34.5871 28.9022V47.9636H32.4558ZM19 40.3098V22.8032L21.1436 21.6936V39.7982L19 40.3098ZM33.1157 30.9685L19.2634 23.7665L21.7561 22.5308L34.0405 28.8823L33.1218 30.9685H33.1157ZM46.9297 24.783L32.6701 16.1128L33.5214 14L47.9724 22.7633L46.9359 24.783H46.9297ZM33.5949 49L19 40.3497L20.0351 38.3283L34.5228 46.9205L33.5949 49ZM20.6598 24.4442L19 22.8032L33.5214 14.0399L34.5351 16.1111L20.6598 24.4442ZM45.8686 40.2234V23.5672L48 22.7699V40.2301L45.8686 40.2234ZM33.6592 40.358L32.6793 38.305L46.4321 30.5848L47.412 32.6394L33.6592 40.3646V40.358ZM33.1999 31.3023L32.2812 29.2162L46.3678 21.873L47.2865 23.9592L33.1999 31.3023ZM33.5965 48.9934L32.664 46.9122L46.6082 38.3964L48.0015 40.1836L33.5965 48.9867V48.9934Z"/>
</mask>
<path d="M25.1797 43.7779V24.5239L27.3111 25.6866V43.7912L25.1797 43.7779ZM32.4558 47.9636V28.8624L34.5871 28.9022V47.9636H32.4558ZM19 40.3098V22.8032L21.1436 21.6936V39.7982L19 40.3098ZM33.1157 30.9685L19.2634 23.7665L21.7561 22.5308L34.0405 28.8823L33.1218 30.9685H33.1157ZM46.9297 24.783L32.6701 16.1128L33.5214 14L47.9724 22.7633L46.9359 24.783H46.9297ZM33.5949 49L19 40.3497L20.0351 38.3283L34.5228 46.9205L33.5949 49ZM20.6598 24.4442L19 22.8032L33.5214 14.0399L34.5351 16.1111L20.6598 24.4442ZM45.8686 40.2234V23.5672L48 22.7699V40.2301L45.8686 40.2234ZM33.6592 40.358L32.6793 38.305L46.4321 30.5848L47.412 32.6394L33.6592 40.3646V40.358ZM33.1999 31.3023L32.2812 29.2162L46.3678 21.873L47.2865 23.9592L33.1999 31.3023ZM33.5965 48.9934L32.664 46.9122L46.6082 38.3964L48.0015 40.1836L33.5965 48.9867V48.9934Z" fill="#333333"/>
<path d="M25.1797 43.7779H24.6797V44.2748L25.1766 44.2779L25.1797 43.7779ZM25.1797 24.5239L25.4192 24.085L24.6797 23.6816V24.5239H25.1797ZM27.3111 25.6866H27.8111V25.3898L27.5505 25.2477L27.3111 25.6866ZM27.3111 43.7912L27.308 44.2912L27.8111 44.2943V43.7912H27.3111ZM32.4558 47.9636H31.9558V48.4636H32.4558V47.9636ZM32.4558 28.8624L32.4651 28.3625L31.9558 28.3529V28.8624H32.4558ZM34.5871 28.9022H35.0871V28.4115L34.5965 28.4023L34.5871 28.9022ZM34.5871 47.9636V48.4636H35.0871V47.9636H34.5871ZM19 40.3098H18.5V40.9432L19.1161 40.7961L19 40.3098ZM19 22.8032L18.7417 22.3751L18.5 22.5209V22.8032H19ZM21.1436 21.6936H21.6436V20.8718L20.9138 21.2496L21.1436 21.6936ZM21.1436 39.7982L21.2597 40.2846L21.6436 40.1929V39.7982H21.1436ZM33.1157 30.9685L32.885 31.4121L32.9935 31.4685H33.1157V30.9685ZM19.2634 23.7665L19.0413 23.3185L18.159 23.7559L19.0327 24.2101L19.2634 23.7665ZM21.7561 22.5308L21.9857 22.0866L21.7608 21.9703L21.534 22.0828L21.7561 22.5308ZM34.0405 28.8823L34.4981 29.0838L34.6874 28.6539L34.2701 28.4382L34.0405 28.8823ZM33.1218 30.9685V31.4685H33.448L33.5794 31.17L33.1218 30.9685ZM46.9297 24.783L46.67 25.2103L46.7896 25.283H46.9297V24.783ZM32.6701 16.1128L32.2064 15.9259L32.0477 16.3195L32.4104 16.54L32.6701 16.1128ZM33.5214 14L33.7807 13.5725L33.2776 13.2674L33.0577 13.8131L33.5214 14ZM47.9724 22.7633L48.4173 22.9916L48.6299 22.5772L48.2317 22.3358L47.9724 22.7633ZM46.9359 24.783V25.283H47.2412L47.3807 25.0113L46.9359 24.783ZM33.5949 49L33.34 49.4301L33.8228 49.7163L34.0515 49.2037L33.5949 49ZM19 40.3497L18.555 40.1218L18.3407 40.5401L18.7451 40.7798L19 40.3497ZM20.0351 38.3283L20.2901 37.8982L19.8325 37.6268L19.59 38.1004L20.0351 38.3283ZM34.5228 46.9205L34.9794 47.1242L35.1609 46.7176L34.7779 46.4904L34.5228 46.9205ZM20.6598 24.4442L20.3082 24.7997L20.5843 25.0727L20.9172 24.8728L20.6598 24.4442ZM33.5214 14.0399L33.9705 13.8201L33.7305 13.3297L33.2631 13.6118L33.5214 14.0399ZM34.5351 16.1111L34.7925 16.5397L35.1859 16.3035L34.9842 15.8913L34.5351 16.1111ZM45.8686 40.2234H45.3686V40.7219L45.8671 40.7234L45.8686 40.2234ZM45.8686 23.5672L45.6935 23.0989L45.3686 23.2204V23.5672H45.8686ZM48 22.7699H48.5V22.0491L47.8248 22.3016L48 22.7699ZM48 40.2301L47.9984 40.7301L48.5 40.7316V40.2301H48ZM33.6592 40.358H34.1592V40.2447L34.1105 40.1426L33.6592 40.358ZM32.6793 38.305L32.4346 37.869L32.0265 38.0981L32.2281 38.5204L32.6793 38.305ZM46.4321 30.5848L46.8834 30.3696L46.6534 29.8872L46.1874 30.1488L46.4321 30.5848ZM47.412 32.6394L47.6569 33.0754L48.0647 32.8463L47.8633 32.4242L47.412 32.6394ZM33.6592 40.3646H33.1592V41.2189L33.9041 40.8005L33.6592 40.3646ZM33.1999 31.3023L32.7423 31.5039L32.9575 31.9926L33.431 31.7457L33.1999 31.3023ZM32.2812 29.2162L32.0501 28.7728L31.6349 28.9892L31.8236 29.4177L32.2812 29.2162ZM46.3678 21.873L46.8254 21.6715L46.6102 21.1828L46.1367 21.4296L46.3678 21.873ZM47.2865 23.9592L47.5176 24.4026L47.9328 24.1861L47.7441 23.7577L47.2865 23.9592ZM33.5965 48.9934L33.1402 49.1978L34.0965 48.9934H33.5965ZM32.664 46.9122L32.4034 46.4854L32.0277 46.7149L32.2077 47.1166L32.664 46.9122ZM46.6082 38.3964L47.0025 38.0889L46.7283 37.7372L46.3476 37.9696L46.6082 38.3964ZM48.0015 40.1836L48.2623 40.6102L48.7404 40.318L48.3959 39.8761L48.0015 40.1836ZM33.5965 48.9867L33.3357 48.5601L33.0965 48.7063V48.9867H33.5965ZM25.6797 43.7779V24.5239H24.6797V43.7779H25.6797ZM24.9403 24.9629L27.0716 26.1255L27.5505 25.2477L25.4192 24.085L24.9403 24.9629ZM26.8111 25.6866V43.7912H27.8111V25.6866H26.8111ZM27.3142 43.2912L25.1828 43.2779L25.1766 44.2779L27.308 44.2912L27.3142 43.2912ZM32.9558 47.9636V28.8624H31.9558V47.9636H32.9558ZM32.4464 29.3623L34.5778 29.4022L34.5965 28.4023L32.4651 28.3625L32.4464 29.3623ZM34.0871 28.9022V47.9636H35.0871V28.9022H34.0871ZM34.5871 47.4636H32.4558V48.4636H34.5871V47.4636ZM19.5 40.3098V22.8032H18.5V40.3098H19.5ZM19.2298 23.2472L21.3734 22.1377L20.9138 21.2496L18.7702 22.3591L19.2298 23.2472ZM20.6436 21.6936V39.7982H21.6436V21.6936H20.6436ZM21.0275 39.3119L18.8839 39.8235L19.1161 40.7961L21.2597 40.2846L21.0275 39.3119ZM33.3463 30.5249L19.494 23.3229L19.0327 24.2101L32.885 31.4121L33.3463 30.5249ZM19.4854 24.2145L21.9782 22.9787L21.534 22.0828L19.0413 23.3185L19.4854 24.2145ZM21.5264 22.9749L33.8109 29.3265L34.2701 28.4382L21.9857 22.0866L21.5264 22.9749ZM33.5829 28.6808L32.6642 30.767L33.5794 31.17L34.4981 29.0838L33.5829 28.6808ZM33.1218 30.4685H33.1157V31.4685H33.1218V30.4685ZM47.1895 24.3558L32.9299 15.6855L32.4104 16.54L46.67 25.2103L47.1895 24.3558ZM33.1339 16.2996L33.9852 14.1869L33.0577 13.8131L32.2064 15.9259L33.1339 16.2996ZM33.2622 14.4275L47.7132 23.1908L48.2317 22.3358L33.7807 13.5725L33.2622 14.4275ZM47.5276 22.535L46.491 24.5547L47.3807 25.0113L48.4173 22.9916L47.5276 22.535ZM46.9359 24.283H46.9297V25.283H46.9359V24.283ZM33.8499 48.5699L19.2549 39.9195L18.7451 40.7798L33.34 49.4301L33.8499 48.5699ZM19.445 40.5775L20.4801 38.5561L19.59 38.1004L18.555 40.1218L19.445 40.5775ZM19.78 38.7583L34.2678 47.3505L34.7779 46.4904L20.2901 37.8982L19.78 38.7583ZM34.0662 46.7167L33.1383 48.7963L34.0515 49.2037L34.9794 47.1242L34.0662 46.7167ZM21.0113 24.0886L19.3515 22.4476L18.6485 23.1587L20.3082 24.7997L21.0113 24.0886ZM19.2583 23.2312L33.7798 14.468L33.2631 13.6118L18.7417 22.3751L19.2583 23.2312ZM33.0723 14.2596L34.086 16.3309L34.9842 15.8913L33.9705 13.8201L33.0723 14.2596ZM34.2776 15.6825L20.4023 24.0156L20.9172 24.8728L34.7925 16.5397L34.2776 15.6825ZM46.3686 40.2234V23.5672H45.3686V40.2234H46.3686ZM46.0438 24.0355L48.1752 23.2382L47.8248 22.3016L45.6935 23.0989L46.0438 24.0355ZM47.5 22.7699V40.2301H48.5V22.7699H47.5ZM48.0016 39.7301L45.8702 39.7234L45.8671 40.7234L47.9984 40.7301L48.0016 39.7301ZM34.1105 40.1426L33.1305 38.0896L32.2281 38.5204L33.208 40.5733L34.1105 40.1426ZM32.9241 38.741L46.6769 31.0208L46.1874 30.1488L32.4346 37.869L32.9241 38.741ZM45.9808 30.8L46.9607 32.8547L47.8633 32.4242L46.8834 30.3696L45.9808 30.8ZM47.1672 32.2035L33.4144 39.9287L33.9041 40.8005L47.6569 33.0754L47.1672 32.2035ZM34.1592 40.3646V40.358H33.1592V40.3646H34.1592ZM33.6575 31.1008L32.7388 29.0147L31.8236 29.4177L32.7423 31.5039L33.6575 31.1008ZM32.5123 29.6595L46.5989 22.3164L46.1367 21.4296L32.0501 28.7728L32.5123 29.6595ZM45.9102 22.0745L46.8289 24.1607L47.7441 23.7577L46.8254 21.6715L45.9102 22.0745ZM47.0554 23.5158L32.9688 30.859L33.431 31.7457L47.5176 24.4026L47.0554 23.5158ZM34.0528 48.7889L33.1203 46.7077L32.2077 47.1166L33.1402 49.1978L34.0528 48.7889ZM32.9246 47.3389L46.8688 38.8231L46.3476 37.9696L32.4034 46.4854L32.9246 47.3389ZM46.2139 38.7038L47.6072 40.491L48.3959 39.8761L47.0025 38.0889L46.2139 38.7038ZM47.7408 39.7569L33.3357 48.5601L33.8572 49.4133L48.2623 40.6102L47.7408 39.7569ZM33.0965 48.9867V48.9934H34.0965V48.9867H33.0965Z" fill="#333333" mask="url(#path-13-outside-1)"/>
<defs>
<clipPath id="clip0">
<rect x="19" y="14" width="29" height="35" fill="white"/>
</clipPath>
</defs>
</svg>
