<svg width="160" height="160" viewBox="0 0 160 160" fill="none" xmlns="http://www.w3.org/2000/svg">
<path d="M126.452 67.0968C144.98 67.0968 160 52.0766 160 33.5484C160 15.0201 144.98 0 126.452 0C107.923 0 92.9033 15.0201 92.9033 33.5484C92.9033 52.0766 107.923 67.0968 126.452 67.0968Z" fill="#00E7FF"/>
<path d="M33.5484 67.0968C52.0766 67.0968 67.0968 52.0766 67.0968 33.5484C67.0968 15.0201 52.0766 0 33.5484 0C15.0201 0 0 15.0201 0 33.5484C0 52.0766 15.0201 67.0968 33.5484 67.0968Z" fill="#00E7FF"/>
<path d="M113.548 144.516H46.4512V149.677H113.548V144.516Z" fill="#28AA9A"/>
<path d="M104.268 58.7148L107.68 54.8439C101.569 49.4555 98.0646 41.6929 98.0646 33.5484C98.0646 17.8968 110.8 5.16129 126.452 5.16129C142.103 5.16129 154.839 17.8968 154.839 33.5484C154.839 41.6877 151.337 49.4477 145.226 54.8387L148.643 58.7071C155.861 52.3381 160 43.169 160 33.5484C160 15.0503 144.95 0 126.452 0C107.954 0 92.9033 15.0503 92.9033 33.5484C92.9033 43.1716 97.0453 52.3458 104.268 58.7148Z" fill="#333333"/>
<path d="M11.1871 58.5574L14.6297 54.7123C8.61161 49.329 5.16129 41.6129 5.16129 33.5484C5.16129 17.8968 17.8968 5.16129 33.5484 5.16129C49.2 5.16129 61.9355 17.8968 61.9355 33.5484C61.9355 41.6877 58.4335 49.4477 52.3226 54.8387L55.7394 58.7071C62.9574 52.3381 67.0968 43.169 67.0968 33.5484C67.0968 15.0503 52.0465 0 33.5484 0C15.0503 0 0 15.0503 0 33.5484C0 43.0813 4.07742 52.1961 11.1871 58.5574Z" fill="#333333"/>
<path d="M125.2 24.3333H128.8C130.785 24.3333 132.4 25.9778 132.4 28H136C136 23.9557 132.771 20.6667 128.8 20.6667V17H125.2V20.6667C121.229 20.6667 118 23.9557 118 28C118 32.0443 121.229 35.3333 125.2 35.3333H128.8C130.785 35.3333 132.4 36.9778 132.4 39C132.4 41.0222 130.785 42.6667 128.8 42.6667H125.2C123.215 42.6667 121.6 41.0222 121.6 39H118C118 43.0443 121.229 46.3333 125.2 46.3333V50H128.8V46.3333C132.771 46.3333 136 43.0443 136 39C136 34.9557 132.771 31.6667 128.8 31.6667H125.2C123.215 31.6667 121.6 30.0222 121.6 28C121.6 25.9778 123.215 24.3333 125.2 24.3333Z" fill="#333333"/>
<path d="M92.9033 64.5161C92.9033 77.3213 103.321 87.7419 116.129 87.7419H118.71V98.0645H95.6982V103.226H154.839V108.387H95.6982V113.548H154.839C157.685 113.548 160 111.234 160 108.387V103.226C160 100.379 157.685 98.0645 154.839 98.0645H134.194V87.7419H136.774C149.582 87.7419 160 77.3213 160 64.5161V61.9355H92.9033V64.5161ZM129.032 98.0645H123.871V87.7419H129.032V98.0645ZM154.656 67.0968C153.401 75.84 145.861 82.5806 136.774 82.5806H116.129C107.043 82.5806 99.5046 75.84 98.2478 67.0968H154.656Z" fill="#333333"/>
<path d="M103.226 129.032H90.3227V103.226C90.3227 98.9574 86.8492 95.4839 82.5808 95.4839H77.4195C73.1511 95.4839 69.6775 98.9574 69.6775 103.226V129.032H56.7743C49.6595 129.032 43.8711 134.821 43.8711 141.935V160H116.129V141.935C116.129 134.821 110.341 129.032 103.226 129.032ZM74.8388 103.226C74.8388 101.801 75.995 100.645 77.4195 100.645H82.5808C84.0053 100.645 85.1614 101.801 85.1614 103.226V129.032H74.8388V103.226ZM110.968 154.839H49.0324V141.935C49.0324 137.667 52.5059 134.194 56.7743 134.194H103.226C107.494 134.194 110.968 137.667 110.968 141.935V154.839Z" fill="#333333"/>
<path d="M64.5161 108.387H5.16129V103.226H64.5161V98.0645H41.2903V87.7419H43.871C56.6787 87.7419 67.0968 77.3213 67.0968 64.5161V61.9355H0V64.5161C0 77.3213 10.4181 87.7419 23.2258 87.7419H25.8064V98.0645H5.16129C2.31484 98.0645 0 100.379 0 103.226V108.387C0 111.234 2.31484 113.548 5.16129 113.548H64.5161V108.387ZM5.34452 67.0968H61.7497C60.4955 75.84 52.9548 82.5806 43.8684 82.5806H23.2232C14.1394 82.5806 6.60129 75.84 5.34452 67.0968ZM30.9677 87.7419H36.129V98.0645H30.9677V87.7419Z" fill="#333333"/>
<g clip-path="url(#clip0)">
<path d="M25.1797 43.7779V24.5239L27.3111 25.6866V43.7912L25.1797 43.7779ZM32.4558 47.9636V28.8624L34.5871 28.9022V47.9636H32.4558ZM19 40.3098V22.8032L21.1436 21.6936V39.7982L19 40.3098ZM33.1157 30.9685L19.2634 23.7665L21.7561 22.5308L34.0405 28.8823L33.1218 30.9685H33.1157ZM46.9297 24.783L32.6701 16.1128L33.5214 14L47.9724 22.7633L46.9359 24.783H46.9297ZM33.5949 49L19 40.3497L20.0351 38.3283L34.5228 46.9205L33.5949 49ZM20.6598 24.4442L19 22.8032L33.5214 14.0399L34.5351 16.1111L20.6598 24.4442ZM45.8686 40.2234V23.5672L48 22.7699V40.2301L45.8686 40.2234ZM33.6592 40.358L32.6793 38.305L46.4321 30.5848L47.412 32.6394L33.6592 40.3646V40.358ZM33.1999 31.3023L32.2812 29.2162L46.3678 21.873L47.2865 23.9592L33.1999 31.3023ZM33.5965 48.9934L32.664 46.9122L46.6082 38.3964L48.0015 40.1836L33.5965 48.9867V48.9934Z" fill="#333333"/>
</g>
<defs>
<clipPath id="clip0">
<rect x="19" y="14" width="29" height="35" fill="white"/>
</clipPath>
</defs>
</svg>
