<svg width="160" height="160" viewBox="0 0 160 160" fill="none" xmlns="http://www.w3.org/2000/svg">
<path d="M77.4191 108.387C75.9946 108.387 74.8385 109.543 74.8385 110.968V113.548H28.7275C29.4321 116.237 31.1972 118.49 33.5482 119.858V129.032H74.8385V131.613C74.8385 133.037 75.9946 134.194 77.4191 134.194H87.7417V108.387H77.4191Z" fill="#00E7FF"/>
<path d="M121.29 157.419C141.244 157.419 157.419 141.244 157.419 121.29C157.419 101.337 141.244 85.1613 121.29 85.1613C101.337 85.1613 85.1611 101.337 85.1611 121.29C85.1611 141.244 101.337 157.419 121.29 157.419Z" fill="#00E7FF"/>
<path d="M160 7.74193C160 3.47355 156.526 0 152.258 0C147.99 0 144.516 3.47355 144.516 7.74193C144.516 11.1019 146.681 13.9406 149.677 15.009V61.1097L137.257 78.5006L141.456 81.4993L154.839 62.7613V15.009C157.835 13.9406 160 11.1019 160 7.74193ZM152.258 10.3226C150.834 10.3226 149.677 9.16387 149.677 7.74193C149.677 6.32 150.834 5.16129 152.258 5.16129C153.683 5.16129 154.839 6.32 154.839 7.74193C154.839 9.16387 153.683 10.3226 152.258 10.3226Z" fill="#28AA9A"/>
<path d="M121.291 12.9032C117.022 12.9032 113.549 16.3767 113.549 20.6451C113.549 24.0051 115.714 26.8438 118.71 27.9122V77.4193H123.871V27.9122C126.868 26.8438 129.033 24.0051 129.033 20.6451C129.033 16.3767 125.559 12.9032 121.291 12.9032ZM121.291 23.2258C119.866 23.2258 118.71 22.0671 118.71 20.6451C118.71 19.2232 119.866 18.0645 121.291 18.0645C122.715 18.0645 123.871 19.2232 123.871 20.6451C123.871 22.0671 122.715 23.2258 121.291 23.2258Z" fill="#28AA9A"/>
<path d="M92.9036 15.009C95.8998 13.9406 98.0649 11.1019 98.0649 7.74193C98.0649 3.47355 94.5914 0 90.323 0C86.0546 0 82.5811 3.47355 82.5811 7.74193C82.5811 11.1019 84.7462 13.9406 87.7423 15.009V62.7613L101.128 81.4993L105.327 78.5006L92.9036 61.1097V15.009ZM90.323 5.16129C91.7475 5.16129 92.9036 6.32 92.9036 7.74193C92.9036 9.16387 91.7475 10.3226 90.323 10.3226C88.8985 10.3226 87.7423 9.16387 87.7423 7.74193C87.7423 6.32 88.8985 5.16129 90.323 5.16129Z" fill="#28AA9A"/>
<path d="M72.2581 152.258C72.2581 153.68 71.1019 154.839 69.6774 154.839H7.74194C6.31742 154.839 5.16129 153.68 5.16129 152.258V95.4838C5.16129 94.0619 6.31742 92.9032 7.74194 92.9032H69.6774C71.1019 92.9032 72.2581 94.0619 72.2581 95.4838V100.645H77.4193V95.4838C77.4193 92.1238 75.2542 89.2851 72.2581 88.2167V64.5161C72.2581 46.018 57.2077 30.9677 38.7097 30.9677C20.2116 30.9677 5.16129 46.018 5.16129 64.5161V88.2167C2.16516 89.2851 0 92.1238 0 95.4838V152.258C0 156.526 3.47355 160 7.74194 160H69.6774C73.9458 160 77.4193 156.526 77.4193 152.258V141.935H72.2581V152.258ZM56.7742 87.7419H20.6452V64.5161C20.6452 54.5548 28.751 46.4516 38.7097 46.4516C48.6684 46.4516 56.7742 54.5548 56.7742 64.5161V87.7419ZM38.7097 36.129C54.3613 36.129 67.0968 48.8645 67.0968 64.5161V87.7419H61.9355V64.5161C61.9355 51.7109 51.5174 41.2903 38.7097 41.2903C25.9019 41.2903 15.4839 51.7109 15.4839 64.5161V87.7419H10.3226V64.5161C10.3226 48.8645 23.0581 36.129 38.7097 36.129Z" fill="#333333"/>
<path d="M121.291 82.5806C105.451 82.5806 91.8221 92.1522 85.835 105.806H77.4195C74.5731 105.806 72.2583 108.121 72.2583 110.968H51.6131C51.6131 103.853 45.8247 98.0645 38.7099 98.0645C31.595 98.0645 25.8066 103.853 25.8066 110.968C25.8066 115.001 27.7524 118.815 30.9679 121.236V149.677H46.4518V131.613H72.2583C72.2583 134.459 74.5731 136.774 77.4195 136.774H85.835C91.8221 150.428 105.451 160 121.291 160C142.635 160 160 142.635 160 121.29C160 99.9458 142.635 82.5806 121.291 82.5806ZM38.7099 103.226C42.9783 103.226 46.4518 106.699 46.4518 110.968H30.9679C30.9679 106.699 34.4415 103.226 38.7099 103.226ZM41.2905 144.516H36.1292V131.613H41.2905V144.516ZM36.1292 126.452V118.374L34.8466 117.628C34.1421 117.218 33.5512 116.699 33.0221 116.129H72.2583V126.452H36.1292ZM77.4195 131.613V110.968H84.0208C83.1073 114.261 82.5808 117.711 82.5808 121.29C82.5808 124.87 83.1073 128.32 84.0208 131.613H77.4195ZM121.291 154.839C102.792 154.839 87.7421 139.788 87.7421 121.29C87.7421 102.792 102.792 87.7419 121.291 87.7419C139.789 87.7419 154.839 102.792 154.839 121.29C154.839 139.788 139.789 154.839 121.291 154.839Z" fill="#333333"/>
<path d="M139.355 43.8709H134.193V64.5161H139.355V43.8709Z" fill="#333333"/>
<path d="M139.355 33.5483H134.193V38.7096H139.355V33.5483Z" fill="#333333"/>
<path d="M108.387 43.8709H103.226V64.5161H108.387V43.8709Z" fill="#333333"/>
<path d="M108.387 33.5483H103.226V38.7096H108.387V33.5483Z" fill="#333333"/>
<mask id="path-13-outside-1" maskUnits="userSpaceOnUse" x="105" y="102" width="31" height="37" fill="black">
<rect fill="white" x="105" y="102" width="31" height="37"/>
<path d="M112.18 132.778V113.524L114.311 114.687V132.791L112.18 132.778ZM119.456 136.964V117.862L121.587 117.902V136.964H119.456ZM106 129.31V111.803L108.144 110.694V128.798L106 129.31ZM120.116 119.968L106.263 112.767L108.756 111.531L121.04 117.882L120.122 119.968H120.116ZM133.93 113.783L119.67 105.113L120.521 103L134.972 111.763L133.936 113.783H133.93ZM120.595 138L106 129.35L107.035 127.328L121.523 135.92L120.595 138ZM107.66 113.444L106 111.803L120.521 103.04L121.535 105.111L107.66 113.444ZM132.869 129.223V112.567L135 111.77V129.23L132.869 129.223ZM120.659 129.358L119.679 127.305L133.432 119.585L134.412 121.639L120.659 129.365V129.358ZM120.2 120.302L119.281 118.216L133.368 110.873L134.286 112.959L120.2 120.302ZM120.596 137.993L119.664 135.912L133.608 127.396L135.002 129.184L120.596 137.987V137.993Z"/>
</mask>
<path d="M112.18 132.778V113.524L114.311 114.687V132.791L112.18 132.778ZM119.456 136.964V117.862L121.587 117.902V136.964H119.456ZM106 129.31V111.803L108.144 110.694V128.798L106 129.31ZM120.116 119.968L106.263 112.767L108.756 111.531L121.04 117.882L120.122 119.968H120.116ZM133.93 113.783L119.67 105.113L120.521 103L134.972 111.763L133.936 113.783H133.93ZM120.595 138L106 129.35L107.035 127.328L121.523 135.92L120.595 138ZM107.66 113.444L106 111.803L120.521 103.04L121.535 105.111L107.66 113.444ZM132.869 129.223V112.567L135 111.77V129.23L132.869 129.223ZM120.659 129.358L119.679 127.305L133.432 119.585L134.412 121.639L120.659 129.365V129.358ZM120.2 120.302L119.281 118.216L133.368 110.873L134.286 112.959L120.2 120.302ZM120.596 137.993L119.664 135.912L133.608 127.396L135.002 129.184L120.596 137.987V137.993Z" fill="#333333"/>
<path d="M112.18 132.778H111.68C111.68 133.053 111.902 133.276 112.177 133.278L112.18 132.778ZM112.18 113.524L112.419 113.085C112.264 113 112.076 113.004 111.925 113.094C111.773 113.184 111.68 113.347 111.68 113.524H112.18ZM114.311 114.687H114.811C114.811 114.504 114.711 114.335 114.551 114.248L114.311 114.687ZM114.311 132.791L114.308 133.291C114.441 133.292 114.569 133.24 114.664 133.146C114.758 133.052 114.811 132.924 114.811 132.791H114.311ZM119.456 136.964H118.956C118.956 137.24 119.18 137.464 119.456 137.464V136.964ZM119.456 117.862L119.465 117.362C119.331 117.36 119.201 117.412 119.106 117.506C119.01 117.6 118.956 117.728 118.956 117.862H119.456ZM121.587 117.902H122.087C122.087 117.63 121.869 117.407 121.596 117.402L121.587 117.902ZM121.587 136.964V137.464C121.863 137.464 122.087 137.24 122.087 136.964H121.587ZM106 129.31H105.5C105.5 129.463 105.57 129.607 105.69 129.702C105.81 129.797 105.967 129.832 106.116 129.796L106 129.31ZM106 111.803L105.742 111.375C105.592 111.466 105.5 111.628 105.5 111.803H106ZM108.144 110.694H108.644C108.644 110.519 108.553 110.357 108.403 110.266C108.254 110.176 108.069 110.169 107.914 110.25L108.144 110.694ZM108.144 128.798L108.26 129.285C108.485 129.231 108.644 129.03 108.644 128.798H108.144ZM120.116 119.968L119.885 120.412C119.956 120.449 120.035 120.468 120.116 120.468V119.968ZM106.263 112.767L106.041 112.319C105.873 112.402 105.765 112.573 105.763 112.762C105.762 112.95 105.866 113.123 106.033 113.21L106.263 112.767ZM108.756 111.531L108.986 111.087C108.844 111.014 108.677 111.012 108.534 111.083L108.756 111.531ZM121.04 117.882L121.498 118.084C121.605 117.842 121.505 117.559 121.27 117.438L121.04 117.882ZM120.122 119.968V120.468C120.32 120.468 120.5 120.351 120.579 120.17L120.122 119.968ZM133.93 113.783L133.67 114.21C133.748 114.258 133.838 114.283 133.93 114.283V113.783ZM119.67 105.113L119.206 104.926C119.115 105.153 119.201 105.413 119.41 105.54L119.67 105.113ZM120.521 103L120.781 102.572C120.655 102.496 120.503 102.479 120.364 102.526C120.224 102.572 120.113 102.677 120.058 102.813L120.521 103ZM134.972 111.763L135.417 111.992C135.537 111.758 135.456 111.472 135.232 111.336L134.972 111.763ZM133.936 113.783V114.283C134.123 114.283 134.295 114.178 134.381 114.011L133.936 113.783ZM120.595 138L120.34 138.43C120.463 138.503 120.611 138.52 120.747 138.476C120.882 138.433 120.993 138.334 121.052 138.204L120.595 138ZM106 129.35L105.555 129.122C105.435 129.357 105.518 129.645 105.745 129.78L106 129.35ZM107.035 127.328L107.29 126.898C107.171 126.828 107.029 126.81 106.896 126.848C106.764 126.886 106.653 126.978 106.59 127.1L107.035 127.328ZM121.523 135.92L121.979 136.124C122.083 135.892 121.996 135.62 121.778 135.49L121.523 135.92ZM107.66 113.444L107.308 113.8C107.471 113.96 107.721 113.99 107.917 113.873L107.66 113.444ZM120.521 103.04L120.971 102.82C120.909 102.694 120.797 102.6 120.663 102.56C120.528 102.521 120.383 102.539 120.263 102.612L120.521 103.04ZM121.535 105.111L121.792 105.54C122.015 105.406 122.098 105.124 121.984 104.891L121.535 105.111ZM132.869 129.223H132.369C132.369 129.499 132.592 129.723 132.867 129.723L132.869 129.223ZM132.869 112.567L132.693 112.099C132.498 112.172 132.369 112.359 132.369 112.567H132.869ZM135 111.77H135.5C135.5 111.606 135.42 111.453 135.285 111.359C135.15 111.266 134.978 111.244 134.825 111.302L135 111.77ZM135 129.23L134.998 129.73C135.131 129.73 135.259 129.678 135.353 129.584C135.447 129.49 135.5 129.363 135.5 129.23H135ZM120.659 129.358H121.159C121.159 129.283 121.143 129.21 121.11 129.143L120.659 129.358ZM119.679 127.305L119.435 126.869C119.205 126.998 119.115 127.283 119.228 127.52L119.679 127.305ZM133.432 119.585L133.883 119.37C133.824 119.245 133.715 119.15 133.583 119.108C133.451 119.066 133.308 119.081 133.187 119.149L133.432 119.585ZM134.412 121.639L134.657 122.075C134.886 121.946 134.977 121.662 134.863 121.424L134.412 121.639ZM120.659 129.365H120.159C120.159 129.542 120.253 129.706 120.407 129.796C120.56 129.886 120.749 129.888 120.904 129.801L120.659 129.365ZM120.2 120.302L119.742 120.504C119.798 120.63 119.904 120.728 120.034 120.774C120.165 120.82 120.308 120.81 120.431 120.746L120.2 120.302ZM119.281 118.216L119.05 117.773C118.817 117.895 118.717 118.177 118.824 118.418L119.281 118.216ZM133.368 110.873L133.825 110.671C133.77 110.545 133.664 110.447 133.533 110.401C133.403 110.355 133.259 110.366 133.137 110.43L133.368 110.873ZM134.286 112.959L134.518 113.403C134.751 113.281 134.85 112.999 134.744 112.758L134.286 112.959ZM120.596 137.993L120.14 138.198C120.237 138.413 120.47 138.532 120.701 138.482C120.932 138.433 121.096 138.229 121.096 137.993H120.596ZM119.664 135.912L119.403 135.485C119.189 135.617 119.105 135.887 119.208 136.117L119.664 135.912ZM133.608 127.396L134.003 127.089C133.846 126.889 133.564 126.837 133.348 126.97L133.608 127.396ZM135.002 129.184L135.262 129.61C135.384 129.536 135.468 129.413 135.493 129.273C135.519 129.133 135.483 128.989 135.396 128.876L135.002 129.184ZM120.596 137.987L120.336 137.56C120.187 137.651 120.096 137.813 120.096 137.987H120.596ZM112.68 132.778V113.524H111.68V132.778H112.68ZM111.94 113.963L114.072 115.126L114.551 114.248L112.419 113.085L111.94 113.963ZM113.811 114.687V132.791H114.811V114.687H113.811ZM114.314 132.291L112.183 132.278L112.177 133.278L114.308 133.291L114.314 132.291ZM119.956 136.964V117.862H118.956V136.964H119.956ZM119.446 118.362L121.578 118.402L121.596 117.402L119.465 117.362L119.446 118.362ZM121.087 117.902V136.964H122.087V117.902H121.087ZM121.587 136.464H119.456V137.464H121.587V136.464ZM106.5 129.31V111.803H105.5V129.31H106.5ZM106.23 112.247L108.373 111.138L107.914 110.25L105.77 111.359L106.23 112.247ZM107.644 110.694V128.798H108.644V110.694H107.644ZM108.028 128.312L105.884 128.823L106.116 129.796L108.26 129.285L108.028 128.312ZM120.346 119.525L106.494 112.323L106.033 113.21L119.885 120.412L120.346 119.525ZM106.485 113.214L108.978 111.979L108.534 111.083L106.041 112.319L106.485 113.214ZM108.526 111.975L120.811 118.326L121.27 117.438L108.986 111.087L108.526 111.975ZM120.583 117.681L119.664 119.767L120.579 120.17L121.498 118.084L120.583 117.681ZM120.122 119.468H120.116V120.468H120.122V119.468ZM134.189 113.356L119.93 104.686L119.41 105.54L133.67 114.21L134.189 113.356ZM120.134 105.3L120.985 103.187L120.058 102.813L119.206 104.926L120.134 105.3ZM120.262 103.428L134.713 112.191L135.232 111.336L120.781 102.572L120.262 103.428ZM134.528 111.535L133.491 113.555L134.381 114.011L135.417 111.992L134.528 111.535ZM133.936 113.283H133.93V114.283H133.936V113.283ZM120.85 137.57L106.255 128.92L105.745 129.78L120.34 138.43L120.85 137.57ZM106.445 129.578L107.48 127.556L106.59 127.1L105.555 129.122L106.445 129.578ZM106.78 127.758L121.268 136.351L121.778 135.49L107.29 126.898L106.78 127.758ZM121.066 135.717L120.138 137.796L121.052 138.204L121.979 136.124L121.066 135.717ZM108.011 113.089L106.352 111.448L105.648 112.159L107.308 113.8L108.011 113.089ZM106.258 112.231L120.78 103.468L120.263 102.612L105.742 111.375L106.258 112.231ZM120.072 103.26L121.086 105.331L121.984 104.891L120.971 102.82L120.072 103.26ZM121.278 104.682L107.402 113.016L107.917 113.873L121.792 105.54L121.278 104.682ZM133.369 129.223V112.567H132.369V129.223H133.369ZM133.044 113.036L135.175 112.238L134.825 111.302L132.693 112.099L133.044 113.036ZM134.5 111.77V129.23H135.5V111.77H134.5ZM135.002 128.73L132.87 128.723L132.867 129.723L134.998 129.73L135.002 128.73ZM121.11 129.143L120.131 127.09L119.228 127.52L120.208 129.573L121.11 129.143ZM119.924 127.741L133.677 120.021L133.187 119.149L119.435 126.869L119.924 127.741ZM132.981 119.8L133.961 121.855L134.863 121.424L133.883 119.37L132.981 119.8ZM134.167 121.203L120.414 128.929L120.904 129.801L134.657 122.075L134.167 121.203ZM121.159 129.365V129.358H120.159V129.365H121.159ZM120.657 120.101L119.739 118.015L118.824 118.418L119.742 120.504L120.657 120.101ZM119.512 118.66L133.599 111.316L133.137 110.43L119.05 117.773L119.512 118.66ZM132.91 111.075L133.829 113.161L134.744 112.758L133.825 110.671L132.91 111.075ZM134.055 112.516L119.969 119.859L120.431 120.746L134.518 113.403L134.055 112.516ZM121.053 137.789L120.12 135.708L119.208 136.117L120.14 138.198L121.053 137.789ZM119.925 136.339L133.869 127.823L133.348 126.97L119.403 135.485L119.925 136.339ZM133.214 127.704L134.607 129.491L135.396 128.876L134.003 127.089L133.214 127.704ZM134.741 128.757L120.336 137.56L120.857 138.413L135.262 129.61L134.741 128.757ZM120.096 137.987V137.993H121.096V137.987H120.096Z" fill="#333333" mask="url(#path-13-outside-1)"/>
<path d="M121.29 98.0645C126.632 98.0645 131.853 99.9277 135.982 103.308L139.254 99.3135C134.201 95.1793 127.822 92.9032 121.29 92.9032C105.639 92.9032 92.9033 105.639 92.9033 121.29C92.9033 127.822 95.182 134.201 99.3162 139.254L103.308 135.984C99.9278 131.853 98.0646 126.632 98.0646 121.29C98.0646 108.485 108.483 98.0645 121.29 98.0645Z" fill="#333333"/>
<path d="M143.264 103.326L139.272 106.596C142.653 110.728 144.516 115.948 144.516 121.29C144.516 134.095 134.098 144.516 121.29 144.516C115.948 144.516 110.727 142.653 106.598 139.272L103.326 143.267C108.379 147.401 114.758 149.677 121.29 149.677C136.942 149.677 149.677 136.942 149.677 121.29C149.677 114.759 147.398 108.379 143.264 103.326Z" fill="#333333"/>
</svg>
