<svg width="160" height="160" viewBox="0 0 160 160" fill="none" xmlns="http://www.w3.org/2000/svg">
<path d="M77.4191 108.387C75.9946 108.387 74.8385 109.543 74.8385 110.968V113.548H28.7275C29.4321 116.237 31.1972 118.49 33.5482 119.858V129.032H74.8385V131.613C74.8385 133.037 75.9946 134.194 77.4191 134.194H87.7417V108.387H77.4191Z" fill="#00E7FF"/>
<path d="M121.29 157.419C141.244 157.419 157.419 141.244 157.419 121.29C157.419 101.337 141.244 85.1613 121.29 85.1613C101.337 85.1613 85.1611 101.337 85.1611 121.29C85.1611 141.244 101.337 157.419 121.29 157.419Z" fill="#00E7FF"/>
<path d="M160 7.74193C160 3.47355 156.526 0 152.258 0C147.99 0 144.516 3.47355 144.516 7.74193C144.516 11.1019 146.681 13.9406 149.677 15.009V61.1097L137.257 78.5006L141.456 81.4993L154.839 62.7613V15.009C157.835 13.9406 160 11.1019 160 7.74193ZM152.258 10.3226C150.834 10.3226 149.677 9.16387 149.677 7.74193C149.677 6.32 150.834 5.16129 152.258 5.16129C153.683 5.16129 154.839 6.32 154.839 7.74193C154.839 9.16387 153.683 10.3226 152.258 10.3226Z" fill="#28AA9A"/>
<path d="M121.291 12.9032C117.022 12.9032 113.549 16.3767 113.549 20.6451C113.549 24.0051 115.714 26.8438 118.71 27.9122V77.4193H123.871V27.9122C126.868 26.8438 129.033 24.0051 129.033 20.6451C129.033 16.3767 125.559 12.9032 121.291 12.9032ZM121.291 23.2258C119.866 23.2258 118.71 22.0671 118.71 20.6451C118.71 19.2232 119.866 18.0645 121.291 18.0645C122.715 18.0645 123.871 19.2232 123.871 20.6451C123.871 22.0671 122.715 23.2258 121.291 23.2258Z" fill="#28AA9A"/>
<path d="M92.9036 15.009C95.8998 13.9406 98.0649 11.1019 98.0649 7.74193C98.0649 3.47355 94.5914 0 90.323 0C86.0546 0 82.5811 3.47355 82.5811 7.74193C82.5811 11.1019 84.7462 13.9406 87.7423 15.009V62.7613L101.128 81.4993L105.327 78.5006L92.9036 61.1097V15.009ZM90.323 5.16129C91.7475 5.16129 92.9036 6.32 92.9036 7.74193C92.9036 9.16387 91.7475 10.3226 90.323 10.3226C88.8985 10.3226 87.7423 9.16387 87.7423 7.74193C87.7423 6.32 88.8985 5.16129 90.323 5.16129Z" fill="#28AA9A"/>
<path d="M72.2581 152.258C72.2581 153.68 71.1019 154.839 69.6774 154.839H7.74194C6.31742 154.839 5.16129 153.68 5.16129 152.258V95.4838C5.16129 94.0619 6.31742 92.9032 7.74194 92.9032H69.6774C71.1019 92.9032 72.2581 94.0619 72.2581 95.4838V100.645H77.4193V95.4838C77.4193 92.1238 75.2542 89.2851 72.2581 88.2167V64.5161C72.2581 46.018 57.2077 30.9677 38.7097 30.9677C20.2116 30.9677 5.16129 46.018 5.16129 64.5161V88.2167C2.16516 89.2851 0 92.1238 0 95.4838V152.258C0 156.526 3.47355 160 7.74194 160H69.6774C73.9458 160 77.4193 156.526 77.4193 152.258V141.935H72.2581V152.258ZM56.7742 87.7419H20.6452V64.5161C20.6452 54.5548 28.751 46.4516 38.7097 46.4516C48.6684 46.4516 56.7742 54.5548 56.7742 64.5161V87.7419ZM38.7097 36.129C54.3613 36.129 67.0968 48.8645 67.0968 64.5161V87.7419H61.9355V64.5161C61.9355 51.7109 51.5174 41.2903 38.7097 41.2903C25.9019 41.2903 15.4839 51.7109 15.4839 64.5161V87.7419H10.3226V64.5161C10.3226 48.8645 23.0581 36.129 38.7097 36.129Z" fill="#333333"/>
<path d="M121.291 82.5806C105.451 82.5806 91.8221 92.1522 85.835 105.806H77.4195C74.5731 105.806 72.2583 108.121 72.2583 110.968H51.6131C51.6131 103.853 45.8247 98.0645 38.7099 98.0645C31.595 98.0645 25.8066 103.853 25.8066 110.968C25.8066 115.001 27.7524 118.815 30.9679 121.236V149.677H46.4518V131.613H72.2583C72.2583 134.459 74.5731 136.774 77.4195 136.774H85.835C91.8221 150.428 105.451 160 121.291 160C142.635 160 160 142.635 160 121.29C160 99.9458 142.635 82.5806 121.291 82.5806ZM38.7099 103.226C42.9783 103.226 46.4518 106.699 46.4518 110.968H30.9679C30.9679 106.699 34.4415 103.226 38.7099 103.226ZM41.2905 144.516H36.1292V131.613H41.2905V144.516ZM36.1292 126.452V118.374L34.8466 117.628C34.1421 117.218 33.5512 116.699 33.0221 116.129H72.2583V126.452H36.1292ZM77.4195 131.613V110.968H84.0208C83.1073 114.261 82.5808 117.711 82.5808 121.29C82.5808 124.87 83.1073 128.32 84.0208 131.613H77.4195ZM121.291 154.839C102.792 154.839 87.7421 139.788 87.7421 121.29C87.7421 102.792 102.792 87.7419 121.291 87.7419C139.789 87.7419 154.839 102.792 154.839 121.29C154.839 139.788 139.789 154.839 121.291 154.839Z" fill="#333333"/>
<path d="M139.355 43.8709H134.193V64.5161H139.355V43.8709Z" fill="#333333"/>
<path d="M139.355 33.5483H134.193V38.7096H139.355V33.5483Z" fill="#333333"/>
<path d="M108.387 43.8709H103.226V64.5161H108.387V43.8709Z" fill="#333333"/>
<path d="M108.387 33.5483H103.226V38.7096H108.387V33.5483Z" fill="#333333"/>
<path d="M129.032 108.862V103.226H123.871V108.387H118.709V103.226H113.548V108.387H108.387V134.194H113.548V139.355H118.709V134.194H123.871V139.355H129.032V133.719C132.028 132.65 134.193 129.812 134.193 126.452C134.193 124.47 133.445 122.661 132.216 121.29C133.445 119.92 134.193 118.111 134.193 116.129C134.193 112.769 132.028 109.93 129.032 108.862ZM126.451 129.032H113.548V123.871H126.451C127.876 123.871 129.032 125.03 129.032 126.452C129.032 127.874 127.876 129.032 126.451 129.032ZM126.451 118.71H113.548V113.548H126.451C127.876 113.548 129.032 114.707 129.032 116.129C129.032 117.551 127.876 118.71 126.451 118.71Z" fill="#333333"/>
<path d="M121.29 98.0645C126.632 98.0645 131.853 99.9277 135.982 103.308L139.254 99.3135C134.201 95.1793 127.822 92.9032 121.29 92.9032C105.639 92.9032 92.9033 105.639 92.9033 121.29C92.9033 127.822 95.182 134.201 99.3162 139.254L103.308 135.984C99.9278 131.853 98.0646 126.632 98.0646 121.29C98.0646 108.485 108.483 98.0645 121.29 98.0645Z" fill="#333333"/>
<path d="M143.264 103.326L139.272 106.596C142.653 110.728 144.516 115.948 144.516 121.29C144.516 134.095 134.098 144.516 121.29 144.516C115.948 144.516 110.727 142.653 106.598 139.272L103.326 143.267C108.379 147.401 114.758 149.677 121.29 149.677C136.942 149.677 149.677 136.942 149.677 121.29C149.677 114.759 147.398 108.379 143.264 103.326Z" fill="#333333"/>
</svg>
