<svg width="160" height="160" viewBox="0 0 160 160" fill="none" xmlns="http://www.w3.org/2000/svg">
<g clip-path="url(#clip0)">
<path d="M118.709 69.6774C134.387 69.6774 147.096 56.9681 147.096 41.2903C147.096 25.6125 134.387 12.9032 118.709 12.9032C103.032 12.9032 90.3223 25.6125 90.3223 41.2903C90.3223 56.9681 103.032 69.6774 118.709 69.6774Z" fill="#00E7FF"/>
<path d="M134.948 117.953L138.598 114.303L123.115 98.8204L119.465 102.47L134.948 117.953Z" fill="#28AA9A"/>
<path d="M57.5282 40.5336L61.1777 36.884L45.6947 21.4011L42.0452 25.0506L57.5282 40.5336Z" fill="#28AA9A"/>
<path d="M109.14 92.146L112.79 88.4965L71.5013 47.2077L67.8518 50.8573L109.14 92.146Z" fill="#28AA9A"/>
<mask id="path-6-outside-1" maskUnits="userSpaceOnUse" x="102" y="22" width="31" height="37" fill="black">
<rect fill="white" x="102" y="22" width="31" height="37"/>
<path d="M109.18 52.7779V33.5239L111.311 34.6866V52.7912L109.18 52.7779ZM116.456 56.9636V37.8624L118.587 37.9022V56.9636H116.456ZM103 49.3098V31.8032L105.144 30.6936V48.7982L103 49.3098ZM117.116 39.9685L103.263 32.7665L105.756 31.5308L118.04 37.8823L117.122 39.9685H117.116ZM130.93 33.783L116.67 25.1128L117.521 23L131.972 31.7633L130.936 33.783H130.93ZM117.595 58L103 49.3497L104.035 47.3283L118.523 55.9205L117.595 58ZM104.66 33.4442L103 31.8032L117.521 23.0399L118.535 25.1111L104.66 33.4442ZM129.869 49.2234V32.5672L132 31.7699V49.2301L129.869 49.2234ZM117.659 49.358L116.679 47.305L130.432 39.5848L131.412 41.6394L117.659 49.3646V49.358ZM117.2 40.3023L116.281 38.2162L130.368 30.873L131.286 32.9592L117.2 40.3023ZM117.596 57.9934L116.664 55.9122L130.608 47.3964L132.002 49.1836L117.596 57.9867V57.9934Z"/>
</mask>
<path d="M109.18 52.7779V33.5239L111.311 34.6866V52.7912L109.18 52.7779ZM116.456 56.9636V37.8624L118.587 37.9022V56.9636H116.456ZM103 49.3098V31.8032L105.144 30.6936V48.7982L103 49.3098ZM117.116 39.9685L103.263 32.7665L105.756 31.5308L118.04 37.8823L117.122 39.9685H117.116ZM130.93 33.783L116.67 25.1128L117.521 23L131.972 31.7633L130.936 33.783H130.93ZM117.595 58L103 49.3497L104.035 47.3283L118.523 55.9205L117.595 58ZM104.66 33.4442L103 31.8032L117.521 23.0399L118.535 25.1111L104.66 33.4442ZM129.869 49.2234V32.5672L132 31.7699V49.2301L129.869 49.2234ZM117.659 49.358L116.679 47.305L130.432 39.5848L131.412 41.6394L117.659 49.3646V49.358ZM117.2 40.3023L116.281 38.2162L130.368 30.873L131.286 32.9592L117.2 40.3023ZM117.596 57.9934L116.664 55.9122L130.608 47.3964L132.002 49.1836L117.596 57.9867V57.9934Z" fill="#333333"/>
<path d="M109.18 52.7779H108.68C108.68 53.0528 108.902 53.2762 109.177 53.2779L109.18 52.7779ZM109.18 33.5239L109.419 33.085C109.264 33.0005 109.076 33.0039 108.925 33.094C108.773 33.184 108.68 33.3474 108.68 33.5239H109.18ZM111.311 34.6866H111.811C111.811 34.5036 111.711 34.3353 111.551 34.2477L111.311 34.6866ZM111.311 52.7912L111.308 53.2912C111.441 53.292 111.569 53.2397 111.664 53.1458C111.758 53.052 111.811 52.9243 111.811 52.7912H111.311ZM116.456 56.9636H115.956C115.956 57.2397 116.18 57.4636 116.456 57.4636V56.9636ZM116.456 37.8624L116.465 37.3625C116.331 37.36 116.201 37.4115 116.106 37.5055C116.01 37.5996 115.956 37.7281 115.956 37.8624H116.456ZM118.587 37.9022H119.087C119.087 37.6297 118.869 37.4074 118.596 37.4023L118.587 37.9022ZM118.587 56.9636V57.4636C118.863 57.4636 119.087 57.2397 119.087 56.9636H118.587ZM103 49.3098H102.5C102.5 49.4628 102.57 49.6074 102.69 49.7022C102.81 49.7971 102.967 49.8317 103.116 49.7961L103 49.3098ZM103 31.8032L102.742 31.3751C102.592 31.4656 102.5 31.628 102.5 31.8032H103ZM105.144 30.6936H105.644C105.644 30.5191 105.553 30.3572 105.403 30.2665C105.254 30.1758 105.069 30.1693 104.914 30.2496L105.144 30.6936ZM105.144 48.7982L105.26 49.2846C105.485 49.2308 105.644 49.0296 105.644 48.7982H105.144ZM117.116 39.9685L116.885 40.4121C116.956 40.4492 117.035 40.4685 117.116 40.4685V39.9685ZM103.263 32.7665L103.041 32.3185C102.873 32.4022 102.765 32.5735 102.763 32.7617C102.762 32.95 102.866 33.1233 103.033 33.2101L103.263 32.7665ZM105.756 31.5308L105.986 31.0866C105.844 31.0135 105.677 31.0121 105.534 31.0828L105.756 31.5308ZM118.04 37.8823L118.498 38.0838C118.605 37.8422 118.505 37.5594 118.27 37.4382L118.04 37.8823ZM117.122 39.9685V40.4685C117.32 40.4685 117.5 40.3514 117.579 40.17L117.122 39.9685ZM130.93 33.783L130.67 34.2103C130.748 34.2579 130.838 34.283 130.93 34.283V33.783ZM116.67 25.1128L116.206 24.9259C116.115 25.1529 116.201 25.4128 116.41 25.54L116.67 25.1128ZM117.521 23L117.781 22.5725C117.655 22.4964 117.503 22.4793 117.364 22.5256C117.224 22.5719 117.113 22.6771 117.058 22.8131L117.521 23ZM131.972 31.7633L132.417 31.9916C132.537 31.7582 132.456 31.4718 132.232 31.3358L131.972 31.7633ZM130.936 33.783V34.283C131.123 34.283 131.295 34.1781 131.381 34.0113L130.936 33.783ZM117.595 58L117.34 58.4301C117.463 58.5028 117.611 58.5197 117.747 58.4765C117.882 58.4332 117.993 58.334 118.052 58.2037L117.595 58ZM103 49.3497L102.555 49.1218C102.435 49.3569 102.518 49.6451 102.745 49.7798L103 49.3497ZM104.035 47.3283L104.29 46.8982C104.171 46.8278 104.029 46.8096 103.896 46.8479C103.764 46.8862 103.653 46.9775 103.59 47.1004L104.035 47.3283ZM118.523 55.9205L118.979 56.1242C119.083 55.8924 118.996 55.6199 118.778 55.4904L118.523 55.9205ZM104.66 33.4442L104.308 33.7997C104.471 33.9604 104.721 33.9905 104.917 33.8728L104.66 33.4442ZM117.521 23.0399L117.971 22.8201C117.909 22.6941 117.797 22.5998 117.663 22.5602C117.528 22.5206 117.383 22.5393 117.263 22.6118L117.521 23.0399ZM118.535 25.1111L118.792 25.5397C119.015 25.4061 119.098 25.1244 118.984 24.8913L118.535 25.1111ZM129.869 49.2234H129.369C129.369 49.499 129.592 49.7226 129.867 49.7234L129.869 49.2234ZM129.869 32.5672L129.693 32.0989C129.498 32.172 129.369 32.3586 129.369 32.5672H129.869ZM132 31.7699H132.5C132.5 31.606 132.42 31.4525 132.285 31.3591C132.15 31.2657 131.978 31.2442 131.825 31.3016L132 31.7699ZM132 49.2301L131.998 49.7301C132.131 49.7305 132.259 49.678 132.353 49.5842C132.447 49.4904 132.5 49.3629 132.5 49.2301H132ZM117.659 49.358H118.159C118.159 49.2834 118.143 49.2098 118.11 49.1426L117.659 49.358ZM116.679 47.305L116.435 46.869C116.205 46.9979 116.115 47.2828 116.228 47.5204L116.679 47.305ZM130.432 39.5848L130.883 39.3696C130.824 39.2447 130.715 39.15 130.583 39.1082C130.451 39.0664 130.308 39.0811 130.187 39.1488L130.432 39.5848ZM131.412 41.6394L131.657 42.0754C131.886 41.9465 131.977 41.6617 131.863 41.4242L131.412 41.6394ZM117.659 49.3646H117.159C117.159 49.5422 117.253 49.7064 117.407 49.7961C117.56 49.8858 117.749 49.8875 117.904 49.8005L117.659 49.3646ZM117.2 40.3023L116.742 40.5039C116.798 40.6304 116.904 40.7283 117.034 40.7741C117.165 40.8199 117.308 40.8097 117.431 40.7457L117.2 40.3023ZM116.281 38.2162L116.05 37.7728C115.817 37.8945 115.717 38.1766 115.824 38.4177L116.281 38.2162ZM130.368 30.873L130.825 30.6715C130.77 30.5449 130.664 30.4471 130.533 30.4013C130.403 30.3554 130.259 30.3657 130.137 30.4296L130.368 30.873ZM131.286 32.9592L131.518 33.4026C131.751 33.2808 131.85 32.9987 131.744 32.7577L131.286 32.9592ZM117.596 57.9934L117.14 58.1978C117.237 58.413 117.47 58.5316 117.701 58.4823C117.932 58.433 118.096 58.2292 118.096 57.9934H117.596ZM116.664 55.9122L116.403 55.4854C116.189 55.6166 116.105 55.8869 116.208 56.1166L116.664 55.9122ZM130.608 47.3964L131.003 47.0889C130.846 46.8885 130.564 46.8372 130.348 46.9696L130.608 47.3964ZM132.002 49.1836L132.262 49.6102C132.384 49.5359 132.468 49.4133 132.493 49.2731C132.519 49.1329 132.483 48.9885 132.396 48.8761L132.002 49.1836ZM117.596 57.9867L117.336 57.5601C117.187 57.6509 117.096 57.8125 117.096 57.9867H117.596ZM109.68 52.7779V33.5239H108.68V52.7779H109.68ZM108.94 33.9629L111.072 35.1255L111.551 34.2477L109.419 33.085L108.94 33.9629ZM110.811 34.6866V52.7912H111.811V34.6866H110.811ZM111.314 52.2912L109.183 52.2779L109.177 53.2779L111.308 53.2912L111.314 52.2912ZM116.956 56.9636V37.8624H115.956V56.9636H116.956ZM116.446 38.3623L118.578 38.4022L118.596 37.4023L116.465 37.3625L116.446 38.3623ZM118.087 37.9022V56.9636H119.087V37.9022H118.087ZM118.587 56.4636H116.456V57.4636H118.587V56.4636ZM103.5 49.3098V31.8032H102.5V49.3098H103.5ZM103.23 32.2472L105.373 31.1377L104.914 30.2496L102.77 31.3591L103.23 32.2472ZM104.644 30.6936V48.7982H105.644V30.6936H104.644ZM105.028 48.3119L102.884 48.8235L103.116 49.7961L105.26 49.2846L105.028 48.3119ZM117.346 39.5249L103.494 32.3229L103.033 33.2101L116.885 40.4121L117.346 39.5249ZM103.485 33.2145L105.978 31.9787L105.534 31.0828L103.041 32.3185L103.485 33.2145ZM105.526 31.9749L117.811 38.3265L118.27 37.4382L105.986 31.0866L105.526 31.9749ZM117.583 37.6808L116.664 39.767L117.579 40.17L118.498 38.0838L117.583 37.6808ZM117.122 39.4685H117.116V40.4685H117.122V39.4685ZM131.189 33.3558L116.93 24.6855L116.41 25.54L130.67 34.2103L131.189 33.3558ZM117.134 25.2996L117.985 23.1869L117.058 22.8131L116.206 24.9259L117.134 25.2996ZM117.262 23.4275L131.713 32.1908L132.232 31.3358L117.781 22.5725L117.262 23.4275ZM131.528 31.535L130.491 33.5547L131.381 34.0113L132.417 31.9916L131.528 31.535ZM130.936 33.283H130.93V34.283H130.936V33.283ZM117.85 57.5699L103.255 48.9195L102.745 49.7798L117.34 58.4301L117.85 57.5699ZM103.445 49.5775L104.48 47.5561L103.59 47.1004L102.555 49.1218L103.445 49.5775ZM103.78 47.7583L118.268 56.3505L118.778 55.4904L104.29 46.8982L103.78 47.7583ZM118.066 55.7167L117.138 57.7963L118.052 58.2037L118.979 56.1242L118.066 55.7167ZM105.011 33.0886L103.352 31.4476L102.648 32.1587L104.308 33.7997L105.011 33.0886ZM103.258 32.2312L117.78 23.468L117.263 22.6118L102.742 31.3751L103.258 32.2312ZM117.072 23.2596L118.086 25.3309L118.984 24.8913L117.971 22.8201L117.072 23.2596ZM118.278 24.6825L104.402 33.0156L104.917 33.8728L118.792 25.5397L118.278 24.6825ZM130.369 49.2234V32.5672H129.369V49.2234H130.369ZM130.044 33.0355L132.175 32.2382L131.825 31.3016L129.693 32.0989L130.044 33.0355ZM131.5 31.7699V49.2301H132.5V31.7699H131.5ZM132.002 48.7301L129.87 48.7234L129.867 49.7234L131.998 49.7301L132.002 48.7301ZM118.11 49.1426L117.131 47.0896L116.228 47.5204L117.208 49.5733L118.11 49.1426ZM116.924 47.741L130.677 40.0208L130.187 39.1488L116.435 46.869L116.924 47.741ZM129.981 39.8L130.961 41.8547L131.863 41.4242L130.883 39.3696L129.981 39.8ZM131.167 41.2035L117.414 48.9287L117.904 49.8005L131.657 42.0754L131.167 41.2035ZM118.159 49.3646V49.358H117.159V49.3646H118.159ZM117.657 40.1008L116.739 38.0147L115.824 38.4177L116.742 40.5039L117.657 40.1008ZM116.512 38.6595L130.599 31.3164L130.137 30.4296L116.05 37.7728L116.512 38.6595ZM129.91 31.0745L130.829 33.1607L131.744 32.7577L130.825 30.6715L129.91 31.0745ZM131.055 32.5158L116.969 39.859L117.431 40.7457L131.518 33.4026L131.055 32.5158ZM118.053 57.7889L117.12 55.7077L116.208 56.1166L117.14 58.1978L118.053 57.7889ZM116.925 56.3389L130.869 47.8231L130.348 46.9696L116.403 55.4854L116.925 56.3389ZM130.214 47.7038L131.607 49.491L132.396 48.8761L131.003 47.0889L130.214 47.7038ZM131.741 48.7569L117.336 57.5601L117.857 58.4133L132.262 49.6102L131.741 48.7569ZM117.096 57.9867V57.9934H118.096V57.9867H117.096Z" fill="#333333" mask="url(#path-6-outside-1)"/>
<path d="M90.3232 41.2903C90.3232 47.8219 92.602 54.2013 96.7361 59.2542L100.728 55.9845C97.3478 51.8529 95.4845 46.6322 95.4845 41.2903C95.4845 28.4851 105.903 18.0645 118.71 18.0645C124.052 18.0645 129.273 19.9277 133.402 23.3084L136.674 19.3135C131.621 15.1793 125.242 12.9032 118.71 12.9032C103.059 12.9032 90.3232 25.6387 90.3232 41.2903Z" fill="#333333"/>
<path d="M118.71 64.5161C113.368 64.5161 108.147 62.6529 104.018 59.2722L100.746 63.2671C105.799 67.4013 112.178 69.6774 118.71 69.6774C134.362 69.6774 147.097 56.9419 147.097 41.2903C147.097 34.7587 144.818 28.3793 140.684 23.3264L136.692 26.5961C140.073 30.7277 141.936 35.9484 141.936 41.2903C141.936 54.0954 131.518 64.5161 118.71 64.5161Z" fill="#333333"/>
<path d="M116.499 0C108.917 0 101.787 2.95226 96.4266 8.31484L53.126 51.6129L108.388 106.875L151.686 63.5768C157.046 58.2142 160.001 51.0864 160.001 43.5045V0H116.499ZM154.84 43.5045C154.84 49.7084 152.421 55.5406 148.037 59.9277L108.388 99.5768L60.424 51.6129L100.073 11.9639C104.46 7.57677 110.292 5.16129 116.496 5.16129H154.84V43.5045Z" fill="#333333"/>
<path d="M141.936 103.043C141.936 105.799 140.863 108.392 138.912 110.343L129.033 120.222L115.374 106.563L111.725 110.212L129.033 127.52L142.561 113.992C145.487 111.066 147.098 107.177 147.098 103.043V74.8387H141.936V103.043Z" fill="#333333"/>
<path d="M53.4379 44.6271L39.7785 30.9677L49.6572 21.089C51.6082 19.138 54.2018 18.0645 56.9579 18.0645H85.1618V12.9032H56.9579C52.8237 12.9032 48.9372 14.5135 46.0082 17.4374L32.4805 30.9677L49.7889 48.2761L53.4379 44.6271Z" fill="#333333"/>
<path d="M71.9912 99.2192L79.7324 83.7368L75.1162 81.4287L67.375 96.911L71.9912 99.2192Z" fill="#333333"/>
<path d="M61.0673 103.818L62.8027 98.9597L39.0625 90.4791L37.3271 95.337L61.0673 103.818Z" fill="#333333"/>
<path d="M15.3455 143.102L30.8145 98.5807L25.9415 96.8876L10.4726 141.409L15.3455 143.102Z" fill="#333333"/>
<path d="M10.3226 160C4.62968 160 0 155.37 0 149.677C0 143.985 4.62968 139.355 10.3226 139.355C16.0155 139.355 20.6452 143.985 20.6452 149.677C20.6452 155.37 16.0155 160 10.3226 160ZM10.3226 144.516C7.47613 144.516 5.16129 146.831 5.16129 149.677C5.16129 152.524 7.47613 154.839 10.3226 154.839C13.169 154.839 15.4839 152.524 15.4839 149.677C15.4839 146.831 13.169 144.516 10.3226 144.516Z" fill="#28AA9A"/>
<path d="M30.9681 100.645C25.2752 100.645 20.6455 96.0155 20.6455 90.3226C20.6455 84.6297 25.2752 80 30.9681 80C36.661 80 41.2907 84.6297 41.2907 90.3226C41.2907 96.0155 36.661 100.645 30.9681 100.645ZM30.9681 85.1613C28.1216 85.1613 25.8068 87.4761 25.8068 90.3226C25.8068 93.169 28.1216 95.4839 30.9681 95.4839C33.8145 95.4839 36.1294 93.169 36.1294 90.3226C36.1294 87.4761 33.8145 85.1613 30.9681 85.1613Z" fill="#28AA9A"/>
<path d="M67.097 113.548C61.4041 113.548 56.7744 108.919 56.7744 103.226C56.7744 97.5329 61.4041 92.9032 67.097 92.9032C72.7899 92.9032 77.4196 97.5329 77.4196 103.226C77.4196 108.919 72.7899 113.548 67.097 113.548ZM67.097 98.0645C64.2505 98.0645 61.9357 100.379 61.9357 103.226C61.9357 106.072 64.2505 108.387 67.097 108.387C69.9434 108.387 72.2583 106.072 72.2583 103.226C72.2583 100.379 69.9434 98.0645 67.097 98.0645Z" fill="#28AA9A"/>
<path d="M74.0838 141.178L105.052 110.21L101.402 106.56L70.4342 137.528L74.0838 141.178Z" fill="#333333"/>
<path d="M66.3415 148.922L71.502 143.761L67.8524 140.112L62.6919 145.272L66.3415 148.922Z" fill="#333333"/>
<path d="M61.1901 138.599L97.3184 102.47L93.6688 98.8208L57.5406 134.949L61.1901 138.599Z" fill="#333333"/>
<path d="M53.4499 146.339L58.6104 141.179L54.9608 137.529L49.8003 142.69L53.4499 146.339Z" fill="#333333"/>
<path d="M35.3723 76.6739L53.4355 58.6107L49.786 54.9612L31.7228 73.0244L35.3723 76.6739Z" fill="#333333"/>
<path d="M45.6957 81.8249L61.1787 66.3419L57.5292 62.6924L42.0462 78.1754L45.6957 81.8249Z" fill="#333333"/>
</g>
<defs>
<clipPath id="clip0">
<rect width="160" height="160" fill="white"/>
</clipPath>
</defs>
</svg>
