<svg width="160" height="160" viewBox="0 0 160 160" fill="none" xmlns="http://www.w3.org/2000/svg">
<g clip-path="url(#clip0)">
<path d="M118.709 69.6774C134.387 69.6774 147.096 56.9681 147.096 41.2903C147.096 25.6125 134.387 12.9032 118.709 12.9032C103.032 12.9032 90.3223 25.6125 90.3223 41.2903C90.3223 56.9681 103.032 69.6774 118.709 69.6774Z" fill="#00E7FF"/>
<path d="M134.948 117.953L138.598 114.303L123.115 98.8204L119.465 102.47L134.948 117.953Z" fill="#28AA9A"/>
<path d="M57.5282 40.5336L61.1777 36.884L45.6947 21.4011L42.0452 25.0506L57.5282 40.5336Z" fill="#28AA9A"/>
<path d="M109.14 92.146L112.79 88.4965L71.5013 47.2077L67.8518 50.8573L109.14 92.146Z" fill="#28AA9A"/>
<path d="M110.968 23.2258V28.3871H105.807V54.1936H110.968V59.3549H116.129V54.1936H121.291V59.3549H126.452V53.7187C129.448 52.6503 131.613 49.8116 131.613 46.4516C131.613 44.4697 130.865 42.6607 129.636 41.2903C130.865 39.92 131.613 38.111 131.613 36.1291C131.613 32.7691 129.448 29.9303 126.452 28.862V23.2258H121.291V28.3871H116.129V23.2258H110.968ZM123.871 49.0323H110.968V43.871H123.871C125.296 43.871 126.452 45.0297 126.452 46.4516C126.452 47.8736 125.296 49.0323 123.871 49.0323ZM123.871 38.7097H110.968V33.5484H123.871C125.296 33.5484 126.452 34.7071 126.452 36.1291C126.452 37.551 125.296 38.7097 123.871 38.7097Z" fill="#333333"/>
<path d="M90.3232 41.2903C90.3232 47.8219 92.602 54.2013 96.7361 59.2542L100.728 55.9845C97.3478 51.8529 95.4845 46.6322 95.4845 41.2903C95.4845 28.4851 105.903 18.0645 118.71 18.0645C124.052 18.0645 129.273 19.9277 133.402 23.3084L136.674 19.3135C131.621 15.1793 125.242 12.9032 118.71 12.9032C103.059 12.9032 90.3232 25.6387 90.3232 41.2903Z" fill="#333333"/>
<path d="M118.71 64.5161C113.368 64.5161 108.147 62.6529 104.018 59.2722L100.746 63.2671C105.799 67.4013 112.178 69.6774 118.71 69.6774C134.362 69.6774 147.097 56.9419 147.097 41.2903C147.097 34.7587 144.818 28.3793 140.684 23.3264L136.692 26.5961C140.073 30.7277 141.936 35.9484 141.936 41.2903C141.936 54.0954 131.518 64.5161 118.71 64.5161Z" fill="#333333"/>
<path d="M116.499 0C108.917 0 101.787 2.95226 96.4266 8.31484L53.126 51.6129L108.388 106.875L151.686 63.5768C157.046 58.2142 160.001 51.0864 160.001 43.5045V0H116.499ZM154.84 43.5045C154.84 49.7084 152.421 55.5406 148.037 59.9277L108.388 99.5768L60.424 51.6129L100.073 11.9639C104.46 7.57677 110.292 5.16129 116.496 5.16129H154.84V43.5045Z" fill="#333333"/>
<path d="M141.936 103.043C141.936 105.799 140.863 108.392 138.912 110.343L129.033 120.222L115.374 106.563L111.725 110.212L129.033 127.52L142.561 113.992C145.487 111.066 147.098 107.177 147.098 103.043V74.8387H141.936V103.043Z" fill="#333333"/>
<path d="M53.4379 44.6271L39.7785 30.9677L49.6572 21.089C51.6082 19.138 54.2018 18.0645 56.9579 18.0645H85.1618V12.9032H56.9579C52.8237 12.9032 48.9372 14.5135 46.0082 17.4374L32.4805 30.9677L49.7889 48.2761L53.4379 44.6271Z" fill="#333333"/>
<path d="M71.9912 99.2192L79.7324 83.7368L75.1162 81.4287L67.375 96.911L71.9912 99.2192Z" fill="#333333"/>
<path d="M61.0673 103.818L62.8027 98.9597L39.0625 90.4791L37.3271 95.337L61.0673 103.818Z" fill="#333333"/>
<path d="M15.3455 143.102L30.8145 98.5807L25.9415 96.8876L10.4726 141.409L15.3455 143.102Z" fill="#333333"/>
<path d="M10.3226 160C4.62968 160 0 155.37 0 149.677C0 143.985 4.62968 139.355 10.3226 139.355C16.0155 139.355 20.6452 143.985 20.6452 149.677C20.6452 155.37 16.0155 160 10.3226 160ZM10.3226 144.516C7.47613 144.516 5.16129 146.831 5.16129 149.677C5.16129 152.524 7.47613 154.839 10.3226 154.839C13.169 154.839 15.4839 152.524 15.4839 149.677C15.4839 146.831 13.169 144.516 10.3226 144.516Z" fill="#28AA9A"/>
<path d="M30.9681 100.645C25.2752 100.645 20.6455 96.0155 20.6455 90.3226C20.6455 84.6297 25.2752 80 30.9681 80C36.661 80 41.2907 84.6297 41.2907 90.3226C41.2907 96.0155 36.661 100.645 30.9681 100.645ZM30.9681 85.1613C28.1216 85.1613 25.8068 87.4761 25.8068 90.3226C25.8068 93.169 28.1216 95.4839 30.9681 95.4839C33.8145 95.4839 36.1294 93.169 36.1294 90.3226C36.1294 87.4761 33.8145 85.1613 30.9681 85.1613Z" fill="#28AA9A"/>
<path d="M67.097 113.548C61.4041 113.548 56.7744 108.919 56.7744 103.226C56.7744 97.5329 61.4041 92.9032 67.097 92.9032C72.7899 92.9032 77.4196 97.5329 77.4196 103.226C77.4196 108.919 72.7899 113.548 67.097 113.548ZM67.097 98.0645C64.2505 98.0645 61.9357 100.379 61.9357 103.226C61.9357 106.072 64.2505 108.387 67.097 108.387C69.9434 108.387 72.2583 106.072 72.2583 103.226C72.2583 100.379 69.9434 98.0645 67.097 98.0645Z" fill="#28AA9A"/>
<path d="M74.0838 141.178L105.052 110.21L101.402 106.56L70.4342 137.528L74.0838 141.178Z" fill="#333333"/>
<path d="M66.3415 148.922L71.502 143.761L67.8524 140.112L62.6919 145.272L66.3415 148.922Z" fill="#333333"/>
<path d="M61.1901 138.599L97.3184 102.47L93.6688 98.8208L57.5406 134.949L61.1901 138.599Z" fill="#333333"/>
<path d="M53.4499 146.339L58.6104 141.179L54.9608 137.529L49.8003 142.69L53.4499 146.339Z" fill="#333333"/>
<path d="M35.3723 76.6739L53.4355 58.6107L49.786 54.9612L31.7228 73.0244L35.3723 76.6739Z" fill="#333333"/>
<path d="M45.6957 81.8249L61.1787 66.3419L57.5292 62.6924L42.0462 78.1754L45.6957 81.8249Z" fill="#333333"/>
</g>
<defs>
<clipPath id="clip0">
<rect width="160" height="160" fill="white"/>
</clipPath>
</defs>
</svg>
