<svg width="160" height="160" viewBox="0 0 160 160" fill="none" xmlns="http://www.w3.org/2000/svg">
<path d="M95.4838 51.6129C95.4838 47.3368 98.9497 43.8709 103.226 43.8709C104.075 43.8709 104.88 44.0413 105.644 44.2942C105.747 43.3058 105.806 42.3045 105.806 41.2903C105.806 25.6129 93.0967 12.9032 77.4193 12.9032C61.7419 12.9032 49.0322 25.6129 49.0322 41.2903C49.0322 56.9677 61.7419 69.6774 77.4193 69.6774C84.2813 69.6774 90.5755 67.2413 95.4838 63.1871V51.6129Z" fill="#00E7FF"/>
<path d="M87.7419 82.5806V77.4193H53.8271C52.6735 72.9806 48.6684 69.6774 43.871 69.6774V0H30.9677C23.8529 0 18.0645 5.78839 18.0645 12.9032V40.8181C15.5742 42.2503 13.4735 44.3174 12.0929 46.849L5.36 59.1974C1.8529 65.6232 0 72.8877 0 80.2065V114.511C0 121.03 1.16129 127.432 3.45032 133.538L7.74194 144.983V160H12.9032V144.049L8.28387 131.729C6.21161 126.201 5.16129 120.41 5.16129 114.514V80.2065C5.16129 73.7497 6.79742 67.3393 9.88903 61.6697L16.6219 49.3213C17.0168 48.6039 17.5174 47.9561 18.0645 47.3523V69.6774C18.0645 73.9123 20.1445 77.6464 23.3058 80H23.2258V86.0464C23.2258 89.4916 24.5703 92.7329 27.0065 95.169L32.1574 100.32C31.6826 101.177 31.1329 101.992 30.4361 102.692C28.4258 104.699 25.7548 105.806 22.9135 105.806H18.0645V110.968H22.9135C27.1355 110.968 31.1019 109.324 34.0826 106.341C37.0658 103.355 38.7097 99.3884 38.7097 95.1716V80C38.7097 77.1535 41.0245 74.8387 43.871 74.8387C46.7174 74.8387 49.0323 77.1535 49.0323 80V114.875C49.0323 121.907 46.8723 128.648 42.7845 134.374L36.129 143.69V160H41.2903V145.342L46.9832 137.373C51.7006 130.766 54.1935 122.986 54.1935 114.875V82.5806H87.7419ZM28.3871 86.0464V82.32C29.2206 82.4903 30.0852 82.5806 30.9677 82.5806H33.5484V94.4155L30.6555 91.5226C29.2129 90.08 28.3871 88.0852 28.3871 86.0464ZM33.9148 77.4193H30.9677C26.6994 77.4193 23.2258 73.9458 23.2258 69.6774V12.9032C23.2258 8.63484 26.6994 5.16129 30.9677 5.16129H38.7097V71.1123C36.3639 72.4826 34.6142 74.7277 33.9148 77.4193Z" fill="#333333"/>
<path d="M147.097 0H49.0322V5.16129H139.355V74.8387H144.516V5.16129H147.097C151.365 5.16129 154.839 8.63484 154.839 12.9032V69.6774C154.839 73.9458 151.365 77.4193 147.097 77.4193V82.5806C154.212 82.5806 160 76.7923 160 69.6774V12.9032C160 5.78839 154.212 0 147.097 0Z" fill="#333333"/>
<path d="M33.548 30.9678H28.3867V51.6129H33.548V30.9678Z" fill="#333333"/>
<path d="M149.646 87.7419C147.77 87.7651 146.031 88.3277 144.516 89.2258V87.7419C144.516 82.049 139.886 77.4193 134.193 77.4193C132.054 77.4193 130.064 78.0748 128.415 79.1922C127.003 75.169 123.21 72.258 118.709 72.258C116.82 72.258 115.073 72.8051 113.548 73.6929V51.6129C113.548 45.92 108.918 41.2903 103.225 41.2903C97.5325 41.2903 92.9028 45.92 92.9028 51.6129V87.7419H92.7299C84.286 87.7419 77.4189 94.609 77.4189 103.05V130.821C77.4189 137.012 79.8344 142.836 84.2189 147.221L92.9028 155.91V160H98.0641V153.77L87.868 143.572C84.4589 140.163 82.5802 135.634 82.5802 130.821V103.05C82.5802 97.4554 87.1325 92.9032 92.7299 92.9032H92.9028V113.548H98.0641V51.6129C98.0641 48.7664 100.379 46.4516 103.225 46.4516C106.072 46.4516 108.387 48.7664 108.387 51.6129V82.5806V113.548H113.548V82.5806C113.548 79.7342 115.863 77.4193 118.709 77.4193C121.556 77.4193 123.871 79.7342 123.871 82.5806V87.7419V113.548H129.032V87.7419C129.032 84.8954 131.347 82.5806 134.193 82.5806C137.04 82.5806 139.354 84.8954 139.354 87.7419V98.1548V113.548H144.516V98.1548C144.516 95.2929 146.843 92.9367 149.708 92.9032C151.052 92.9342 152.361 93.4064 153.331 94.3664C154.304 95.3264 154.838 96.609 154.838 97.9742V130.805C154.838 135.631 152.957 140.165 149.545 143.577L139.354 153.768V160H144.516C144.516 160 144.516 157.412 144.516 155.907L153.194 147.228C157.582 142.841 160 137.012 160 130.805V97.9742C160 95.218 158.921 92.6348 156.96 90.6967C155.001 88.7587 152.382 87.7135 149.646 87.7419Z" fill="#333333"/>
<mask id="path-7-outside-1" maskUnits="userSpaceOnUse" x="61" y="22" width="31" height="37" fill="black">
<rect fill="white" x="61" y="22" width="31" height="37"/>
<path d="M68.1797 52.7779V33.5239L70.3111 34.6866V52.7912L68.1797 52.7779ZM75.4558 56.9636V37.8624L77.5871 37.9022V56.9636H75.4558ZM62 49.3098V31.8032L64.1436 30.6936V48.7982L62 49.3098ZM76.1157 39.9685L62.2634 32.7665L64.7561 31.5308L77.0405 37.8823L76.1218 39.9685H76.1157ZM89.9297 33.783L75.6701 25.1128L76.5214 23L90.9724 31.7633L89.9359 33.783H89.9297ZM76.5949 58L62 49.3497L63.0351 47.3283L77.5228 55.9205L76.5949 58ZM63.6598 33.4442L62 31.8032L76.5214 23.0399L77.5351 25.1111L63.6598 33.4442ZM88.8686 49.2234V32.5672L91 31.7699V49.2301L88.8686 49.2234ZM76.6592 49.358L75.6793 47.305L89.4321 39.5848L90.412 41.6394L76.6592 49.3646V49.358ZM76.1999 40.3023L75.2812 38.2162L89.3678 30.873L90.2865 32.9592L76.1999 40.3023ZM76.5965 57.9934L75.664 55.9122L89.6082 47.3964L91.0015 49.1836L76.5965 57.9867V57.9934Z"/>
</mask>
<path d="M68.1797 52.7779V33.5239L70.3111 34.6866V52.7912L68.1797 52.7779ZM75.4558 56.9636V37.8624L77.5871 37.9022V56.9636H75.4558ZM62 49.3098V31.8032L64.1436 30.6936V48.7982L62 49.3098ZM76.1157 39.9685L62.2634 32.7665L64.7561 31.5308L77.0405 37.8823L76.1218 39.9685H76.1157ZM89.9297 33.783L75.6701 25.1128L76.5214 23L90.9724 31.7633L89.9359 33.783H89.9297ZM76.5949 58L62 49.3497L63.0351 47.3283L77.5228 55.9205L76.5949 58ZM63.6598 33.4442L62 31.8032L76.5214 23.0399L77.5351 25.1111L63.6598 33.4442ZM88.8686 49.2234V32.5672L91 31.7699V49.2301L88.8686 49.2234ZM76.6592 49.358L75.6793 47.305L89.4321 39.5848L90.412 41.6394L76.6592 49.3646V49.358ZM76.1999 40.3023L75.2812 38.2162L89.3678 30.873L90.2865 32.9592L76.1999 40.3023ZM76.5965 57.9934L75.664 55.9122L89.6082 47.3964L91.0015 49.1836L76.5965 57.9867V57.9934Z" fill="#333333"/>
<path d="M68.1797 52.7779H67.6797C67.6797 53.0528 67.9017 53.2762 68.1766 53.2779L68.1797 52.7779ZM68.1797 33.5239L68.4192 33.085C68.2642 33.0005 68.0763 33.0039 67.9245 33.094C67.7728 33.184 67.6797 33.3474 67.6797 33.5239H68.1797ZM70.3111 34.6866H70.8111C70.8111 34.5036 70.7112 34.3353 70.5505 34.2477L70.3111 34.6866ZM70.3111 52.7912L70.308 53.2912C70.4411 53.292 70.5691 53.2397 70.6635 53.1458C70.758 53.052 70.8111 52.9243 70.8111 52.7912H70.3111ZM75.4558 56.9636H74.9558C74.9558 57.2397 75.1796 57.4636 75.4558 57.4636V56.9636ZM75.4558 37.8624L75.4651 37.3625C75.3309 37.36 75.2013 37.4115 75.1055 37.5055C75.0097 37.5996 74.9558 37.7281 74.9558 37.8624H75.4558ZM77.5871 37.9022H78.0871C78.0871 37.6297 77.8689 37.4074 77.5965 37.4023L77.5871 37.9022ZM77.5871 56.9636V57.4636C77.8633 57.4636 78.0871 57.2397 78.0871 56.9636H77.5871ZM62 49.3098H61.5C61.5 49.4628 61.5701 49.6074 61.6902 49.7022C61.8103 49.7971 61.9672 49.8317 62.1161 49.7961L62 49.3098ZM62 31.8032L61.7417 31.3751C61.5917 31.4656 61.5 31.628 61.5 31.8032H62ZM64.1436 30.6936H64.6436C64.6436 30.5191 64.5526 30.3572 64.4035 30.2665C64.2544 30.1758 64.0688 30.1693 63.9138 30.2496L64.1436 30.6936ZM64.1436 48.7982L64.2597 49.2846C64.4848 49.2308 64.6436 49.0296 64.6436 48.7982H64.1436ZM76.1157 39.9685L75.885 40.4121C75.9563 40.4492 76.0354 40.4685 76.1157 40.4685V39.9685ZM62.2634 32.7665L62.0413 32.3185C61.8726 32.4022 61.7652 32.5735 61.7634 32.7617C61.7616 32.95 61.8657 33.1233 62.0327 33.2101L62.2634 32.7665ZM64.7561 31.5308L64.9857 31.0866C64.8443 31.0135 64.6766 31.0121 64.534 31.0828L64.7561 31.5308ZM77.0405 37.8823L77.4981 38.0838C77.6045 37.8422 77.5047 37.5594 77.2701 37.4382L77.0405 37.8823ZM76.1218 39.9685V40.4685C76.32 40.4685 76.4995 40.3514 76.5794 40.17L76.1218 39.9685ZM89.9297 33.783L89.67 34.2103C89.7482 34.2579 89.8381 34.283 89.9297 34.283V33.783ZM75.6701 25.1128L75.2064 24.9259C75.1149 25.1529 75.2012 25.4128 75.4104 25.54L75.6701 25.1128ZM76.5214 23L76.7807 22.5725C76.6553 22.4964 76.5027 22.4793 76.3635 22.5256C76.2243 22.5719 76.1125 22.6771 76.0577 22.8131L76.5214 23ZM90.9724 31.7633L91.4173 31.9916C91.5371 31.7582 91.4561 31.4718 91.2317 31.3358L90.9724 31.7633ZM89.9359 33.783V34.283C90.1233 34.283 90.2951 34.1781 90.3807 34.0113L89.9359 33.783ZM76.5949 58L76.34 58.4301C76.4627 58.5028 76.6106 58.5197 76.7465 58.4765C76.8824 58.4332 76.9934 58.334 77.0515 58.2037L76.5949 58ZM62 49.3497L61.555 49.1218C61.4346 49.3569 61.5178 49.6451 61.7451 49.7798L62 49.3497ZM63.0351 47.3283L63.2901 46.8982C63.1714 46.8278 63.0289 46.8096 62.8963 46.8479C62.7638 46.8862 62.6529 46.9775 62.59 47.1004L63.0351 47.3283ZM77.5228 55.9205L77.9794 56.1242C78.0828 55.8924 77.9962 55.6199 77.7779 55.4904L77.5228 55.9205ZM63.6598 33.4442L63.3082 33.7997C63.4707 33.9604 63.7213 33.9905 63.9172 33.8728L63.6598 33.4442ZM76.5214 23.0399L76.9705 22.8201C76.9089 22.6941 76.7972 22.5998 76.6627 22.5602C76.5281 22.5206 76.3832 22.5393 76.2631 22.6118L76.5214 23.0399ZM77.5351 25.1111L77.7925 25.5397C78.015 25.4061 78.0983 25.1244 77.9842 24.8913L77.5351 25.1111ZM88.8686 49.2234H88.3686C88.3686 49.499 88.5915 49.7226 88.8671 49.7234L88.8686 49.2234ZM88.8686 32.5672L88.6935 32.0989C88.4981 32.172 88.3686 32.3586 88.3686 32.5672H88.8686ZM91 31.7699H91.5C91.5 31.606 91.4197 31.4525 91.285 31.3591C91.1503 31.2657 90.9783 31.2442 90.8248 31.3016L91 31.7699ZM91 49.2301L90.9984 49.7301C91.1313 49.7305 91.2589 49.678 91.353 49.5842C91.4471 49.4904 91.5 49.3629 91.5 49.2301H91ZM76.6592 49.358H77.1592C77.1592 49.2834 77.1426 49.2098 77.1105 49.1426L76.6592 49.358ZM75.6793 47.305L75.4346 46.869C75.2049 46.9979 75.1146 47.2828 75.2281 47.5204L75.6793 47.305ZM89.4321 39.5848L89.8834 39.3696C89.8238 39.2447 89.7152 39.15 89.5833 39.1082C89.4514 39.0664 89.308 39.0811 89.1874 39.1488L89.4321 39.5848ZM90.412 41.6394L90.6569 42.0754C90.8864 41.9465 90.9766 41.6617 90.8633 41.4242L90.412 41.6394ZM76.6592 49.3646H76.1592C76.1592 49.5422 76.2534 49.7064 76.4067 49.7961C76.56 49.8858 76.7493 49.8875 76.9041 49.8005L76.6592 49.3646ZM76.1999 40.3023L75.7423 40.5039C75.798 40.6304 75.9037 40.7283 76.0342 40.7741C76.1647 40.8199 76.3084 40.8097 76.431 40.7457L76.1999 40.3023ZM75.2812 38.2162L75.0501 37.7728C74.8165 37.8945 74.7175 38.1766 74.8236 38.4177L75.2812 38.2162ZM89.3678 30.873L89.8254 30.6715C89.7696 30.5449 89.664 30.4471 89.5335 30.4013C89.403 30.3554 89.2593 30.3657 89.1367 30.4296L89.3678 30.873ZM90.2865 32.9592L90.5176 33.4026C90.7512 33.2808 90.8502 32.9987 90.7441 32.7577L90.2865 32.9592ZM76.5965 57.9934L76.1402 58.1978C76.2366 58.413 76.4703 58.5316 76.701 58.4823C76.9316 58.433 77.0965 58.2292 77.0965 57.9934H76.5965ZM75.664 55.9122L75.4034 55.4854C75.1886 55.6166 75.1048 55.8869 75.2077 56.1166L75.664 55.9122ZM89.6082 47.3964L90.0025 47.0889C89.8462 46.8885 89.5645 46.8372 89.3476 46.9696L89.6082 47.3964ZM91.0015 49.1836L91.2623 49.6102C91.3838 49.5359 91.4679 49.4133 91.4935 49.2731C91.519 49.1329 91.4835 48.9885 91.3959 48.8761L91.0015 49.1836ZM76.5965 57.9867L76.3357 57.5601C76.1871 57.6509 76.0965 57.8125 76.0965 57.9867H76.5965ZM68.6797 52.7779V33.5239H67.6797V52.7779H68.6797ZM67.9403 33.9629L70.0716 35.1255L70.5505 34.2477L68.4192 33.085L67.9403 33.9629ZM69.8111 34.6866V52.7912H70.8111V34.6866H69.8111ZM70.3142 52.2912L68.1828 52.2779L68.1766 53.2779L70.308 53.2912L70.3142 52.2912ZM75.9558 56.9636V37.8624H74.9558V56.9636H75.9558ZM75.4464 38.3623L77.5778 38.4022L77.5965 37.4023L75.4651 37.3625L75.4464 38.3623ZM77.0871 37.9022V56.9636H78.0871V37.9022H77.0871ZM77.5871 56.4636H75.4558V57.4636H77.5871V56.4636ZM62.5 49.3098V31.8032H61.5V49.3098H62.5ZM62.2298 32.2472L64.3734 31.1377L63.9138 30.2496L61.7702 31.3591L62.2298 32.2472ZM63.6436 30.6936V48.7982H64.6436V30.6936H63.6436ZM64.0275 48.3119L61.8839 48.8235L62.1161 49.7961L64.2597 49.2846L64.0275 48.3119ZM76.3463 39.5249L62.494 32.3229L62.0327 33.2101L75.885 40.4121L76.3463 39.5249ZM62.4854 33.2145L64.9782 31.9787L64.534 31.0828L62.0413 32.3185L62.4854 33.2145ZM64.5264 31.9749L76.8109 38.3265L77.2701 37.4382L64.9857 31.0866L64.5264 31.9749ZM76.5829 37.6808L75.6642 39.767L76.5794 40.17L77.4981 38.0838L76.5829 37.6808ZM76.1218 39.4685H76.1157V40.4685H76.1218V39.4685ZM90.1895 33.3558L75.9299 24.6855L75.4104 25.54L89.67 34.2103L90.1895 33.3558ZM76.1339 25.2996L76.9852 23.1869L76.0577 22.8131L75.2064 24.9259L76.1339 25.2996ZM76.2622 23.4275L90.7132 32.1908L91.2317 31.3358L76.7807 22.5725L76.2622 23.4275ZM90.5276 31.535L89.491 33.5547L90.3807 34.0113L91.4173 31.9916L90.5276 31.535ZM89.9359 33.283H89.9297V34.283H89.9359V33.283ZM76.8499 57.5699L62.2549 48.9195L61.7451 49.7798L76.34 58.4301L76.8499 57.5699ZM62.445 49.5775L63.4801 47.5561L62.59 47.1004L61.555 49.1218L62.445 49.5775ZM62.78 47.7583L77.2678 56.3505L77.7779 55.4904L63.2901 46.8982L62.78 47.7583ZM77.0662 55.7167L76.1383 57.7963L77.0515 58.2037L77.9794 56.1242L77.0662 55.7167ZM64.0113 33.0886L62.3515 31.4476L61.6485 32.1587L63.3082 33.7997L64.0113 33.0886ZM62.2583 32.2312L76.7798 23.468L76.2631 22.6118L61.7417 31.3751L62.2583 32.2312ZM76.0723 23.2596L77.086 25.3309L77.9842 24.8913L76.9705 22.8201L76.0723 23.2596ZM77.2776 24.6825L63.4023 33.0156L63.9172 33.8728L77.7925 25.5397L77.2776 24.6825ZM89.3686 49.2234V32.5672H88.3686V49.2234H89.3686ZM89.0438 33.0355L91.1752 32.2382L90.8248 31.3016L88.6935 32.0989L89.0438 33.0355ZM90.5 31.7699V49.2301H91.5V31.7699H90.5ZM91.0016 48.7301L88.8702 48.7234L88.8671 49.7234L90.9984 49.7301L91.0016 48.7301ZM77.1105 49.1426L76.1305 47.0896L75.2281 47.5204L76.208 49.5733L77.1105 49.1426ZM75.9241 47.741L89.6769 40.0208L89.1874 39.1488L75.4346 46.869L75.9241 47.741ZM88.9808 39.8L89.9607 41.8547L90.8633 41.4242L89.8834 39.3696L88.9808 39.8ZM90.1672 41.2035L76.4144 48.9287L76.9041 49.8005L90.6569 42.0754L90.1672 41.2035ZM77.1592 49.3646V49.358H76.1592V49.3646H77.1592ZM76.6575 40.1008L75.7388 38.0147L74.8236 38.4177L75.7423 40.5039L76.6575 40.1008ZM75.5123 38.6595L89.5989 31.3164L89.1367 30.4296L75.0501 37.7728L75.5123 38.6595ZM88.9102 31.0745L89.8289 33.1607L90.7441 32.7577L89.8254 30.6715L88.9102 31.0745ZM90.0554 32.5158L75.9688 39.859L76.431 40.7457L90.5176 33.4026L90.0554 32.5158ZM77.0528 57.7889L76.1203 55.7077L75.2077 56.1166L76.1402 58.1978L77.0528 57.7889ZM75.9246 56.3389L89.8688 47.8231L89.3476 46.9696L75.4034 55.4854L75.9246 56.3389ZM89.2139 47.7038L90.6072 49.491L91.3959 48.8761L90.0025 47.0889L89.2139 47.7038ZM90.7408 48.7569L76.3357 57.5601L76.8572 58.4133L91.2623 49.6102L90.7408 48.7569ZM76.0965 57.9867V57.9934H77.0965V57.9867H76.0965Z" fill="#333333" mask="url(#path-7-outside-1)"/>
<path d="M100.178 36.6426L105.239 35.6155C102.565 22.4542 90.8671 12.9032 77.4193 12.9032C61.7677 12.9032 49.0322 25.6387 49.0322 41.2903C49.0322 56.9419 61.7677 69.6774 77.4193 69.6774C81.3651 69.6774 85.1871 68.8826 88.7742 67.3135L86.7096 62.5832C83.7755 63.8658 80.6503 64.5161 77.4193 64.5161C64.6116 64.5161 54.1935 54.0955 54.1935 41.2903C54.1935 28.4851 64.6116 18.0645 77.4193 18.0645C88.4232 18.0645 97.9948 25.8787 100.178 36.6426Z" fill="#333333"/>
<path d="M126.452 28.3871C122.184 28.3871 118.71 24.9135 118.71 20.6451C118.71 16.3767 122.184 12.9032 126.452 12.9032C130.72 12.9032 134.194 16.3767 134.194 20.6451C134.194 24.9135 130.72 28.3871 126.452 28.3871ZM126.452 18.0645C125.027 18.0645 123.871 19.2232 123.871 20.6451C123.871 22.0671 125.027 23.2258 126.452 23.2258C127.876 23.2258 129.033 22.0671 129.033 20.6451C129.033 19.2232 127.876 18.0645 126.452 18.0645Z" fill="#28AA9A"/>
<path d="M126.452 49.0322C122.184 49.0322 118.71 45.5587 118.71 41.2903C118.71 37.0219 122.184 33.5483 126.452 33.5483C130.72 33.5483 134.194 37.0219 134.194 41.2903C134.194 45.5587 130.72 49.0322 126.452 49.0322ZM126.452 38.7096C125.027 38.7096 123.871 39.8683 123.871 41.2903C123.871 42.7122 125.027 43.8709 126.452 43.8709C127.876 43.8709 129.033 42.7122 129.033 41.2903C129.033 39.8683 127.876 38.7096 126.452 38.7096Z" fill="#28AA9A"/>
<path d="M126.452 69.6774C122.184 69.6774 118.71 66.2038 118.71 61.9354C118.71 57.667 122.184 54.1935 126.452 54.1935C130.72 54.1935 134.194 57.667 134.194 61.9354C134.194 66.2038 130.72 69.6774 126.452 69.6774ZM126.452 59.3548C125.027 59.3548 123.871 60.5135 123.871 61.9354C123.871 63.3574 125.027 64.5161 126.452 64.5161C127.876 64.5161 129.033 63.3574 129.033 61.9354C129.033 60.5135 127.876 59.3548 126.452 59.3548Z" fill="#28AA9A"/>
</svg>
