<svg width="160" height="160" viewBox="0 0 160 160" fill="none" xmlns="http://www.w3.org/2000/svg">
<path d="M95.4838 51.6129C95.4838 47.3368 98.9497 43.8709 103.226 43.8709C104.075 43.8709 104.88 44.0413 105.644 44.2942C105.747 43.3058 105.806 42.3045 105.806 41.2903C105.806 25.6129 93.0967 12.9032 77.4193 12.9032C61.7419 12.9032 49.0322 25.6129 49.0322 41.2903C49.0322 56.9677 61.7419 69.6774 77.4193 69.6774C84.2813 69.6774 90.5755 67.2413 95.4838 63.1871V51.6129Z" fill="#00E7FF"/>
<path d="M87.7419 82.5806V77.4193H53.8271C52.6735 72.9806 48.6684 69.6774 43.871 69.6774V0H30.9677C23.8529 0 18.0645 5.78839 18.0645 12.9032V40.8181C15.5742 42.2503 13.4735 44.3174 12.0929 46.849L5.36 59.1974C1.8529 65.6232 0 72.8877 0 80.2065V114.511C0 121.03 1.16129 127.432 3.45032 133.538L7.74194 144.983V160H12.9032V144.049L8.28387 131.729C6.21161 126.201 5.16129 120.41 5.16129 114.514V80.2065C5.16129 73.7497 6.79742 67.3393 9.88903 61.6697L16.6219 49.3213C17.0168 48.6039 17.5174 47.9561 18.0645 47.3523V69.6774C18.0645 73.9123 20.1445 77.6464 23.3058 80H23.2258V86.0464C23.2258 89.4916 24.5703 92.7329 27.0065 95.169L32.1574 100.32C31.6826 101.177 31.1329 101.992 30.4361 102.692C28.4258 104.699 25.7548 105.806 22.9135 105.806H18.0645V110.968H22.9135C27.1355 110.968 31.1019 109.324 34.0826 106.341C37.0658 103.355 38.7097 99.3884 38.7097 95.1716V80C38.7097 77.1535 41.0245 74.8387 43.871 74.8387C46.7174 74.8387 49.0323 77.1535 49.0323 80V114.875C49.0323 121.907 46.8723 128.648 42.7845 134.374L36.129 143.69V160H41.2903V145.342L46.9832 137.373C51.7006 130.766 54.1935 122.986 54.1935 114.875V82.5806H87.7419ZM28.3871 86.0464V82.32C29.2206 82.4903 30.0852 82.5806 30.9677 82.5806H33.5484V94.4155L30.6555 91.5226C29.2129 90.08 28.3871 88.0852 28.3871 86.0464ZM33.9148 77.4193H30.9677C26.6994 77.4193 23.2258 73.9458 23.2258 69.6774V12.9032C23.2258 8.63484 26.6994 5.16129 30.9677 5.16129H38.7097V71.1123C36.3639 72.4826 34.6142 74.7277 33.9148 77.4193Z" fill="#333333"/>
<path d="M147.097 0H49.0322V5.16129H139.355V74.8387H144.516V5.16129H147.097C151.365 5.16129 154.839 8.63484 154.839 12.9032V69.6774C154.839 73.9458 151.365 77.4193 147.097 77.4193V82.5806C154.212 82.5806 160 76.7923 160 69.6774V12.9032C160 5.78839 154.212 0 147.097 0Z" fill="#333333"/>
<path d="M33.548 30.9678H28.3867V51.6129H33.548V30.9678Z" fill="#333333"/>
<path d="M149.646 87.7419C147.77 87.7651 146.031 88.3277 144.516 89.2258V87.7419C144.516 82.049 139.886 77.4193 134.193 77.4193C132.054 77.4193 130.064 78.0748 128.415 79.1922C127.003 75.169 123.21 72.258 118.709 72.258C116.82 72.258 115.073 72.8051 113.548 73.6929V51.6129C113.548 45.92 108.918 41.2903 103.225 41.2903C97.5325 41.2903 92.9028 45.92 92.9028 51.6129V87.7419H92.7299C84.286 87.7419 77.4189 94.609 77.4189 103.05V130.821C77.4189 137.012 79.8344 142.836 84.2189 147.221L92.9028 155.91V160H98.0641V153.77L87.868 143.572C84.4589 140.163 82.5802 135.634 82.5802 130.821V103.05C82.5802 97.4554 87.1325 92.9032 92.7299 92.9032H92.9028V113.548H98.0641V51.6129C98.0641 48.7664 100.379 46.4516 103.225 46.4516C106.072 46.4516 108.387 48.7664 108.387 51.6129V82.5806V113.548H113.548V82.5806C113.548 79.7342 115.863 77.4193 118.709 77.4193C121.556 77.4193 123.871 79.7342 123.871 82.5806V87.7419V113.548H129.032V87.7419C129.032 84.8954 131.347 82.5806 134.193 82.5806C137.04 82.5806 139.354 84.8954 139.354 87.7419V98.1548V113.548H144.516V98.1548C144.516 95.2929 146.843 92.9367 149.708 92.9032C151.052 92.9342 152.361 93.4064 153.331 94.3664C154.304 95.3264 154.838 96.609 154.838 97.9742V130.805C154.838 135.631 152.957 140.165 149.545 143.577L139.354 153.768V160H144.516C144.516 160 144.516 157.412 144.516 155.907L153.194 147.228C157.582 142.841 160 137.012 160 130.805V97.9742C160 95.218 158.921 92.6348 156.96 90.6967C155.001 88.7587 152.382 87.7135 149.646 87.7419Z" fill="#333333"/>
<path d="M85.1618 28.862V23.2258H80.0005V28.3871H74.8392V23.2258H69.6779V28.3871H64.5166V54.1936H69.6779V59.3549H74.8392V54.1936H80.0005V59.3549H85.1618V53.7187C88.1579 52.6503 90.3231 49.8116 90.3231 46.4516C90.3231 44.4697 89.5747 42.6607 88.3463 41.2903C89.5747 39.92 90.3231 38.111 90.3231 36.1291C90.3231 32.7691 88.1579 29.9303 85.1618 28.862ZM82.5811 49.0323H69.6779V43.871H82.5811C84.0056 43.871 85.1618 45.0297 85.1618 46.4516C85.1618 47.8736 84.0056 49.0323 82.5811 49.0323ZM82.5811 38.7097H69.6779V33.5484H82.5811C84.0056 33.5484 85.1618 34.7071 85.1618 36.1291C85.1618 37.551 84.0056 38.7097 82.5811 38.7097Z" fill="#333333"/>
<path d="M100.178 36.6426L105.239 35.6155C102.565 22.4542 90.8671 12.9032 77.4193 12.9032C61.7677 12.9032 49.0322 25.6387 49.0322 41.2903C49.0322 56.9419 61.7677 69.6774 77.4193 69.6774C81.3651 69.6774 85.1871 68.8826 88.7742 67.3135L86.7096 62.5832C83.7755 63.8658 80.6503 64.5161 77.4193 64.5161C64.6116 64.5161 54.1935 54.0955 54.1935 41.2903C54.1935 28.4851 64.6116 18.0645 77.4193 18.0645C88.4232 18.0645 97.9948 25.8787 100.178 36.6426Z" fill="#333333"/>
<path d="M126.452 28.3871C122.184 28.3871 118.71 24.9135 118.71 20.6451C118.71 16.3767 122.184 12.9032 126.452 12.9032C130.72 12.9032 134.194 16.3767 134.194 20.6451C134.194 24.9135 130.72 28.3871 126.452 28.3871ZM126.452 18.0645C125.027 18.0645 123.871 19.2232 123.871 20.6451C123.871 22.0671 125.027 23.2258 126.452 23.2258C127.876 23.2258 129.033 22.0671 129.033 20.6451C129.033 19.2232 127.876 18.0645 126.452 18.0645Z" fill="#28AA9A"/>
<path d="M126.452 49.0322C122.184 49.0322 118.71 45.5587 118.71 41.2903C118.71 37.0219 122.184 33.5483 126.452 33.5483C130.72 33.5483 134.194 37.0219 134.194 41.2903C134.194 45.5587 130.72 49.0322 126.452 49.0322ZM126.452 38.7096C125.027 38.7096 123.871 39.8683 123.871 41.2903C123.871 42.7122 125.027 43.8709 126.452 43.8709C127.876 43.8709 129.033 42.7122 129.033 41.2903C129.033 39.8683 127.876 38.7096 126.452 38.7096Z" fill="#28AA9A"/>
<path d="M126.452 69.6774C122.184 69.6774 118.71 66.2038 118.71 61.9354C118.71 57.667 122.184 54.1935 126.452 54.1935C130.72 54.1935 134.194 57.667 134.194 61.9354C134.194 66.2038 130.72 69.6774 126.452 69.6774ZM126.452 59.3548C125.027 59.3548 123.871 60.5135 123.871 61.9354C123.871 63.3574 125.027 64.5161 126.452 64.5161C127.876 64.5161 129.033 63.3574 129.033 61.9354C129.033 60.5135 127.876 59.3548 126.452 59.3548Z" fill="#28AA9A"/>
</svg>
