<svg width="160" height="160" viewBox="0 0 160 160" fill="none" xmlns="http://www.w3.org/2000/svg">
<path d="M117.419 74.8388C137.373 74.8388 153.548 58.6632 153.548 38.7097C153.548 18.7562 137.373 2.58069 117.419 2.58069C97.4656 2.58069 81.29 18.7562 81.29 38.7097C81.29 58.6632 97.4656 74.8388 117.419 74.8388Z" fill="#00E7FF"/>
<path d="M37.4193 77.4193H32.258V30.9677H21.8193L45.1613 0.957397L68.5032 30.9677H58.0645V67.0968H52.9032V25.8064H57.9484L45.1613 9.36514L32.3742 25.8064H37.4193V77.4193Z" fill="#28AA9A"/>
<path d="M117.419 159.043L94.0771 129.032H104.516V92.9032H109.677V134.194H104.632L117.419 150.635L130.206 134.194H125.161V92.9032H130.322V129.032H140.761L117.419 159.043Z" fill="#28AA9A"/>
<path d="M60.4646 85.1613C58.9007 85.1613 57.3704 85.6232 56.0697 86.4929L50.3226 90.3225H40.0001L34.253 86.4929C32.9523 85.6232 31.4246 85.1613 29.8581 85.1613C25.4839 85.1613 21.9355 88.7096 21.9355 93.0838V97.8813C21.9355 102.258 25.4839 105.806 29.8581 105.806C31.422 105.806 32.9523 105.344 34.253 104.475L40.0001 100.645H50.3226L56.0697 104.475C57.3704 105.344 58.8981 105.806 60.4646 105.806C64.8414 105.806 68.3872 102.258 68.3872 97.8838V93.0838C68.3872 88.7096 64.8388 85.1613 60.4646 85.1613Z" fill="#00E7FF"/>
<path d="M117.42 0C96.0751 0 78.71 17.3652 78.71 38.7097C78.71 60.0542 96.0751 77.4193 117.42 77.4193C138.764 77.4193 156.129 60.0542 156.129 38.7097C156.129 17.3652 138.764 0 117.42 0ZM117.42 72.2581C98.9216 72.2581 83.8713 57.2077 83.8713 38.7097C83.8713 20.2116 98.9216 5.16129 117.42 5.16129C135.918 5.16129 150.968 20.2116 150.968 38.7097C150.968 57.2077 135.918 72.2581 117.42 72.2581Z" fill="#333333"/>
<path d="M125.162 26.2813V20.6451H120V25.8064H114.839V20.6451H109.678V25.8064H104.517V51.6129H109.678V56.7742H114.839V51.6129H120V56.7742H125.162V51.138C128.158 50.0697 130.323 47.2309 130.323 43.8709C130.323 41.889 129.575 40.08 128.346 38.7097C129.575 37.3393 130.323 35.5303 130.323 33.5484C130.323 30.1884 128.158 27.3497 125.162 26.2813ZM122.581 46.4516H109.678V41.2903H122.581C124.006 41.2903 125.162 42.449 125.162 43.8709C125.162 45.2929 124.006 46.4516 122.581 46.4516ZM122.581 36.129H109.678V30.9677H122.581C124.006 30.9677 125.162 32.1264 125.162 33.5484C125.162 34.9703 124.006 36.129 122.581 36.129Z" fill="#333333"/>
<path d="M117.419 15.4839C122.761 15.4839 127.982 17.3471 132.111 20.7278L135.383 16.733C130.33 12.5988 123.951 10.3226 117.419 10.3226C101.768 10.3226 89.0322 23.0581 89.0322 38.7097C89.0322 45.2413 91.3109 51.6207 95.4451 56.6736L99.4374 53.4039C96.0567 49.2723 94.1935 44.0517 94.1935 38.7097C94.1935 25.9046 104.612 15.4839 117.419 15.4839Z" fill="#333333"/>
<path d="M139.393 20.7458L135.401 24.0155C138.782 28.1471 140.645 33.3678 140.645 38.7097C140.645 51.5149 130.227 61.9355 117.419 61.9355C112.077 61.9355 106.856 60.0723 102.727 56.6917L99.4551 60.6865C104.508 64.8207 110.887 67.0968 117.419 67.0968C133.071 67.0968 145.806 54.3613 145.806 38.7097C145.806 32.1781 143.527 25.7988 139.393 20.7458Z" fill="#333333"/>
<path d="M76.1292 98.0645H81.2905V113.548H9.03238V98.0645H14.1937V92.9032H3.87109V118.71H86.4517V92.9032H76.1292V98.0645Z" fill="#333333"/>
<path d="M29.8577 108.387C31.9429 108.387 33.9558 107.778 35.6848 106.622L40.7816 103.226H49.5429L54.6371 106.622C56.3661 107.778 58.379 108.387 60.4642 108.387C66.2551 108.387 70.9674 103.675 70.9674 97.8839V93.0839C70.9674 87.2929 66.2551 82.5807 60.4642 82.5807C58.379 82.5807 56.3661 83.1897 54.6371 84.3458L49.5403 87.742H40.779L35.6848 84.3458C33.9558 83.1897 31.9429 82.5807 29.8577 82.5807C24.0668 82.5807 19.3545 87.2929 19.3545 93.0839V97.8813C19.3545 103.675 24.0668 108.387 29.8577 108.387ZM57.5016 88.6375C58.379 88.0517 59.4061 87.742 60.4642 87.742C63.4113 87.742 65.8061 90.1394 65.8061 93.0839V97.8813C65.8061 100.828 63.4087 103.223 60.4642 103.223C59.4061 103.223 58.379 102.914 57.5016 102.325L52.9029 99.2646V91.7033L57.5016 88.6375ZM42.5803 92.9033H47.7416V98.0646H42.5803V92.9033ZM24.5158 93.0839C24.5158 90.1368 26.9132 87.742 29.8577 87.742C30.9158 87.742 31.9429 88.0517 32.8203 88.64L37.419 91.7033V99.2646L32.8203 102.33C31.9429 102.916 30.9158 103.226 29.8577 103.226C26.9132 103.226 24.5158 100.828 24.5158 97.8839V93.0839Z" fill="#333333"/>
<path d="M76.129 154.839H52.9032V123.871H47.7419V154.839H42.5806V123.871H37.4193V154.839H14.1935V123.871H9.03223V160H81.2903V123.871H76.129V154.839Z" fill="#333333"/>
<path d="M130.322 82.5807H125.161V87.742H130.322V82.5807Z" fill="#28AA9A"/>
<path d="M109.678 82.5807H104.517V87.742H109.678V82.5807Z" fill="#28AA9A"/>
<path d="M58.0646 72.2581H52.9033V77.4193H58.0646V72.2581Z" fill="#28AA9A"/>
</svg>
