<svg width="160" height="160" viewBox="0 0 160 160" fill="none" xmlns="http://www.w3.org/2000/svg">
<path d="M117.419 74.8388C137.373 74.8388 153.548 58.6632 153.548 38.7097C153.548 18.7562 137.373 2.58069 117.419 2.58069C97.4656 2.58069 81.29 18.7562 81.29 38.7097C81.29 58.6632 97.4656 74.8388 117.419 74.8388Z" fill="#00E7FF"/>
<path d="M37.4193 77.4193H32.258V30.9677H21.8193L45.1613 0.957397L68.5032 30.9677H58.0645V67.0968H52.9032V25.8064H57.9484L45.1613 9.36514L32.3742 25.8064H37.4193V77.4193Z" fill="#28AA9A"/>
<path d="M117.419 159.043L94.0771 129.032H104.516V92.9032H109.677V134.194H104.632L117.419 150.635L130.206 134.194H125.161V92.9032H130.322V129.032H140.761L117.419 159.043Z" fill="#28AA9A"/>
<path d="M60.4646 85.1613C58.9007 85.1613 57.3704 85.6232 56.0697 86.4929L50.3226 90.3225H40.0001L34.253 86.4929C32.9523 85.6232 31.4246 85.1613 29.8581 85.1613C25.4839 85.1613 21.9355 88.7096 21.9355 93.0838V97.8813C21.9355 102.258 25.4839 105.806 29.8581 105.806C31.422 105.806 32.9523 105.344 34.253 104.475L40.0001 100.645H50.3226L56.0697 104.475C57.3704 105.344 58.8981 105.806 60.4646 105.806C64.8414 105.806 68.3872 102.258 68.3872 97.8838V93.0838C68.3872 88.7096 64.8388 85.1613 60.4646 85.1613Z" fill="#00E7FF"/>
<path d="M117.42 0C96.0751 0 78.71 17.3652 78.71 38.7097C78.71 60.0542 96.0751 77.4193 117.42 77.4193C138.764 77.4193 156.129 60.0542 156.129 38.7097C156.129 17.3652 138.764 0 117.42 0ZM117.42 72.2581C98.9216 72.2581 83.8713 57.2077 83.8713 38.7097C83.8713 20.2116 98.9216 5.16129 117.42 5.16129C135.918 5.16129 150.968 20.2116 150.968 38.7097C150.968 57.2077 135.918 72.2581 117.42 72.2581Z" fill="#333333"/>
<mask id="path-7-outside-1" maskUnits="userSpaceOnUse" x="101" y="20" width="31" height="37" fill="black">
<rect fill="white" x="101" y="20" width="31" height="37"/>
<path d="M108.18 50.7779V31.5239L110.311 32.6866V50.7912L108.18 50.7779ZM115.456 54.9636V35.8624L117.587 35.9022V54.9636H115.456ZM102 47.3098V29.8032L104.144 28.6936V46.7982L102 47.3098ZM116.116 37.9685L102.263 30.7665L104.756 29.5308L117.04 35.8823L116.122 37.9685H116.116ZM129.93 31.783L115.67 23.1128L116.521 21L130.972 29.7633L129.936 31.783H129.93ZM116.595 56L102 47.3497L103.035 45.3283L117.523 53.9205L116.595 56ZM103.66 31.4442L102 29.8032L116.521 21.0399L117.535 23.1111L103.66 31.4442ZM128.869 47.2234V30.5672L131 29.7699V47.2301L128.869 47.2234ZM116.659 47.358L115.679 45.305L129.432 37.5848L130.412 39.6394L116.659 47.3646V47.358ZM116.2 38.3023L115.281 36.2162L129.368 28.873L130.286 30.9592L116.2 38.3023ZM116.596 55.9934L115.664 53.9122L129.608 45.3964L131.002 47.1836L116.596 55.9867V55.9934Z"/>
</mask>
<path d="M108.18 50.7779V31.5239L110.311 32.6866V50.7912L108.18 50.7779ZM115.456 54.9636V35.8624L117.587 35.9022V54.9636H115.456ZM102 47.3098V29.8032L104.144 28.6936V46.7982L102 47.3098ZM116.116 37.9685L102.263 30.7665L104.756 29.5308L117.04 35.8823L116.122 37.9685H116.116ZM129.93 31.783L115.67 23.1128L116.521 21L130.972 29.7633L129.936 31.783H129.93ZM116.595 56L102 47.3497L103.035 45.3283L117.523 53.9205L116.595 56ZM103.66 31.4442L102 29.8032L116.521 21.0399L117.535 23.1111L103.66 31.4442ZM128.869 47.2234V30.5672L131 29.7699V47.2301L128.869 47.2234ZM116.659 47.358L115.679 45.305L129.432 37.5848L130.412 39.6394L116.659 47.3646V47.358ZM116.2 38.3023L115.281 36.2162L129.368 28.873L130.286 30.9592L116.2 38.3023ZM116.596 55.9934L115.664 53.9122L129.608 45.3964L131.002 47.1836L116.596 55.9867V55.9934Z" fill="#333333"/>
<path d="M108.18 50.7779H107.68C107.68 51.0528 107.902 51.2762 108.177 51.2779L108.18 50.7779ZM108.18 31.5239L108.419 31.085C108.264 31.0005 108.076 31.0039 107.925 31.094C107.773 31.184 107.68 31.3474 107.68 31.5239H108.18ZM110.311 32.6866H110.811C110.811 32.5036 110.711 32.3353 110.551 32.2477L110.311 32.6866ZM110.311 50.7912L110.308 51.2912C110.441 51.292 110.569 51.2397 110.664 51.1458C110.758 51.052 110.811 50.9243 110.811 50.7912H110.311ZM115.456 54.9636H114.956C114.956 55.2397 115.18 55.4636 115.456 55.4636V54.9636ZM115.456 35.8624L115.465 35.3625C115.331 35.36 115.201 35.4115 115.106 35.5055C115.01 35.5996 114.956 35.7281 114.956 35.8624H115.456ZM117.587 35.9022H118.087C118.087 35.6297 117.869 35.4074 117.596 35.4023L117.587 35.9022ZM117.587 54.9636V55.4636C117.863 55.4636 118.087 55.2397 118.087 54.9636H117.587ZM102 47.3098H101.5C101.5 47.4628 101.57 47.6074 101.69 47.7022C101.81 47.7971 101.967 47.8317 102.116 47.7961L102 47.3098ZM102 29.8032L101.742 29.3751C101.592 29.4656 101.5 29.628 101.5 29.8032H102ZM104.144 28.6936H104.644C104.644 28.5191 104.553 28.3572 104.403 28.2665C104.254 28.1758 104.069 28.1693 103.914 28.2496L104.144 28.6936ZM104.144 46.7982L104.26 47.2846C104.485 47.2308 104.644 47.0296 104.644 46.7982H104.144ZM116.116 37.9685L115.885 38.4121C115.956 38.4492 116.035 38.4685 116.116 38.4685V37.9685ZM102.263 30.7665L102.041 30.3185C101.873 30.4022 101.765 30.5735 101.763 30.7617C101.762 30.95 101.866 31.1233 102.033 31.2101L102.263 30.7665ZM104.756 29.5308L104.986 29.0866C104.844 29.0135 104.677 29.0121 104.534 29.0828L104.756 29.5308ZM117.04 35.8823L117.498 36.0838C117.605 35.8422 117.505 35.5594 117.27 35.4382L117.04 35.8823ZM116.122 37.9685V38.4685C116.32 38.4685 116.5 38.3514 116.579 38.17L116.122 37.9685ZM129.93 31.783L129.67 32.2103C129.748 32.2579 129.838 32.283 129.93 32.283V31.783ZM115.67 23.1128L115.206 22.9259C115.115 23.1529 115.201 23.4128 115.41 23.54L115.67 23.1128ZM116.521 21L116.781 20.5725C116.655 20.4964 116.503 20.4793 116.364 20.5256C116.224 20.5719 116.113 20.6771 116.058 20.8131L116.521 21ZM130.972 29.7633L131.417 29.9916C131.537 29.7582 131.456 29.4718 131.232 29.3358L130.972 29.7633ZM129.936 31.783V32.283C130.123 32.283 130.295 32.1781 130.381 32.0113L129.936 31.783ZM116.595 56L116.34 56.4301C116.463 56.5028 116.611 56.5197 116.747 56.4765C116.882 56.4332 116.993 56.334 117.052 56.2037L116.595 56ZM102 47.3497L101.555 47.1218C101.435 47.3569 101.518 47.6451 101.745 47.7798L102 47.3497ZM103.035 45.3283L103.29 44.8982C103.171 44.8278 103.029 44.8096 102.896 44.8479C102.764 44.8862 102.653 44.9775 102.59 45.1004L103.035 45.3283ZM117.523 53.9205L117.979 54.1242C118.083 53.8924 117.996 53.6199 117.778 53.4904L117.523 53.9205ZM103.66 31.4442L103.308 31.7997C103.471 31.9604 103.721 31.9905 103.917 31.8728L103.66 31.4442ZM116.521 21.0399L116.971 20.8201C116.909 20.6941 116.797 20.5998 116.663 20.5602C116.528 20.5206 116.383 20.5393 116.263 20.6118L116.521 21.0399ZM117.535 23.1111L117.792 23.5397C118.015 23.4061 118.098 23.1244 117.984 22.8913L117.535 23.1111ZM128.869 47.2234H128.369C128.369 47.499 128.592 47.7226 128.867 47.7234L128.869 47.2234ZM128.869 30.5672L128.693 30.0989C128.498 30.172 128.369 30.3586 128.369 30.5672H128.869ZM131 29.7699H131.5C131.5 29.606 131.42 29.4525 131.285 29.3591C131.15 29.2657 130.978 29.2442 130.825 29.3016L131 29.7699ZM131 47.2301L130.998 47.7301C131.131 47.7305 131.259 47.678 131.353 47.5842C131.447 47.4904 131.5 47.3629 131.5 47.2301H131ZM116.659 47.358H117.159C117.159 47.2834 117.143 47.2098 117.11 47.1426L116.659 47.358ZM115.679 45.305L115.435 44.869C115.205 44.9979 115.115 45.2828 115.228 45.5204L115.679 45.305ZM129.432 37.5848L129.883 37.3696C129.824 37.2447 129.715 37.15 129.583 37.1082C129.451 37.0664 129.308 37.0811 129.187 37.1488L129.432 37.5848ZM130.412 39.6394L130.657 40.0754C130.886 39.9465 130.977 39.6617 130.863 39.4242L130.412 39.6394ZM116.659 47.3646H116.159C116.159 47.5422 116.253 47.7064 116.407 47.7961C116.56 47.8858 116.749 47.8875 116.904 47.8005L116.659 47.3646ZM116.2 38.3023L115.742 38.5039C115.798 38.6304 115.904 38.7283 116.034 38.7741C116.165 38.8199 116.308 38.8097 116.431 38.7457L116.2 38.3023ZM115.281 36.2162L115.05 35.7728C114.817 35.8945 114.717 36.1766 114.824 36.4177L115.281 36.2162ZM129.368 28.873L129.825 28.6715C129.77 28.5449 129.664 28.4471 129.533 28.4013C129.403 28.3554 129.259 28.3657 129.137 28.4296L129.368 28.873ZM130.286 30.9592L130.518 31.4026C130.751 31.2808 130.85 30.9987 130.744 30.7577L130.286 30.9592ZM116.596 55.9934L116.14 56.1978C116.237 56.413 116.47 56.5316 116.701 56.4823C116.932 56.433 117.096 56.2292 117.096 55.9934H116.596ZM115.664 53.9122L115.403 53.4854C115.189 53.6166 115.105 53.8869 115.208 54.1166L115.664 53.9122ZM129.608 45.3964L130.003 45.0889C129.846 44.8885 129.564 44.8372 129.348 44.9696L129.608 45.3964ZM131.002 47.1836L131.262 47.6102C131.384 47.5359 131.468 47.4133 131.493 47.2731C131.519 47.1329 131.483 46.9885 131.396 46.8761L131.002 47.1836ZM116.596 55.9867L116.336 55.5601C116.187 55.6509 116.096 55.8125 116.096 55.9867H116.596ZM108.68 50.7779V31.5239H107.68V50.7779H108.68ZM107.94 31.9629L110.072 33.1255L110.551 32.2477L108.419 31.085L107.94 31.9629ZM109.811 32.6866V50.7912H110.811V32.6866H109.811ZM110.314 50.2912L108.183 50.2779L108.177 51.2779L110.308 51.2912L110.314 50.2912ZM115.956 54.9636V35.8624H114.956V54.9636H115.956ZM115.446 36.3623L117.578 36.4022L117.596 35.4023L115.465 35.3625L115.446 36.3623ZM117.087 35.9022V54.9636H118.087V35.9022H117.087ZM117.587 54.4636H115.456V55.4636H117.587V54.4636ZM102.5 47.3098V29.8032H101.5V47.3098H102.5ZM102.23 30.2472L104.373 29.1377L103.914 28.2496L101.77 29.3591L102.23 30.2472ZM103.644 28.6936V46.7982H104.644V28.6936H103.644ZM104.028 46.3119L101.884 46.8235L102.116 47.7961L104.26 47.2846L104.028 46.3119ZM116.346 37.5249L102.494 30.3229L102.033 31.2101L115.885 38.4121L116.346 37.5249ZM102.485 31.2145L104.978 29.9787L104.534 29.0828L102.041 30.3185L102.485 31.2145ZM104.526 29.9749L116.811 36.3265L117.27 35.4382L104.986 29.0866L104.526 29.9749ZM116.583 35.6808L115.664 37.767L116.579 38.17L117.498 36.0838L116.583 35.6808ZM116.122 37.4685H116.116V38.4685H116.122V37.4685ZM130.189 31.3558L115.93 22.6855L115.41 23.54L129.67 32.2103L130.189 31.3558ZM116.134 23.2996L116.985 21.1869L116.058 20.8131L115.206 22.9259L116.134 23.2996ZM116.262 21.4275L130.713 30.1908L131.232 29.3358L116.781 20.5725L116.262 21.4275ZM130.528 29.535L129.491 31.5547L130.381 32.0113L131.417 29.9916L130.528 29.535ZM129.936 31.283H129.93V32.283H129.936V31.283ZM116.85 55.5699L102.255 46.9195L101.745 47.7798L116.34 56.4301L116.85 55.5699ZM102.445 47.5775L103.48 45.5561L102.59 45.1004L101.555 47.1218L102.445 47.5775ZM102.78 45.7583L117.268 54.3505L117.778 53.4904L103.29 44.8982L102.78 45.7583ZM117.066 53.7167L116.138 55.7963L117.052 56.2037L117.979 54.1242L117.066 53.7167ZM104.011 31.0886L102.352 29.4476L101.648 30.1587L103.308 31.7997L104.011 31.0886ZM102.258 30.2312L116.78 21.468L116.263 20.6118L101.742 29.3751L102.258 30.2312ZM116.072 21.2596L117.086 23.3309L117.984 22.8913L116.971 20.8201L116.072 21.2596ZM117.278 22.6825L103.402 31.0156L103.917 31.8728L117.792 23.5397L117.278 22.6825ZM129.369 47.2234V30.5672H128.369V47.2234H129.369ZM129.044 31.0355L131.175 30.2382L130.825 29.3016L128.693 30.0989L129.044 31.0355ZM130.5 29.7699V47.2301H131.5V29.7699H130.5ZM131.002 46.7301L128.87 46.7234L128.867 47.7234L130.998 47.7301L131.002 46.7301ZM117.11 47.1426L116.131 45.0896L115.228 45.5204L116.208 47.5733L117.11 47.1426ZM115.924 45.741L129.677 38.0208L129.187 37.1488L115.435 44.869L115.924 45.741ZM128.981 37.8L129.961 39.8547L130.863 39.4242L129.883 37.3696L128.981 37.8ZM130.167 39.2035L116.414 46.9287L116.904 47.8005L130.657 40.0754L130.167 39.2035ZM117.159 47.3646V47.358H116.159V47.3646H117.159ZM116.657 38.1008L115.739 36.0147L114.824 36.4177L115.742 38.5039L116.657 38.1008ZM115.512 36.6595L129.599 29.3164L129.137 28.4296L115.05 35.7728L115.512 36.6595ZM128.91 29.0745L129.829 31.1607L130.744 30.7577L129.825 28.6715L128.91 29.0745ZM130.055 30.5158L115.969 37.859L116.431 38.7457L130.518 31.4026L130.055 30.5158ZM117.053 55.7889L116.12 53.7077L115.208 54.1166L116.14 56.1978L117.053 55.7889ZM115.925 54.3389L129.869 45.8231L129.348 44.9696L115.403 53.4854L115.925 54.3389ZM129.214 45.7038L130.607 47.491L131.396 46.8761L130.003 45.0889L129.214 45.7038ZM130.741 46.7569L116.336 55.5601L116.857 56.4133L131.262 47.6102L130.741 46.7569ZM116.096 55.9867V55.9934H117.096V55.9867H116.096Z" fill="#333333" mask="url(#path-7-outside-1)"/>
<path d="M117.419 15.4839C122.761 15.4839 127.982 17.3471 132.111 20.7278L135.383 16.733C130.33 12.5988 123.951 10.3226 117.419 10.3226C101.768 10.3226 89.0322 23.0581 89.0322 38.7097C89.0322 45.2413 91.3109 51.6207 95.4451 56.6736L99.4374 53.4039C96.0567 49.2723 94.1935 44.0517 94.1935 38.7097C94.1935 25.9046 104.612 15.4839 117.419 15.4839Z" fill="#333333"/>
<path d="M139.393 20.7458L135.401 24.0155C138.782 28.1471 140.645 33.3678 140.645 38.7097C140.645 51.5149 130.227 61.9355 117.419 61.9355C112.077 61.9355 106.856 60.0723 102.727 56.6917L99.4551 60.6865C104.508 64.8207 110.887 67.0968 117.419 67.0968C133.071 67.0968 145.806 54.3613 145.806 38.7097C145.806 32.1781 143.527 25.7988 139.393 20.7458Z" fill="#333333"/>
<path d="M76.1292 98.0645H81.2905V113.548H9.03238V98.0645H14.1937V92.9032H3.87109V118.71H86.4517V92.9032H76.1292V98.0645Z" fill="#333333"/>
<path d="M29.8577 108.387C31.9429 108.387 33.9558 107.778 35.6848 106.622L40.7816 103.226H49.5429L54.6371 106.622C56.3661 107.778 58.379 108.387 60.4642 108.387C66.2551 108.387 70.9674 103.675 70.9674 97.8839V93.0839C70.9674 87.2929 66.2551 82.5807 60.4642 82.5807C58.379 82.5807 56.3661 83.1897 54.6371 84.3458L49.5403 87.742H40.779L35.6848 84.3458C33.9558 83.1897 31.9429 82.5807 29.8577 82.5807C24.0668 82.5807 19.3545 87.2929 19.3545 93.0839V97.8813C19.3545 103.675 24.0668 108.387 29.8577 108.387ZM57.5016 88.6375C58.379 88.0517 59.4061 87.742 60.4642 87.742C63.4113 87.742 65.8061 90.1394 65.8061 93.0839V97.8813C65.8061 100.828 63.4087 103.223 60.4642 103.223C59.4061 103.223 58.379 102.914 57.5016 102.325L52.9029 99.2646V91.7033L57.5016 88.6375ZM42.5803 92.9033H47.7416V98.0646H42.5803V92.9033ZM24.5158 93.0839C24.5158 90.1368 26.9132 87.742 29.8577 87.742C30.9158 87.742 31.9429 88.0517 32.8203 88.64L37.419 91.7033V99.2646L32.8203 102.33C31.9429 102.916 30.9158 103.226 29.8577 103.226C26.9132 103.226 24.5158 100.828 24.5158 97.8839V93.0839Z" fill="#333333"/>
<path d="M76.129 154.839H52.9032V123.871H47.7419V154.839H42.5806V123.871H37.4193V154.839H14.1935V123.871H9.03223V160H81.2903V123.871H76.129V154.839Z" fill="#333333"/>
<path d="M130.322 82.5807H125.161V87.742H130.322V82.5807Z" fill="#28AA9A"/>
<path d="M109.678 82.5807H104.517V87.742H109.678V82.5807Z" fill="#28AA9A"/>
<path d="M58.0646 72.2581H52.9033V77.4193H58.0646V72.2581Z" fill="#28AA9A"/>
</svg>
