<svg width="324" height="554" viewBox="0 0 324 554" fill="none" xmlns="http://www.w3.org/2000/svg">
<path d="M322.542 444.978V460.592C322.542 463.983 320.187 467.351 315.877 470.012V454.398C320.305 451.761 322.519 448.369 322.542 444.978Z" fill="#28AA9A"/>
<path d="M0.000182104 460.474V444.86C0.000182104 448.299 2.35536 451.737 6.75954 454.28V469.894C2.2376 467.327 -0.0233696 463.889 0.000182104 460.474Z" fill="#28AA9A"/>
<path d="M315.877 454.328L315.83 469.941L177.981 550.035L178.029 534.445L315.877 454.328Z" fill="#28AA9A"/>
<path d="M145.551 534.445L145.504 550.035L6.73633 469.941L6.78344 454.328L145.551 534.445Z" fill="#28AA9A"/>
<path d="M178.028 534.351V549.941C172.996 552.495 167.432 553.827 161.789 553.827C156.145 553.827 150.582 552.495 145.55 549.941V534.351C150.582 536.905 156.145 538.237 161.789 538.237C167.432 538.237 172.996 536.905 178.028 534.351Z" fill="#28AA9A"/>
<path d="M315.782 435.44C324.732 440.621 324.779 449.076 315.782 454.28L177.934 534.351C172.902 536.905 167.338 538.237 161.695 538.237C156.051 538.237 150.488 536.905 145.456 534.351L6.78267 454.28C-2.16701 449.123 -2.21412 440.645 6.78267 435.44L144.631 355.37C149.663 352.816 155.227 351.484 160.87 351.484C166.514 351.484 172.077 352.816 177.109 355.37L315.782 435.44Z" fill="url(#paint0_linear)"/>
<path d="M307.845 431.484V445.732C307.845 448.817 305.819 451.902 301.769 454.257V440.009C305.796 437.654 307.821 434.569 307.845 431.484Z" fill="#5FD9FF"/>
<path d="M13.4475 445.614V431.484C13.4475 434.616 15.4729 437.748 19.5945 440.127V454.375C15.4965 451.925 13.4239 448.746 13.4475 445.614Z" fill="#5FD9FF"/>
<path d="M301.768 440.009L301.721 454.257L175.884 527.379L175.931 513.132L301.768 440.009Z" fill="#5FD9FF"/>
<path d="M146.303 513.132L146.256 527.379L19.5947 454.257L19.6418 440.009L146.303 513.132Z" fill="#5FD9FF"/>
<path d="M175.932 513.155V527.285C171.339 529.607 166.264 530.817 161.118 530.817C155.971 530.817 150.897 529.607 146.304 527.285V513.155C150.897 515.477 155.971 516.687 161.118 516.687C166.264 516.687 171.339 515.477 175.932 513.155Z" fill="#5FD9FF"/>
<path d="M301.675 422.841C309.847 427.551 309.895 435.275 301.675 440.009L175.932 513.155C171.339 515.477 166.264 516.687 161.118 516.687C155.971 516.687 150.897 515.477 146.304 513.155L19.6422 440.009C11.4697 435.299 11.4226 427.575 19.6422 422.841L145.479 349.836C150.071 347.508 155.146 346.296 160.294 346.296C165.441 346.296 170.516 347.508 175.108 349.836L301.675 422.841Z" fill="#5FD9FF"/>
<path d="M322.825 410.454V426.068C322.825 429.459 320.611 432.826 316.184 435.487V419.874C320.611 417.236 322.825 413.845 322.825 410.454Z" fill="#28AA9A"/>
<path d="M0.283203 426.02V410.407C0.283203 413.845 2.63839 417.283 7.04257 419.827V435.44C2.52063 432.803 0.283203 429.365 0.283203 426.02Z" fill="#28AA9A"/>
<path d="M316.184 419.803L316.137 435.417L178.265 515.51L178.312 499.92L316.184 419.803Z" fill="#28AA9A"/>
<path d="M145.856 499.92L145.809 515.51L7.04199 435.417L7.08909 419.803L145.856 499.92Z" fill="#28AA9A"/>
<path d="M178.312 499.92V515.511C173.284 518.065 167.724 519.396 162.085 519.396C156.445 519.396 150.885 518.065 145.857 515.511V499.92C150.885 502.475 156.445 503.806 162.085 503.806C167.724 503.806 173.284 502.475 178.312 499.92Z" fill="#28AA9A"/>
<path d="M316.09 400.987C325.039 406.168 325.086 414.622 316.09 419.827L178.217 499.897C173.19 502.451 167.63 503.783 161.99 503.783C156.351 503.783 150.791 502.451 145.763 499.897L6.99565 419.827C-1.97759 414.669 -2.02469 406.191 6.99565 400.987L144.868 320.917C149.9 318.362 155.464 317.031 161.107 317.031C166.75 317.031 172.314 318.362 177.346 320.917L316.09 400.987Z" fill="url(#paint1_linear)"/>
<path d="M308.034 396.159V410.289C308.034 413.398 306.009 416.483 301.958 418.838V404.59C305.985 402.329 308.011 399.244 308.034 396.159Z" fill="#5FD9FF"/>
<path d="M13.6367 410.289V396.159C13.6367 399.291 15.6857 402.423 19.7838 404.802V418.955C15.6857 416.6 13.6367 413.421 13.6367 410.289Z" fill="#5FD9FF"/>
<path d="M301.958 404.684L301.91 418.932L176.073 492.031L176.12 477.807L301.958 404.684Z" fill="#5FD9FF"/>
<path d="M146.493 477.807L146.446 492.031L19.8076 418.932L19.8312 404.684L146.493 477.807Z" fill="#5FD9FF"/>
<path d="M176.121 477.83V491.96C171.528 494.294 166.448 495.51 161.296 495.51C156.143 495.51 151.063 494.294 146.47 491.96V477.83C151.066 480.156 156.144 481.368 161.296 481.368C166.447 481.368 171.525 480.156 176.121 477.83Z" fill="#5FD9FF"/>
<path d="M301.864 387.516C310.037 392.226 310.084 399.951 301.864 404.684L176.121 477.83C171.528 480.153 166.454 481.362 161.307 481.362C156.16 481.362 151.086 480.153 146.493 477.83L19.8785 404.684C11.706 399.974 11.6589 392.25 19.8785 387.516L145.716 314.393C150.315 312.078 155.393 310.872 160.542 310.872C165.691 310.872 170.768 312.078 175.368 314.393L301.864 387.516Z" fill="#5FD9FF"/>
<path d="M323.036 375.129V390.742C323.036 394.134 320.799 397.501 316.371 400.162V384.549C320.799 381.911 323.013 378.52 323.036 375.129Z" fill="#28AA9A"/>
<path d="M0.470703 390.695V375.082C0.470703 378.52 2.82587 381.958 7.23004 384.502V400.115C2.73166 397.478 0.470703 394.039 0.470703 390.695Z" fill="#28AA9A"/>
<path d="M316.371 384.478L316.324 400.092L178.476 480.185L178.499 464.595L316.371 384.478Z" fill="#28AA9A"/>
<path d="M146.045 464.595L145.998 480.185L7.23047 400.092L7.27758 384.478L146.045 464.595Z" fill="#28AA9A"/>
<path d="M178.498 464.595V480.185C173.467 482.74 167.903 484.071 162.259 484.071C156.616 484.071 151.052 482.74 146.021 480.185V464.595C151.055 467.143 156.617 468.47 162.259 468.47C167.902 468.47 173.464 467.143 178.498 464.595Z" fill="#28AA9A"/>
<path d="M316.277 365.662C325.227 370.843 325.274 379.297 316.277 384.502L178.405 464.572C173.374 467.115 167.815 468.44 162.178 468.44C156.54 468.44 150.982 467.115 145.95 464.572L7.18327 384.502C-1.76641 379.344 -1.81353 370.866 7.0655 365.662L144.938 285.592C149.97 283.037 155.533 281.705 161.177 281.705C166.82 281.705 172.384 283.037 177.416 285.592L316.277 365.662Z" fill="url(#paint2_linear)"/>
<path d="M175.062 284.249V299.863C170.659 297.621 165.789 296.453 160.848 296.453C155.908 296.453 151.037 297.621 146.635 299.863V284.249C151.037 282.008 155.908 280.839 160.848 280.839C165.789 280.839 170.659 282.008 175.062 284.249Z" fill="#CCD3E2"/>
<path d="M291.171 351.273L291.124 366.886L175.014 299.863L175.061 284.249L291.171 351.273Z" fill="#CCD3E2"/>
<path d="M297.107 359.562V375.176C297.107 372.161 295.129 369.171 291.172 366.886V351.273C295.129 353.557 297.107 356.571 297.107 359.562Z" fill="#CCD3E2"/>
<path d="M25.4121 375.058V359.468C25.4121 356.501 27.3669 353.533 31.2294 351.273V366.886C27.3669 369.147 25.4121 372.091 25.4121 375.058Z" fill="#CCD3E2"/>
<path d="M302.829 359.586V375.199C302.829 378.991 300.333 382.806 295.34 385.703V370.089C300.333 367.145 302.829 363.401 302.829 359.586Z" fill="#CCD3E2"/>
<path d="M19.6896 375.034V359.444C19.6896 363.307 22.2332 367.169 27.3204 370.089V385.703C22.2332 382.759 19.6661 378.92 19.6896 375.034Z" fill="#CCD3E2"/>
<path d="M295.221 348.941C305.325 354.758 305.372 364.272 295.339 370.136L179.935 437.183C169.902 443 153.51 443 143.406 437.183L27.2957 370.136C17.192 364.319 17.1213 354.805 27.2957 348.941L142.7 281.894C152.733 276.077 169.125 276.077 179.228 281.894L295.221 348.941ZM175.908 434.781L291.311 367.758C299.131 363.212 299.084 355.818 291.311 351.273L175.201 284.249C170.798 282.008 165.928 280.839 160.988 280.839C156.047 280.839 151.177 282.008 146.774 284.249L31.3702 351.273C23.5745 355.818 23.5981 363.212 31.3702 367.758L147.481 434.781C151.883 437.023 156.754 438.191 161.694 438.191C166.635 438.191 171.505 437.023 175.908 434.781Z" fill="white"/>
<path d="M146.634 284.249L146.587 299.863L31.2539 366.886L31.2774 351.273L146.634 284.249Z" fill="#CCD3E2"/>
<path d="M295.339 370.089L295.292 385.703L179.936 452.726L179.983 437.136L295.339 370.089Z" fill="#CCD3E2"/>
<path d="M143.454 437.136L143.407 452.726L27.2969 385.703L27.344 370.089L143.454 437.136Z" fill="#CCD3E2"/>
<path d="M180.031 437.136V452.726C169.998 458.566 153.606 458.566 143.502 452.726V437.136C153.559 442.953 169.951 442.953 180.031 437.136Z" fill="#CCD3E2"/>
<path d="M261.214 369.995V373.127C261.214 376.518 259 379.909 254.572 382.547V379.415C259 376.777 261.214 373.386 261.214 369.995Z" fill="#CCD3E2"/>
<path d="M61.2822 373.009V369.877C61.2822 373.315 63.6374 376.754 68.0181 379.297V382.429C63.5432 379.862 61.2822 376.565 61.2822 373.009Z" fill="#CCD3E2"/>
<path d="M254.572 379.344V382.476L177.793 427.08L177.817 423.971L254.572 379.344Z" fill="#CCD3E2"/>
<path d="M145.315 423.971V427.08L68.042 382.476V379.344L145.315 423.971Z" fill="#CCD3E2"/>
<path d="M177.817 423.948V427.08C172.785 429.635 167.221 430.966 161.578 430.966C155.934 430.966 150.371 429.635 145.339 427.08V423.971C150.375 426.513 155.939 427.836 161.581 427.831C167.222 427.827 172.784 426.497 177.817 423.948Z" fill="#CCD3E2"/>
<path d="M254.478 360.528C263.427 365.709 263.474 374.187 254.478 379.368L177.722 423.971C172.685 426.521 167.118 427.849 161.471 427.849C155.825 427.849 150.258 426.521 145.221 423.971L68.0415 379.344C59.0918 374.187 59.0447 365.709 68.0415 360.504L144.703 315.924C149.738 313.38 155.3 312.055 160.942 312.055C166.583 312.055 172.145 313.38 177.181 315.924L254.478 360.528Z" fill="white"/>
<path d="M218.655 307.116C223.722 308.52 228.965 309.186 234.223 309.095L232.315 312.674C227.058 312.764 221.815 312.098 216.747 310.696L218.655 307.116Z" fill="white"/>
<path d="M234.199 309.095C244.255 308.765 251.203 305.02 254.312 299.203L252.404 302.76C249.319 308.576 242.348 312.344 232.291 312.674L234.199 309.095Z" fill="white"/>
<path d="M179.159 279.563C186.979 292.256 202.711 302.877 218.656 307.116L216.748 310.696C200.898 306.457 185.094 295.836 177.252 283.142C172.07 274.735 171.387 266.963 174.449 261.217L176.357 257.661C173.295 263.525 173.978 271.155 179.159 279.563Z" fill="white"/>
<path d="M174.448 261.17L176.356 257.591C179.441 251.774 186.389 248.006 196.446 247.7L194.538 251.256C184.481 251.75 177.534 255.424 174.448 261.17Z" fill="#E8EFF9"/>
<path d="M168.112 255.141L170.02 251.562C174.118 243.861 183.327 238.892 196.634 238.468L194.726 242.048C181.419 242.472 172.21 247.441 168.112 255.141Z" fill="url(#paint3_linear)"/>
<path d="M194.537 251.326C214.533 250.714 239.286 263.949 249.602 280.882C259.917 297.814 252.31 312.038 232.314 312.674C212.319 313.31 187.684 300.075 177.25 283.143C166.817 266.21 174.566 251.962 194.537 251.326Z" fill="#E8EFF9"/>
<path d="M254.337 299.203L252.429 302.76C255.491 297.037 254.785 289.289 249.603 280.882C239.193 263.949 214.535 250.714 194.539 251.326L196.447 247.77C216.442 247.134 241.077 260.37 251.511 277.302C256.692 285.709 257.399 293.457 254.337 299.203Z" fill="#E8EFF9"/>
<path d="M273.249 306.551L271.365 310.131C275.416 302.524 274.474 292.256 267.62 281.141C253.819 258.721 221.176 241.106 194.728 242.048L196.635 238.468C223.084 237.644 255.727 255.141 269.528 277.561C276.382 288.7 277.3 298.85 273.249 306.551Z" fill="url(#paint4_linear)"/>
<path d="M194.727 242.048C221.175 241.223 253.818 258.721 267.619 281.141C281.421 303.56 271.176 322.4 244.727 323.225C218.278 324.049 185.659 306.551 171.834 284.132C158.009 261.712 168.254 242.872 194.727 242.048ZM232.41 312.698C252.405 312.062 260.13 297.838 249.697 280.905C239.263 263.973 214.628 250.738 194.632 251.35C174.637 251.962 166.935 266.233 177.345 283.166C187.755 300.098 212.438 313.31 232.41 312.698Z" fill="white"/>
<path d="M175.32 261.335L175.956 260.158C172.518 266.587 173.295 275.253 179.089 284.65C190.747 303.49 218.373 318.373 240.676 317.62L240.041 318.797C217.737 319.504 190.111 304.667 178.453 285.827C172.612 276.431 171.835 267.764 175.32 261.335Z" fill="#2AF6FF"/>
<path d="M263.121 306.598L262.485 307.799C258.999 314.299 251.227 318.514 239.993 318.868L240.629 317.69C251.863 317.337 259.635 313.122 263.121 306.598Z" fill="#2AF6FF"/>
<path d="M172.353 259.781L172.965 258.603C176.686 251.538 184.976 247.158 196.941 246.828L196.305 248.006C184.34 248.335 176.05 252.834 172.353 259.781Z" fill="#2AF6FF"/>
<path d="M266.042 308.27L265.406 309.471C269.056 302.595 268.232 293.363 262.061 283.331C249.626 263.148 220.139 247.346 196.305 248.006L196.941 246.828C220.775 246.075 250.238 261.877 262.697 282.153C268.868 292.044 269.692 301.205 266.042 308.27Z" fill="#2AF6FF"/>
<path d="M196.304 247.959C220.139 247.229 249.626 263.031 262.061 283.284C274.496 303.537 265.241 320.493 241.406 321.246C217.572 322 188.132 306.174 175.697 285.921C163.261 265.668 172.517 248.712 196.304 247.959ZM239.993 318.868C262.32 318.161 270.987 302.218 259.353 283.307C247.718 264.397 220.045 249.56 197.741 250.337C175.438 251.114 166.747 266.987 178.405 285.921C190.063 304.856 217.69 319.645 239.993 318.891" fill="#28AA9A"/>
<path d="M194.115 284.555L194.751 283.354L202.005 281.376L201.369 282.553L194.115 284.555Z" fill="#2AF6FF"/>
<path d="M219.598 283.755L220.234 282.553L224.803 295.341L224.19 296.542L219.598 283.755Z" fill="#2AF6FF"/>
<path d="M249.509 295.741L250.121 294.564L253.701 304.573L253.065 305.774L249.509 295.741Z" fill="#2AF6FF"/>
<path d="M224.19 296.542L224.803 295.341L250.121 294.564L249.509 295.741L224.19 296.542Z" fill="#2AF6FF"/>
<path d="M224.851 276.242L225.486 275.065L228.666 280.246L228.03 281.447L224.851 276.242Z" fill="#2AF6FF"/>
<path d="M217.573 278.244L218.209 277.043L225.487 275.065L224.851 276.242L217.573 278.244Z" fill="#2AF6FF"/>
<path d="M210.083 257.92L217.572 278.244L224.85 276.242L228.029 281.447L219.598 283.755L224.191 296.542L249.509 295.741L253.065 305.774L210.413 307.093L203.371 288.088L197.318 289.736L194.115 284.555L201.369 282.553L192.584 258.462L210.083 257.92Z" fill="url(#paint5_linear)"/>
<path d="M210.083 257.92L210.719 256.719L218.208 277.043L217.573 278.244L210.083 257.92Z" fill="#2AF6FF"/>
<path d="M192.584 258.462L193.22 257.261L210.719 256.719L210.083 257.92L192.584 258.462Z" fill="#2AF6FF"/>
<path d="M204.264 346.61L204.123 346.162V341.594L204.264 342.041V346.61Z" fill="white"/>
<path d="M204.265 346.61C204.253 346.492 204.253 346.374 204.265 346.256V342.041C204.796 343.684 205.067 345.401 205.066 347.128V351.697C205.041 349.972 204.772 348.259 204.265 346.61Z" fill="white"/>
<path d="M119.832 331.279C110.176 336.86 105.371 344.208 105.348 351.532V346.963C105.348 339.639 110.199 332.291 119.832 326.71C139.239 315.429 170.822 315.406 190.346 326.71C197.671 330.949 202.263 336.13 204.124 341.617V346.186C202.263 340.722 197.671 335.518 190.346 331.279C170.798 320.045 139.239 320.045 119.832 331.279Z" fill="white"/>
<path d="M205.066 347.246V351.838C205.066 359.162 200.214 366.51 190.558 372.114C171.151 383.395 139.592 383.395 120.068 372.114C110.223 366.462 105.324 358.997 105.348 351.555V346.987C105.348 354.428 110.247 361.87 120.068 367.546C139.616 378.85 171.175 378.85 190.582 367.546C200.214 361.941 205.043 354.593 205.066 347.246Z" fill="#E8EFF9"/>
<path d="M190.345 326.686C209.893 337.967 209.988 356.265 190.581 367.546C171.174 378.826 139.615 378.826 120.067 367.546C100.519 356.265 100.425 337.99 119.831 326.733C139.238 315.476 170.821 315.335 190.345 326.686Z" fill="#E8EFF9"/>
<path d="M135.805 337.257L164.019 335.468L162.507 338.608L135.977 340.29L135.805 337.257ZM130.327 347.995L158.317 346.221L158.451 349.256L130.519 351.027L130.327 347.995ZM140.329 328.144L165.983 326.518L167.802 329.464L141.272 331.146L140.329 328.144ZM155.291 347.355L164.595 326.982L166.631 330.413L158.431 348.477L155.291 347.364L155.291 347.355ZM165.6 366.43L177.02 345.341L180.192 346.356L168.654 367.726L165.601 366.439L165.6 366.43ZM128.911 349.712L140.271 328.148L143.326 329.433L132.042 350.839L128.911 349.712ZM163.728 329.031L165.983 326.518L180.134 346.36L177.19 347.994L163.728 329.031ZM142.879 366.356L167.286 364.808L168.647 367.766L143.061 369.388L142.879 366.356ZM141.581 349.001L144.501 347.416L157.054 366.262L154.131 367.846L141.571 349.001L141.581 349.001ZM154.809 347.506L157.783 346.006L169.814 365.361L166.84 366.861L154.809 347.506ZM128.921 349.714L131.887 348.194L145.623 367.238L143.13 369.386L128.931 349.713L128.921 349.714Z" fill="url(#paint6_linear)"/>
<path d="M222.212 349.177V353.745C222.212 363.472 215.782 373.174 203.041 380.592C177.346 395.523 135.565 395.523 109.705 380.592C96.681 373.08 90.1807 363.213 90.2278 353.369V348.8C90.2278 358.644 96.7045 368.511 109.705 376.024C135.612 390.954 177.346 390.954 203.041 376.024C215.782 368.605 222.165 358.903 222.212 349.177Z" fill="url(#paint7_linear)"/>
<path d="M202.71 321.976C228.617 336.907 228.617 361.093 203.016 376.141C177.416 391.19 135.564 391.072 109.681 376.141C83.7971 361.211 83.7736 337.001 109.374 321.976C134.975 306.952 176.85 307.046 202.71 321.976ZM120.067 367.522C139.615 378.826 171.174 378.826 190.581 367.522C209.988 356.218 209.894 337.943 190.346 326.663C170.798 315.382 139.238 315.406 119.831 326.663C100.425 337.92 100.542 356.218 120.067 367.475" fill="white"/>
<path d="M210.954 348.871V350.401C210.954 342.065 205.49 333.728 194.468 327.393C172.659 314.794 137.261 314.794 115.593 327.393C104.83 333.657 99.4366 341.853 99.4131 350.072V348.541C99.4131 340.322 104.83 332.056 115.593 325.862C137.284 313.263 172.659 313.263 194.468 325.862C205.514 332.197 210.978 340.534 210.954 348.871Z" fill="#2AF6FF"/>
<path d="M214.699 348.87V350.401C214.699 359.185 208.928 367.922 197.435 374.611C174.307 388.058 136.554 388.058 113.261 374.611C101.485 367.852 95.6914 358.95 95.7149 350.072V348.541C95.7149 357.419 101.556 366.321 113.261 373.08C136.554 386.527 174.307 386.527 197.435 373.08C208.928 366.415 214.675 357.725 214.699 348.87Z" fill="#2AF6FF"/>
<path d="M197.153 324.331C220.445 337.779 220.563 359.656 197.435 373.08C174.307 386.504 136.554 386.527 113.261 373.08C89.9684 359.633 89.8742 337.755 113.002 324.331C136.13 310.908 173.883 310.884 197.153 324.331ZM115.899 371.549C137.708 384.148 173.106 384.148 194.774 371.549C216.442 358.95 216.347 338.461 194.515 325.862C172.682 313.263 137.331 313.263 115.64 325.862C93.9487 338.461 94.09 358.95 115.899 371.549Z" fill="#28AA9A"/>
<path d="M100.944 248.335C105.832 250.257 110.973 251.463 116.206 251.915L113.85 255.259C108.617 254.807 103.477 253.601 98.5889 251.679L100.944 248.335Z" fill="white"/>
<path d="M64.6264 216.826C71.056 230.249 85.6581 242.448 100.943 248.335L98.5881 251.68C83.4678 245.792 68.795 233.593 62.2712 220.17C58.0083 211.268 58.1261 203.496 61.7766 198.127L64.1318 194.783C60.4813 200.152 60.3635 207.924 64.6264 216.826Z" fill="white"/>
<path d="M116.206 251.915C126.215 252.669 133.516 249.56 137.214 244.191L134.859 247.558C131.185 252.998 123.884 256.013 113.874 255.259L116.206 251.915Z" fill="white"/>
<path d="M61.8711 198.127L64.2263 194.783C67.9004 189.319 75.2014 186.328 85.2345 187.058L82.8793 190.402C72.8462 189.672 65.5452 192.663 61.8711 198.127Z" fill="#E8EFF9"/>
<path d="M51.0371 189.46L53.3923 186.116C58.2911 178.91 67.9473 174.93 81.207 175.896L78.8518 179.263C65.5921 178.274 55.9123 182.254 51.0371 189.46Z" fill="url(#paint8_linear)"/>
<path d="M137.214 244.191L134.859 247.558C138.486 242.165 138.604 234.417 134.341 225.515C125.862 207.594 102.758 191.886 82.8564 190.52L85.2116 187.176C105.113 188.66 128.194 204.368 136.79 222.289C140.959 231.05 140.841 238.821 137.214 244.191Z" fill="#E8EFF9"/>
<path d="M78.7577 179.263C105.112 181.218 135.659 202.013 147.058 225.727C158.457 249.442 146.257 267.058 119.903 265.103C93.5483 263.148 63.0016 242.33 51.6025 218.639C40.2034 194.948 52.4975 177.309 78.7577 179.263ZM113.874 255.259C133.751 256.743 142.96 243.484 134.364 225.515C125.767 207.547 102.757 191.886 82.8558 190.52C62.9545 189.154 53.7693 202.295 62.2715 220.17C70.7737 238.044 93.9487 253.775 113.85 255.259" fill="white"/>
<path d="M82.8566 190.52C102.758 192.004 125.862 207.712 134.435 225.633C143.008 243.555 133.823 256.861 113.945 255.377C94.0673 253.893 70.9394 238.185 62.3665 220.287C53.7937 202.389 62.9789 188.942 82.8566 190.52Z" fill="#E8EFF9"/>
<path d="M150.025 251.538L147.67 254.883C152.38 247.818 152.639 237.503 147.01 225.728C135.635 202.013 105.088 181.218 78.71 179.263L81.0651 175.896C107.396 177.85 137.966 198.669 149.365 222.36C154.994 234.135 154.829 244.426 150.025 251.538Z" fill="url(#paint9_linear)"/>
<path d="M57.0663 196.926L57.8199 195.819C53.7455 201.824 53.6042 210.514 58.3852 220.452C67.9472 240.47 93.8306 258.132 116.064 259.734L115.31 260.84C93.077 259.192 67.1935 241.577 57.608 221.583C52.8505 211.715 52.9918 202.955 57.0663 196.926Z" fill="#2AF6FF"/>
<path d="M139.545 251.091L138.791 252.198C134.646 258.297 126.497 261.618 115.239 260.841L115.993 259.734C127.251 260.558 135.423 257.19 139.545 251.091Z" fill="#2AF6FF"/>
<path d="M54.335 195.065L55.0886 193.958C59.4928 187.459 68.207 183.856 80.1477 184.727L79.3941 185.857C67.4533 184.962 58.7391 188.566 54.335 195.065Z" fill="#2AF6FF"/>
<path d="M142.348 252.928L141.594 254.058C145.928 247.629 146.093 238.35 141.006 227.753C130.784 206.416 103.158 187.718 79.4648 185.857L80.2185 184.727C103.935 186.493 131.538 205.31 141.759 226.646C146.776 237.243 146.635 246.522 142.348 252.928Z" fill="#2AF6FF"/>
<path d="M79.3939 185.81C103.087 187.576 130.713 206.369 140.935 227.706C151.156 249.042 140.181 264.985 116.464 263.219C92.7478 261.453 65.1216 242.66 54.9001 221.324C44.6786 199.987 55.6773 184.091 79.3939 185.81ZM115.31 260.793C137.543 262.442 147.835 247.511 138.25 227.517C128.664 207.523 102.781 189.837 80.548 188.236C58.3151 186.634 48.1407 201.565 57.5614 221.583C66.9821 241.6 93.0304 259.263 115.263 260.84" fill="#28AA9A"/>
<path d="M99.6007 242.33L98.847 243.461C99.5075 242.279 99.8404 240.942 99.8115 239.588C99.7825 238.234 99.3926 236.913 98.6822 235.76C98.0174 234.431 97.1691 233.202 96.1621 232.11L96.9158 231.003C97.9169 232.091 98.7648 233.311 99.4358 234.629C100.146 235.782 100.536 237.104 100.565 238.457C100.594 239.811 100.261 241.148 99.6007 242.33Z" fill="#2AF6FF"/>
<path d="M73.3184 226.151L74.072 225.045C74.9374 223.977 76.0741 223.163 77.3629 222.686C78.6517 222.21 80.045 222.089 81.3966 222.336C85.4925 222.844 89.3828 224.42 92.6779 226.905L91.9007 228.035C88.6364 225.488 84.749 223.862 80.643 223.325C79.2807 223.091 77.8803 223.23 76.5907 223.728C75.3011 224.225 74.1703 225.063 73.3184 226.151Z" fill="#2AF6FF"/>
<path d="M97.0111 224.197L96.2575 225.304C95.7629 226.034 94.3733 226.552 91.9004 228.035L92.6776 226.905C95.2447 225.421 96.5165 224.927 97.0111 224.197Z" fill="#2AF6FF"/>
<path d="M98.5176 218.78L99.2712 217.65C103.463 226.41 100.26 223.278 110.859 228.341L110.105 229.472C99.5067 224.291 102.71 227.447 98.5176 218.78Z" fill="#2AF6FF"/>
<path d="M110.247 229.142L111.001 228.012C111.884 226.887 113.055 226.022 114.39 225.508C115.725 224.994 117.174 224.85 118.584 225.092C122.313 225.598 125.87 226.971 128.971 229.102C132.071 231.233 134.628 234.062 136.437 237.361C137.154 238.523 137.551 239.854 137.588 241.218C137.625 242.583 137.301 243.933 136.649 245.133L135.895 246.24C136.548 245.04 136.872 243.69 136.834 242.325C136.797 240.961 136.4 239.63 135.683 238.468C133.878 235.169 131.321 232.341 128.22 230.213C125.118 228.086 121.559 226.718 117.831 226.222C116.421 225.975 114.97 226.116 113.634 226.631C112.298 227.145 111.127 228.013 110.247 229.142Z" fill="#2AF6FF"/>
<path d="M77.8867 198.81L78.6404 197.703C79.5143 196.64 80.6556 195.828 81.9471 195.352C83.2386 194.876 84.6336 194.753 85.9886 194.995L85.2349 196.102C83.88 195.865 82.4866 195.99 81.196 196.466C79.9055 196.942 78.7637 197.75 77.8867 198.81Z" fill="#2AF6FF"/>
<path d="M104.217 214.941L103.44 216.072C104.096 214.888 104.426 213.552 104.397 212.199C104.368 210.846 103.981 209.525 103.275 208.371C101.459 205.04 98.8752 202.189 95.7379 200.056C92.6006 197.922 89 196.567 85.2344 196.101L85.988 194.995C89.7536 195.46 93.3542 196.815 96.4916 198.949C99.6289 201.083 102.213 203.933 104.029 207.264C104.731 208.415 105.119 209.73 105.152 211.078C105.185 212.425 104.863 213.758 104.217 214.941Z" fill="#2AF6FF"/>
<path d="M85.2347 196.102C89.0003 196.567 92.6009 197.922 95.7382 200.056C98.8755 202.19 101.459 205.04 103.275 208.371C105.89 213.835 103.77 218.121 98.565 218.686C102.757 227.447 99.5542 224.291 110.153 229.378C111.007 228.172 112.187 227.234 113.556 226.675C114.924 226.116 116.423 225.959 117.878 226.222C121.606 226.718 125.165 228.086 128.266 230.213C131.368 232.341 133.925 235.169 135.73 238.468C138.768 244.779 135.588 249.419 128.664 248.901C124.898 248.438 121.297 247.083 118.159 244.949C115.021 242.815 112.438 239.963 110.624 236.631C110.043 235.524 109.676 234.318 109.54 233.075C104.641 230.72 102.781 229.566 101.391 229.472C100.002 229.378 99.0361 230.296 96.1392 232.086C97.1462 233.179 97.9945 234.407 98.6592 235.736C101.697 242.048 98.3531 246.64 91.5937 246.145C87.8247 245.682 84.2211 244.324 81.083 242.186C77.9449 240.047 75.3632 237.19 73.553 233.852C70.5855 227.682 73.6943 222.925 80.6185 223.443C84.7246 223.979 88.6119 225.606 91.8763 228.153C97.623 224.691 97.5523 226.481 93.784 218.592C90.4727 217.804 87.3626 216.333 84.6533 214.273C81.944 212.212 79.6953 209.609 78.0514 206.628C75.0368 200.176 78.3811 195.583 85.2347 196.102Z" fill="url(#paint10_linear)"/>
<path d="M250.685 177.05C254.43 167.912 253.865 160.188 249.932 155.007L252.287 158.233C256.244 163.391 256.809 171.139 253.041 180.252C245.504 198.621 223.342 215.577 203.582 218.239L201.227 215.036C220.939 212.422 243.102 195.419 250.685 177.05Z" fill="white"/>
<path d="M179.748 208.536C183.752 213.764 191.194 216.331 201.157 215.036L203.512 218.239C193.573 219.557 186.107 216.967 182.103 211.739L179.748 208.536Z" fill="white"/>
<path d="M249.884 155.007L252.239 158.233C248.259 152.982 240.793 150.415 230.831 151.71L228.476 148.507C238.438 147.188 245.975 149.779 249.884 155.007Z" fill="#E8EFF9"/>
<path d="M269.786 145.893L272.141 149.096C266.865 142.172 256.997 138.757 243.879 140.5L241.523 137.297C254.618 135.555 264.51 138.969 269.786 145.893Z" fill="url(#paint11_linear)"/>
<path d="M230.925 151.71C250.708 149.119 260.647 161.883 253.087 180.252C245.527 198.621 223.388 215.577 203.628 218.239C183.868 220.9 173.929 208.089 181.466 189.72C189.002 171.351 211.141 154.324 230.925 151.71Z" fill="#E8EFF9"/>
<path d="M182.197 211.715L179.842 208.512C175.908 203.331 175.343 195.607 179.088 186.47C186.625 168.101 208.787 151.145 228.547 148.483L230.902 151.686C211.118 154.3 188.956 171.327 181.443 189.696C177.675 198.833 178.264 206.581 182.197 211.715Z" fill="#E8EFF9"/>
<path d="M179.417 219.958L177.062 216.731C171.834 209.902 171.08 199.658 176.05 187.576C185.941 163.249 215.358 140.735 241.453 137.297L243.808 140.5C217.619 143.962 188.297 166.405 178.311 190.779C173.435 202.86 174.189 213.105 179.417 219.958Z" fill="url(#paint12_linear)"/>
<path d="M243.902 140.5C270.092 137.038 283.234 153.971 273.248 178.18C263.262 202.389 233.94 224.997 207.75 228.459C181.561 231.921 168.419 215.012 178.405 190.779C188.391 166.546 217.713 143.962 243.902 140.5ZM203.581 218.239C223.365 215.625 245.527 198.621 253.04 180.252C260.553 161.883 250.685 149.119 230.878 151.71C211.071 154.3 188.932 171.351 181.419 189.72C173.906 208.089 183.774 220.853 203.581 218.239Z" fill="white"/>
<path d="M263.403 155.972L264.228 157.056C268.632 162.825 269.268 171.492 265.075 181.689C256.667 202.201 231.844 221.277 209.729 224.079L208.904 222.996C231.019 220.076 255.843 201.024 264.251 180.606C268.443 170.432 267.807 161.766 263.403 155.972Z" fill="#2AF6FF"/>
<path d="M185.801 216.896L184.977 215.836C189.451 221.677 197.789 224.573 208.905 223.113L209.729 224.197C198.613 225.657 190.276 222.76 185.801 216.896Z" fill="#2AF6FF"/>
<path d="M266.017 153.971L266.842 155.054C262.131 148.813 253.182 145.634 241.312 147.282L240.487 146.199C252.357 144.645 261.26 147.73 266.017 153.971Z" fill="#2AF6FF"/>
<path d="M183.163 218.898L182.386 217.838C177.675 211.668 176.992 202.437 181.444 191.556C190.44 169.655 216.936 149.308 240.512 146.199L241.336 147.282C217.784 150.391 191.265 170.832 182.268 192.616C177.675 203.496 178.453 212.728 183.163 218.898Z" fill="#2AF6FF"/>
<path d="M241.265 147.282C264.817 144.174 276.593 159.434 267.714 181.336C258.835 203.237 232.292 223.49 208.717 226.669C185.141 229.849 173.248 214.518 182.244 192.616C191.241 170.715 217.713 150.485 241.265 147.282ZM209.729 224.197C231.845 221.276 256.668 202.201 265.076 181.807C273.484 161.412 262.462 146.858 240.3 149.779C218.137 152.699 193.361 171.751 184.929 192.169C176.498 212.587 187.638 226.999 209.729 224.102" fill="#28AA9A"/>
<path d="M234.059 193.982L233.234 192.899L246.565 174.718L247.389 175.778L234.059 193.982Z" fill="#2AF6FF"/>
<path d="M260.836 164.615L261.661 165.675C260.86 164.615 259.306 164.168 256.715 164.497L255.891 163.438C258.387 162.99 260.106 163.438 260.836 164.615Z" fill="#2AF6FF"/>
<path d="M200.756 198.362L199.932 197.303L233.234 192.899L234.058 193.982L200.756 198.362Z" fill="#2AF6FF"/>
<path d="M192.466 209.761L191.665 208.701L199.932 197.303L200.756 198.362L192.466 209.761Z" fill="#2AF6FF"/>
<path d="M214.086 180.182L213.262 179.098L221.481 167.865L222.306 168.925L214.086 180.182Z" fill="#2AF6FF"/>
<path d="M222.306 168.925L221.481 167.865L255.891 163.32L256.715 164.38L222.306 168.925Z" fill="#2AF6FF"/>
<path d="M256.716 164.38C259.731 163.979 261.426 164.733 262.062 166.311C262.698 167.889 261.897 170.385 259.848 173.164L244.846 193.676C242.543 196.684 239.738 199.274 236.556 201.33C233.73 203.285 230.517 204.61 227.135 205.215L192.702 209.761L200.992 198.362L234.295 193.982L247.625 175.778L214.323 180.182L222.425 168.925L256.716 164.38Z" fill="url(#paint13_linear)"/>
<path fill-rule="evenodd" clip-rule="evenodd" d="M204.854 184.444L227.629 180.535L221.176 192.334L197.859 195.701L204.854 184.444Z" fill="url(#paint14_linear)"/>
<path d="M121.434 76.9622C129.395 90.786 140.44 102.867 152.664 109.932L147.718 112.805C135.518 105.74 124.472 93.6827 116.488 79.8353L121.434 76.9622Z" fill="white"/>
<path d="M108.574 33.5593C108.574 47.6893 113.45 63.1617 121.434 76.962L116.441 79.8351C108.457 66.0348 103.534 50.4682 103.581 36.4324C103.628 22.3966 108.551 12.6705 116.488 8.17242L121.434 5.29932C113.52 9.79737 108.598 19.6177 108.574 33.5593Z" fill="white"/>
<path d="M152.664 109.909C164.958 116.974 176.215 117.68 184.152 112.994L179.207 115.867C171.152 120.577 160.012 119.894 147.718 112.782L152.664 109.909Z" fill="white"/>
<path d="M116.44 8.05483L121.386 5.18173C129.417 0.471723 140.557 1.17822 152.852 8.26678L147.906 11.1399C135.706 4.05133 124.566 3.39192 116.44 8.05483Z" fill="#E8EFF9"/>
<path d="M116.724 6.83013L121.67 3.95703C132.315 -2.23663 147.058 -1.36528 163.333 8.03118L158.387 10.9043C142.112 1.55493 127.369 0.683576 116.724 6.83013Z" fill="url(#paint15_linear)"/>
<path d="M148.001 11.1397C172.424 25.2697 192.184 59.4408 192.113 87.5124C192.043 115.584 172.141 126.935 147.718 112.805C123.295 98.6751 103.558 64.5276 103.629 36.456C103.7 8.38438 123.507 -2.96672 148.001 11.1397Z" fill="#E8EFF9"/>
<path d="M184.153 112.994L179.207 115.867C187.144 111.157 192.066 101.454 192.114 87.6068C192.114 59.5351 172.424 25.3405 148.001 11.2341L152.947 8.36096C177.37 22.491 197.13 56.662 197.036 84.7337C197.012 98.6753 192.09 108.378 184.153 112.994Z" fill="#E8EFF9"/>
<path d="M204.596 146.694L199.65 149.567C210.178 143.467 216.678 130.468 216.749 112.028C216.749 74.8662 190.724 29.6031 158.388 10.9515L163.334 8.07837C195.647 26.7535 221.789 71.9931 221.671 109.155C221.624 127.595 215.1 140.594 204.596 146.694Z" fill="url(#paint16_linear)"/>
<path d="M158.387 10.9514C190.724 29.6266 216.843 74.8661 216.748 112.028C216.654 149.19 190.323 164.168 158.01 145.493C125.697 126.817 99.5311 81.5779 99.6488 44.5102C99.7666 7.44245 126.05 -7.72375 158.387 10.9514ZM147.718 112.805C172.141 126.935 192.019 115.608 192.113 87.5361C192.207 59.4644 172.424 25.2463 148.001 11.1398C123.577 -2.96665 103.7 8.3609 103.629 36.4325C103.558 64.5041 123.295 98.6752 147.718 112.805Z" fill="white"/>
<path d="M121.27 19.712L122.895 18.7465C114.016 23.9275 108.505 34.8782 108.458 50.4683C108.458 81.8134 130.502 120.129 157.775 135.884L156.127 136.85C128.854 121.095 106.668 82.6847 106.809 51.4103C106.856 35.8438 112.367 24.8695 121.27 19.712Z" fill="#2AF6FF"/>
<path d="M192.962 139.299L191.313 140.264C182.317 145.493 169.858 144.762 156.127 136.85L157.776 135.884C171.506 143.82 183.965 144.527 192.962 139.299Z" fill="#2AF6FF"/>
<path d="M118.914 15.6849L120.563 14.7194C130.172 9.13801 143.455 10.0094 158.104 18.3696L156.479 19.3116C141.806 10.8572 128.523 10.08 118.914 15.6849Z" fill="#2AF6FF"/>
<path d="M195.339 143.42L193.69 144.362C203.111 138.852 209.046 127.147 209.093 110.544C209.093 77.0798 185.541 36.197 156.479 19.3823L158.104 18.4403C187.214 35.0902 210.836 76.0672 210.648 109.508C210.648 126.135 204.807 137.839 195.339 143.42Z" fill="#2AF6FF"/>
<path d="M156.479 19.3117C185.589 36.1264 209.188 77.0092 209.094 110.474C209 143.938 185.236 157.55 156.126 140.641C127.016 123.732 103.393 82.9674 103.488 49.5028C103.582 16.0383 127.369 2.52054 156.479 19.3117ZM156.126 136.85C183.422 152.605 205.585 139.888 205.773 108.59C205.961 77.2918 183.752 38.8818 156.479 23.1268C129.206 7.37185 107.02 20.0653 106.832 51.3868C106.644 82.7083 128.876 121.071 156.149 136.826" fill="#28AA9A"/>
<path d="M124.896 87.7242L126.544 86.7587L136.106 92.2929L134.458 93.2349L124.896 87.7242Z" fill="#2AF6FF"/>
<path d="M151.745 116.008L153.394 115.066L153.37 124.58L151.722 125.522L151.745 116.008Z" fill="#2AF6FF"/>
<path d="M166.417 123.544L168.066 122.602L168.042 133.035L166.394 134L166.417 123.544Z" fill="#28AA9A"/>
<path d="M148.047 100.983L149.695 100.017L158.834 105.316L157.209 106.258L148.047 100.983Z" fill="#2AF6FF"/>
<path d="M148.094 81.7898L149.743 80.8242L149.696 100.017L148.047 100.983L148.094 81.7898Z" fill="#28AA9A"/>
<path d="M167.383 107.177L165.735 108.119C165.556 108.224 165.366 108.311 165.169 108.378C163.427 108.99 160.789 108.378 157.209 106.258L158.834 105.316C162.437 107.318 165.075 108.024 166.795 107.436L167.383 107.177Z" fill="#2AF6FF"/>
<path d="M148.118 69.426L149.767 68.484L157.657 73.0292L156.008 73.9947L148.118 69.426Z" fill="#2AF6FF"/>
<path d="M148.165 53.0822L149.814 52.1167L149.767 68.484L148.118 69.426L148.165 53.0822Z" fill="#2AF6FF"/>
<path d="M156.007 73.971L157.655 73.0291L158.927 73.7355C160.917 75.0658 163.27 75.7485 165.663 75.6902L164.014 76.6557C161.618 76.7149 159.263 76.0233 157.279 74.6776L156.007 73.971Z" fill="#2AF6FF"/>
<path d="M170.516 87.7478L172.164 86.7822V87.3003L170.516 88.2423V87.7478Z" fill="#28AA9A"/>
<path d="M166.394 75.4077L164.746 76.3497C164.52 76.4896 164.274 76.5929 164.016 76.6559L165.664 75.6903C165.916 75.6208 166.161 75.5261 166.394 75.4077Z" fill="#28AA9A"/>
<path d="M125.061 26.9417L126.709 25.9762L144.373 36.1734L142.724 37.1154L125.061 26.9417Z" fill="#2AF6FF"/>
<path d="M178.946 122.414L177.298 123.379C180.438 121.589 182.008 117.829 182.008 112.099C182.075 107.639 181.167 103.218 179.347 99.1461L180.995 98.2041C182.804 102.272 183.711 106.682 183.657 111.133C183.61 116.864 182.04 120.624 178.946 122.414Z" fill="#2AF6FF"/>
<path d="M170.609 88.2425L172.258 87.3005C175.964 90.2332 178.966 93.959 181.043 98.2042L179.394 99.1462C177.305 94.9091 174.305 91.1858 170.609 88.2425Z" fill="#2AF6FF"/>
<path d="M151.957 42.4612L153.606 41.4956L156.196 43.0028L154.548 43.9448L151.957 42.4612Z" fill="#2AF6FF"/>
<path d="M154.547 43.9448L156.196 43.0028C157.169 43.5366 158.111 44.1018 159.022 44.6984L157.373 45.6404L154.547 43.9448Z" fill="#2AF6FF"/>
<path d="M142.748 27.6247L144.397 26.6592L153.629 32.005L151.98 32.947L142.748 27.6247Z" fill="#2AF6FF"/>
<path d="M151.981 32.9471L153.629 32.0051L153.606 41.4958L151.957 42.4613L151.981 32.9471Z" fill="#2AF6FF"/>
<path d="M178.17 86.7352L176.521 87.7008C176.936 87.4801 177.323 87.2114 177.675 86.9001C179.488 85.1338 180.383 82.0252 180.407 77.6449C180.446 71.22 178.295 64.9735 174.307 59.9353C172.042 57.0682 169.449 54.4758 166.582 52.2109L168.231 51.2454C171.098 53.5102 173.691 56.1027 175.956 58.9698C179.948 64.0143 182.1 70.2699 182.056 76.7029C182.056 81.0597 181.137 84.1918 179.324 85.9345C178.972 86.2458 178.584 86.5146 178.17 86.7352Z" fill="#2AF6FF"/>
<path d="M166.653 41.425L168.302 40.4595L168.255 51.1512L166.63 52.1167L166.653 41.425Z" fill="#2AF6FF"/>
<path d="M157.396 36.0792L159.045 35.1372L168.301 40.4595L166.652 41.4251L157.396 36.0792Z" fill="#2AF6FF"/>
<path d="M179.3 99.1461C181.12 103.218 182.029 107.639 181.962 112.099C181.962 118.81 179.795 122.814 175.579 124.133C172.538 124.875 169.344 124.678 166.417 123.567V134L157.162 128.654V119.234L151.768 116.008V125.428L142.536 120.106V110.686L124.872 100.488V87.7243L134.434 93.2351L134.575 45.2401L125.037 39.8001V26.9418L142.701 37.1154V27.6954L151.933 33.0177V42.4377L154.524 43.9213L157.35 45.6169V36.0792L166.606 41.425V52.1167C169.473 54.3816 172.066 56.974 174.331 59.8411C178.303 64.8604 180.454 71.0794 180.431 77.4801C180.431 81.8604 179.512 84.969 177.699 86.7353C176.756 87.5917 175.575 88.1407 174.313 88.309C173.051 88.4773 171.767 88.2569 170.633 87.6773V88.1718C174.294 91.148 177.254 94.8952 179.3 99.1461ZM166.465 107.506C167.535 106.029 168.029 104.212 167.854 102.396C167.862 100.309 167.395 98.2471 166.488 96.3672C164.391 92.4334 161.179 89.2058 157.256 87.0885L156.502 86.641L148.094 81.7898V100.983L157.256 106.258C160.836 108.284 163.474 108.99 165.216 108.378C165.721 108.215 166.17 107.913 166.512 107.506H166.465ZM148.212 53.0823V69.426L156.102 73.9711L157.374 74.6776C159.358 76.0234 161.713 76.715 164.109 76.6558C165.758 76.279 166.582 74.5835 166.606 71.569C166.621 68.7875 165.663 66.0882 163.897 63.9388C162.057 61.7577 159.868 59.8958 157.421 58.4281C156.808 58.0278 156.125 57.6039 155.395 57.2035L148.33 53.0823" fill="url(#paint17_linear)"/>
<defs>
<linearGradient id="paint0_linear" x1="44318.9" y1="311903" x2="65506.6" y2="331459" gradientUnits="userSpaceOnUse">
<stop offset="0.03" stop-color="#00E7FF"/>
<stop offset="0.97" stop-color="#223DBA"/>
</linearGradient>
<linearGradient id="paint1_linear" x1="44334.5" y1="311868" x2="65522.7" y2="331432" gradientUnits="userSpaceOnUse">
<stop offset="0.03" stop-color="#00E7FF"/>
<stop offset="0.97" stop-color="#223DBA"/>
</linearGradient>
<linearGradient id="paint2_linear" x1="44334.3" y1="311804" x2="65520.7" y2="331368" gradientUnits="userSpaceOnUse">
<stop offset="0.03" stop-color="#00E7FF"/>
<stop offset="0.97" stop-color="#223DBA"/>
</linearGradient>
<linearGradient id="paint3_linear" x1="4088.07" y1="28054.1" x2="5978.23" y2="29782.4" gradientUnits="userSpaceOnUse">
<stop offset="0.03" stop-color="#00E7FF"/>
<stop offset="0.97" stop-color="#223DBA"/>
</linearGradient>
<linearGradient id="paint4_linear" x1="11318.6" y1="119837" x2="18538" y2="124194" gradientUnits="userSpaceOnUse">
<stop offset="0.03" stop-color="#00E7FF"/>
<stop offset="0.97" stop-color="#223DBA"/>
</linearGradient>
<linearGradient id="paint5_linear" x1="8505.09" y1="82290.3" x2="13643.4" y2="85668.7" gradientUnits="userSpaceOnUse">
<stop offset="0.03" stop-color="#00E7FF"/>
<stop offset="0.97" stop-color="#223DBA"/>
</linearGradient>
<linearGradient id="paint6_linear" x1="180.19" y1="346.327" x2="128.903" y2="349.578" gradientUnits="userSpaceOnUse">
<stop stop-color="#00F4FF"/>
<stop offset="1" stop-color="#01BEFF"/>
</linearGradient>
<linearGradient id="paint7_linear" x1="18230.2" y1="72068.2" x2="22578.7" y2="79204.6" gradientUnits="userSpaceOnUse">
<stop offset="0.03" stop-color="#00E7FF"/>
<stop offset="0.97" stop-color="#223DBA"/>
</linearGradient>
<linearGradient id="paint8_linear" x1="4197.58" y1="23044" x2="5737.39" y2="24855.6" gradientUnits="userSpaceOnUse">
<stop offset="0.03" stop-color="#00E7FF"/>
<stop offset="0.97" stop-color="#223DBA"/>
</linearGradient>
<linearGradient id="paint9_linear" x1="10372.9" y1="131946" x2="17623.9" y2="135622" gradientUnits="userSpaceOnUse">
<stop offset="0.03" stop-color="#00E7FF"/>
<stop offset="0.97" stop-color="#223DBA"/>
</linearGradient>
<linearGradient id="paint10_linear" x1="8930.65" y1="88411" x2="14436.2" y2="91998.1" gradientUnits="userSpaceOnUse">
<stop offset="0.03" stop-color="#00E7FF"/>
<stop offset="0.97" stop-color="#223DBA"/>
</linearGradient>
<linearGradient id="paint11_linear" x1="4449.57" y1="20570.5" x2="5787.08" y2="22357.7" gradientUnits="userSpaceOnUse">
<stop offset="0.03" stop-color="#00E7FF"/>
<stop offset="0.97" stop-color="#223DBA"/>
</linearGradient>
<linearGradient id="paint12_linear" x1="9945.37" y1="138037" x2="17087.5" y2="141321" gradientUnits="userSpaceOnUse">
<stop offset="0.03" stop-color="#00E7FF"/>
<stop offset="0.97" stop-color="#223DBA"/>
</linearGradient>
<linearGradient id="paint13_linear" x1="9754.85" y1="76048.1" x2="14828.8" y2="80196.7" gradientUnits="userSpaceOnUse">
<stop offset="0.03" stop-color="#00E7FF"/>
<stop offset="0.97" stop-color="#223DBA"/>
</linearGradient>
<linearGradient id="paint14_linear" x1="4289.38" y1="25481.7" x2="6013.57" y2="27290.8" gradientUnits="userSpaceOnUse">
<stop offset="0.03" stop-color="#00E7FF"/>
<stop offset="0.97" stop-color="#223DBA"/>
</linearGradient>
<linearGradient id="paint15_linear" x1="6522.66" y1="18191.2" x2="7434.39" y2="20274.3" gradientUnits="userSpaceOnUse">
<stop offset="0.03" stop-color="#00E7FF"/>
<stop offset="0.97" stop-color="#223DBA"/>
</linearGradient>
<linearGradient id="paint16_linear" x1="8856.15" y1="236048" x2="16140.3" y2="237789" gradientUnits="userSpaceOnUse">
<stop offset="0.03" stop-color="#00E7FF"/>
<stop offset="0.97" stop-color="#223DBA"/>
</linearGradient>
<linearGradient id="paint17_linear" x1="7971.74" y1="178628" x2="14396.9" y2="180460" gradientUnits="userSpaceOnUse">
<stop offset="0.03" stop-color="#00E7FF"/>
<stop offset="0.97" stop-color="#223DBA"/>
</linearGradient>
</defs>
</svg>
