<svg width="464" height="272" viewBox="0 0 464 272" fill="none" xmlns="http://www.w3.org/2000/svg">
<path d="M0.0276952 135.553C0.412768 142.035 4.71274 147.491 10.9381 149.352L126.203 184.201L130.439 263.654C130.631 266.799 132.749 269.559 135.766 270.586C136.6 270.906 137.499 271.035 138.333 271.035C140.579 271.035 142.697 270.136 144.237 268.403L184.991 223.286L242.752 263.269C245.319 265.066 248.335 266.029 251.48 266.029C258.732 266.029 265.022 260.895 266.562 253.707L314.504 9.37794C315.081 6.55407 313.99 3.60185 311.808 1.80484C309.562 -0.0563403 306.546 -0.505593 303.85 0.585447L9.26944 120.471C3.30081 123.167 -0.357377 129.071 0.0276952 135.553ZM145.072 243.951L142.44 193.828L171.963 214.237L145.072 243.951ZM251.223 250.048L146.099 177.27L293.517 34.6644L251.223 250.048ZM277.344 28.3749L131.594 169.376L16.4575 134.591L277.344 28.3749Z" fill="#00E7FF"/>
<path d="M359.009 45.2338C359.138 47.3968 360.573 49.2172 362.65 49.8383L401.114 61.4673L402.527 87.9806C402.591 89.03 403.298 89.9509 404.305 90.2936C404.583 90.4006 404.883 90.4435 405.161 90.4435C405.911 90.4435 406.618 90.1436 407.132 89.5654L420.731 74.5098L440.006 87.8521C440.862 88.4518 441.869 88.773 442.918 88.773C445.338 88.773 447.437 87.0597 447.951 84.6611L463.949 3.12939C464.142 2.18707 463.778 1.20193 463.049 0.602271C462.3 -0.0188006 461.293 -0.168715 460.394 0.195362L362.093 40.2009C360.101 41.1004 358.881 43.0707 359.009 45.2338ZM407.41 81.4058L406.532 64.6797L416.383 71.4901L407.41 81.4058ZM442.832 83.4404L407.753 59.1543L456.946 11.5674L442.832 83.4404ZM451.549 9.4686L402.913 56.5201L364.492 44.9125L451.549 9.4686Z" fill="#00E7FF" fill-opacity="0.5"/>
<path d="M341.459 207.304C342.559 207.359 343.492 208.08 343.818 209.134L349.915 228.641L363.406 229.234C363.94 229.261 364.411 229.616 364.59 230.127C364.646 230.268 364.669 230.42 364.671 230.562C364.674 230.943 364.525 231.304 364.233 231.568L356.641 238.556L363.518 248.295C363.827 248.728 363.995 249.238 364 249.772C364.012 251.003 363.15 252.078 361.933 252.351L320.543 260.874C320.065 260.977 319.562 260.796 319.254 260.429C318.934 260.051 318.853 259.539 319.034 259.08L338.914 208.896C339.362 207.879 340.358 207.249 341.459 207.304ZM360.085 231.748L351.574 231.381L355.084 236.359L360.085 231.748ZM361.288 249.754L348.77 232.028L324.801 257.273L361.288 249.754ZM323.708 254.538L347.407 229.579L341.321 210.094L323.708 254.538Z" fill="#00E7FF" fill-opacity="0.2"/>
</svg>
