<svg width="154" height="65" viewBox="0 0 154 65" fill="none" xmlns="http://www.w3.org/2000/svg">
<path d="M11.5065 55.3018V19.5444L15.475 21.7037V55.3265L11.5065 55.3018ZM25.0542 63.0752V27.6016L29.0228 27.6756V63.0752H25.0542ZM0 48.861V16.3487L3.99134 14.2882V47.911L0 48.861ZM26.283 31.5129L0.490365 18.1378L5.13172 15.8428L28.005 27.6386L26.2944 31.5129H26.283ZM52.0043 20.0256L25.4534 3.92369L27.0385 0L53.9458 16.2747L52.0157 20.0256H52.0043ZM27.1753 65L0 48.9351L1.92725 45.181L28.903 61.138L27.1753 65ZM3.09044 19.3964L0 16.3487L27.0385 0.0740319L28.9258 3.92061L3.09044 19.3964ZM50.0286 48.7006V17.7677L53.9971 16.287V48.713L50.0286 48.7006ZM27.2951 48.9505L25.4705 45.1379L51.0778 30.8003L52.9024 34.6161L27.2951 48.9628V48.9505ZM26.4398 32.1329L24.7292 28.2586L50.958 14.6213L52.6686 18.4956L26.4398 32.1329ZM27.1782 64.9877L25.442 61.1226L51.4056 45.3075L54 48.6266L27.1782 64.9753V64.9877Z" fill="#333333"/>
<path d="M11.5065 55.3018V19.5444L15.475 21.7037V55.3265L11.5065 55.3018ZM25.0542 63.0752V27.6016L29.0228 27.6756V63.0752H25.0542ZM0 48.861V16.3487L3.99134 14.2882V47.911L0 48.861ZM26.283 31.5129L0.490365 18.1378L5.13172 15.8428L28.005 27.6386L26.2944 31.5129H26.283ZM52.0043 20.0256L25.4534 3.92369L27.0385 0L53.9458 16.2747L52.0157 20.0256H52.0043ZM27.1753 65L0 48.9351L1.92725 45.181L28.903 61.138L27.1753 65ZM3.09044 19.3964L0 16.3487L27.0385 0.0740319L28.9258 3.92061L3.09044 19.3964ZM50.0286 48.7006V17.7677L53.9971 16.287V48.713L50.0286 48.7006ZM27.2951 48.9505L25.4705 45.1379L51.0778 30.8003L52.9024 34.6161L27.2951 48.9628V48.9505ZM26.4398 32.1329L24.7292 28.2586L50.958 14.6213L52.6686 18.4956L26.4398 32.1329ZM27.1782 64.9877L25.442 61.1226L51.4056 45.3075L54 48.6266L27.1782 64.9753V64.9877Z" fill="url(#paint0_linear)"/>
<path d="M75 17.63H69V14.3H85.65V17.63H79.68V33.77H75V17.63Z" fill="white"/>
<path d="M92.8418 14.3H100.732C102.592 14.3 104.022 14.44 105.022 14.72C106.042 14.98 106.762 15.41 107.182 16.01C107.602 16.59 107.812 17.41 107.812 18.47V20.87C107.812 21.41 107.592 21.92 107.152 22.4C106.732 22.88 106.232 23.21 105.652 23.39V23.54C106.412 23.62 107.102 23.95 107.722 24.53C108.362 25.09 108.682 25.72 108.682 26.42V29.42C108.682 31 108.052 32.12 106.792 32.78C105.532 33.44 103.582 33.77 100.942 33.77H92.8418V14.3ZM100.732 22.22C101.472 22.22 102.022 22.16 102.382 22.04C102.742 21.92 102.982 21.73 103.102 21.47C103.242 21.19 103.312 20.79 103.312 20.27V19.31C103.312 18.85 103.252 18.51 103.132 18.29C103.012 18.05 102.762 17.88 102.382 17.78C102.022 17.68 101.442 17.63 100.642 17.63H97.5218V22.22H100.732ZM100.852 30.44C101.992 30.44 102.802 30.31 103.282 30.05C103.762 29.79 104.002 29.37 104.002 28.79V27.23C104.002 26.51 103.812 26 103.432 25.7C103.072 25.4 102.422 25.25 101.482 25.25H97.5218V30.44H100.852Z" fill="white"/>
<path d="M124.995 34.07C124.115 34.07 123.325 34.03 122.625 33.95C121.945 33.87 121.195 33.72 120.375 33.5C119.455 33.26 118.695 32.95 118.095 32.57C117.495 32.17 116.995 31.62 116.595 30.92C116.175 30.22 115.965 29.39 115.965 28.43V19.88C115.965 15.96 118.975 14 124.995 14C126.535 14 128.595 14.22 131.175 14.66V18.17C128.855 17.61 126.815 17.33 125.055 17.33C124.315 17.33 123.735 17.35 123.315 17.39C122.915 17.43 122.495 17.53 122.055 17.69C121.115 18.01 120.645 18.72 120.645 19.82V28.1C120.645 29.86 122.255 30.74 125.475 30.74C126.855 30.74 128.795 30.45 131.295 29.87V33.41C129.155 33.85 127.055 34.07 124.995 34.07Z" fill="white"/>
<path d="M147.395 34.07C146.515 34.07 145.725 34.03 145.025 33.95C144.345 33.87 143.595 33.72 142.775 33.5C141.855 33.26 141.095 32.95 140.495 32.57C139.895 32.17 139.395 31.62 138.995 30.92C138.575 30.22 138.365 29.39 138.365 28.43V19.88C138.365 15.96 141.375 14 147.395 14C148.935 14 150.995 14.22 153.575 14.66V18.17C151.255 17.61 149.215 17.33 147.455 17.33C146.715 17.33 146.135 17.35 145.715 17.39C145.315 17.43 144.895 17.53 144.455 17.69C143.515 18.01 143.045 18.72 143.045 19.82V28.1C143.045 29.86 144.655 30.74 147.875 30.74C149.255 30.74 151.195 30.45 153.695 29.87V33.41C151.555 33.85 149.455 34.07 147.395 34.07Z" fill="white"/>
<path d="M69 44.28H71.12C71.42 44.28 71.66 44.2867 71.84 44.3C72.0267 44.3133 72.2233 44.3433 72.43 44.39C72.6433 44.4367 72.8133 44.5067 72.94 44.6C73.0733 44.6933 73.1867 44.82 73.28 44.98C73.3667 45.1333 73.41 45.3267 73.41 45.56V46.91C73.41 47.45 73.2 47.84 72.78 48.08C72.3667 48.3133 71.7533 48.43 70.94 48.43H69.97V50.77H69V44.28ZM71.07 47.82C71.49 47.82 71.8267 47.7433 72.08 47.59C72.3333 47.4367 72.46 47.1933 72.46 46.86V45.68C72.46 45.5 72.4133 45.3533 72.32 45.24C72.2267 45.12 72.0933 45.0367 71.92 44.99C71.7533 44.95 71.6133 44.9233 71.5 44.91C71.3867 44.8967 71.2367 44.89 71.05 44.89H69.96V47.82H71.07Z" fill="white"/>
<path d="M77.5931 44.28H78.7131L81.2331 50.77H80.2231L79.4831 48.8H76.7031L75.9731 50.77H75.0131L77.5931 44.28ZM79.2431 48.13L78.1431 45.2H78.0531L76.9531 48.13H79.2431Z" fill="white"/>
<path d="M84.8166 48.15L82.4666 44.28H83.5766L85.3066 47.33L87.0366 44.28H88.1466L85.7866 48.12V50.77H84.8166V48.15Z" fill="white"/>
<path d="M93.3711 44.28H95.4911C95.7911 44.28 96.0311 44.2867 96.2111 44.3C96.3978 44.3133 96.5944 44.3433 96.8011 44.39C97.0144 44.4367 97.1844 44.5067 97.3111 44.6C97.4444 44.6933 97.5578 44.82 97.6511 44.98C97.7378 45.1333 97.7811 45.3267 97.7811 45.56V46.91C97.7811 47.45 97.5711 47.84 97.1511 48.08C96.7378 48.3133 96.1244 48.43 95.3111 48.43H94.3411V50.77H93.3711V44.28ZM95.4411 47.82C95.8611 47.82 96.1978 47.7433 96.4511 47.59C96.7044 47.4367 96.8311 47.1933 96.8311 46.86V45.68C96.8311 45.5 96.7844 45.3533 96.6911 45.24C96.5978 45.12 96.4644 45.0367 96.2911 44.99C96.1244 44.95 95.9844 44.9233 95.8711 44.91C95.7578 44.8967 95.6078 44.89 95.4211 44.89H94.3311V47.82H95.4411Z" fill="white"/>
<path d="M102.604 50.87C102.251 50.87 101.941 50.8467 101.674 50.8C101.414 50.7533 101.158 50.6733 100.904 50.56C100.638 50.44 100.431 50.2567 100.284 50.01C100.144 49.7633 100.074 49.4633 100.074 49.11V44.28H101.004V49.1C101.004 49.5067 101.141 49.7967 101.414 49.97C101.688 50.1367 102.091 50.22 102.624 50.22C103.158 50.22 103.554 50.1367 103.814 49.97C104.081 49.7967 104.214 49.5067 104.214 49.1V44.28H105.144V49.11C105.144 50.2833 104.298 50.87 102.604 50.87Z" fill="white"/>
<path d="M107.832 44.28H110.112C110.685 44.28 111.132 44.3167 111.452 44.39C111.779 44.4567 112.015 44.58 112.162 44.76C112.315 44.94 112.392 45.2033 112.392 45.55V46.67C112.392 47.0567 112.232 47.3567 111.912 47.57C111.599 47.7767 111.199 47.88 110.712 47.88L112.792 50.77H111.602L109.742 48H108.802V50.77H107.832V44.28ZM110.072 47.36C110.552 47.36 110.895 47.3033 111.102 47.19C111.315 47.07 111.422 46.8567 111.422 46.55V45.65C111.422 45.1633 111.002 44.92 110.162 44.92H108.802V47.36H110.072Z" fill="white"/>
<path d="M117.02 50.87C116.467 50.87 115.807 50.8167 115.04 50.71V49.9C115.814 50.0667 116.494 50.15 117.08 50.15C117.574 50.15 117.934 50.0967 118.16 49.99C118.387 49.8767 118.5 49.67 118.5 49.37V48.53C118.5 48.25 118.42 48.0533 118.26 47.94C118.1 47.8267 117.82 47.77 117.42 47.77H116.66C116.027 47.77 115.577 47.6433 115.31 47.39C115.044 47.1367 114.91 46.7433 114.91 46.21V45.69C114.91 45.3367 114.987 45.05 115.14 44.83C115.3 44.61 115.564 44.4467 115.93 44.34C116.304 44.2333 116.814 44.18 117.46 44.18C117.894 44.18 118.45 44.2167 119.13 44.29V45.02C118.37 44.9067 117.79 44.85 117.39 44.85C116.77 44.85 116.36 44.91 116.16 45.03C115.954 45.1567 115.85 45.3667 115.85 45.66V46.4C115.85 46.6267 115.93 46.7933 116.09 46.9C116.257 47 116.54 47.05 116.94 47.05H117.72C118.167 47.05 118.514 47.1033 118.76 47.21C119.014 47.3167 119.19 47.48 119.29 47.7C119.397 47.9133 119.45 48.2033 119.45 48.57V49.04C119.45 49.5 119.364 49.8633 119.19 50.13C119.024 50.3967 118.764 50.5867 118.41 50.7C118.057 50.8133 117.594 50.87 117.02 50.87Z" fill="white"/>
<path d="M121.844 44.28H126.204V44.96H122.814V47.08H125.874V47.76H122.814V50.09H126.304V50.77H121.844V44.28Z" fill="white"/>
<defs>
<linearGradient id="paint0_linear" x1="27" y1="0" x2="27" y2="65" gradientUnits="userSpaceOnUse">
<stop stop-color="#00F4FF"/>
<stop offset="1" stop-color="#01BEFF"/>
</linearGradient>
</defs>
</svg>
