<svg width="29" height="35" viewBox="0 0 29 35" fill="none" xmlns="http://www.w3.org/2000/svg">
<g clip-path="url(#clip0)">
<path d="M6.05584 29.0142V10.254L8.14448 11.3869V29.0272L6.05584 29.0142ZM13.186 33.0925V14.4812L15.2747 14.5201V33.0925H13.186ZM0 25.635V8.57738L2.10064 7.49631V25.1366L0 25.635ZM13.8327 16.5333L0.258079 9.51604L2.70082 8.31197L14.739 14.5006L13.8387 16.5333H13.8327ZM27.3698 10.5065L13.3961 2.05857L14.2303 0L28.3916 8.53854L27.3758 10.5065H27.3698ZM14.3024 34.1024L0 25.6739L1.01431 23.7043L15.2116 32.0762L14.3024 34.1024ZM1.6265 10.1763L0 8.57738L14.2303 0.038841L15.2236 2.05695L1.6265 10.1763ZM26.33 25.5509V9.32183L28.4187 8.54502V25.5574L26.33 25.5509ZM14.3654 25.682L13.4051 23.6817L26.8822 16.1595L27.8425 18.1614L14.3654 25.6885V25.682ZM13.9152 16.8586L13.015 14.8259L26.8192 7.67109L27.7194 9.70377L13.9152 16.8586ZM14.3039 34.0959L13.3901 32.0681L27.0547 23.7707L28.4202 25.5121L14.3039 34.0894V34.0959Z" fill="#00E7FF"/>
</g>
<defs>
<clipPath id="clip0">
<rect width="28.4187" height="34.1024" fill="white"/>
</clipPath>
</defs>
</svg>
