<svg width="36" height="25" viewBox="0 0 36 25" fill="none" xmlns="http://www.w3.org/2000/svg">
<path d="M13.1899 10.6618C14.1176 11.3154 14.8235 12.1528 15.3076 13.174C15.7916 14.1544 16.0336 15.2574 16.0336 16.4828C16.0336 19.0155 15.2067 21.0784 13.5529 22.6716C11.8992 24.2239 9.86218 25 7.44202 25C5.22353 25 3.42857 24.326 2.05714 22.9779C0.685714 21.6299 0 19.8734 0 17.7083C0 16.6054 0.201681 15.5433 0.605042 14.5221C1.0084 13.5008 1.75462 12.1936 2.8437 10.6005L9.98319 0H18.4538L13.1899 10.6618ZM30.7361 10.6618C31.6639 11.3154 32.3697 12.1528 32.8538 13.174C33.3378 14.1544 33.5798 15.2574 33.5798 16.4828C33.5798 19.0155 32.7529 21.0784 31.0992 22.6716C29.4454 24.2239 27.4084 25 24.9882 25C22.7697 25 20.9748 24.326 19.6034 22.9779C18.2319 21.6299 17.5462 19.8734 17.5462 17.7083C17.5462 16.6054 17.7479 15.5433 18.1513 14.5221C18.5546 13.5008 19.3008 12.1936 20.3899 10.6005L27.5294 0H36L30.7361 10.6618Z" fill="#00E7FF" fill-opacity="0.3"/>
</svg>
