<svg width="633" height="713" viewBox="0 0 633 713" fill="none" xmlns="http://www.w3.org/2000/svg">
<g filter="url(#filter0_d)">
<path d="M142.259 540.844L101.733 102.448C102.608 102.847 103.717 103.348 105.043 103.941C108.713 105.582 114.05 107.926 120.726 110.738C134.076 116.363 152.784 123.866 174.221 131.381C217.047 146.396 270.934 161.522 314.743 161.705C359.215 161.89 413.981 146.764 457.518 131.658C479.31 124.097 498.334 116.525 511.909 110.843C518.698 108.001 524.125 105.632 527.857 103.973C529.218 103.368 530.353 102.857 531.246 102.452L487.247 540.841L314.749 610.997L142.259 540.844Z" fill="#28AA9A"/>
<path d="M142.259 540.844L101.733 102.448C102.608 102.847 103.717 103.348 105.043 103.941C108.713 105.582 114.05 107.926 120.726 110.738C134.076 116.363 152.784 123.866 174.221 131.381C217.047 146.396 270.934 161.522 314.743 161.705C359.215 161.89 413.981 146.764 457.518 131.658C479.31 124.097 498.334 116.525 511.909 110.843C518.698 108.001 524.125 105.632 527.857 103.973C529.218 103.368 530.353 102.857 531.246 102.452L487.247 540.841L314.749 610.997L142.259 540.844Z" fill="url(#paint0_linear)"/>
<path d="M142.259 540.844L101.733 102.448C102.608 102.847 103.717 103.348 105.043 103.941C108.713 105.582 114.05 107.926 120.726 110.738C134.076 116.363 152.784 123.866 174.221 131.381C217.047 146.396 270.934 161.522 314.743 161.705C359.215 161.89 413.981 146.764 457.518 131.658C479.31 124.097 498.334 116.525 511.909 110.843C518.698 108.001 524.125 105.632 527.857 103.973C529.218 103.368 530.353 102.857 531.246 102.452L487.247 540.841L314.749 610.997L142.259 540.844Z" stroke="#28AA9A" stroke-width="3"/>
<g filter="url(#filter1_i)">
<path d="M250.478 461.216V309.844L267.21 318.985V461.32L250.478 461.216ZM307.598 494.123V343.952L324.33 344.266V494.123H307.598ZM201.965 433.95V296.315L218.793 287.592V429.928L201.965 433.95ZM312.779 360.51L204.032 303.889L223.601 294.174L320.039 344.109L312.827 360.51H312.779ZM421.225 311.881L309.281 243.717L315.964 227.106L429.411 296.002L421.273 311.881H421.225ZM316.541 502.271L201.965 434.263L210.09 418.371L323.825 485.922L316.541 502.271ZM214.995 309.217L201.965 296.315L315.964 227.42L323.922 243.704L214.995 309.217ZM412.895 433.271V302.322L429.627 296.054V433.323L412.895 433.271ZM317.046 434.329L309.353 418.189L417.318 357.494L425.011 373.647L317.046 434.381V434.329ZM313.44 363.135L306.228 346.734L416.814 289.003L424.026 305.404L313.44 363.135ZM316.553 502.219L309.233 485.857L418.701 418.907L429.639 432.958L316.553 502.166V502.219Z" fill="#C7FAF3"/>
</g>
</g>
<defs>
<filter id="filter0_d" x="0" y="0" width="633" height="712.616" filterUnits="userSpaceOnUse" color-interpolation-filters="sRGB">
<feFlood flood-opacity="0" result="BackgroundImageFix"/>
<feColorMatrix in="SourceAlpha" type="matrix" values="0 0 0 0 0 0 0 0 0 0 0 0 0 0 0 0 0 0 127 0"/>
<feOffset/>
<feGaussianBlur stdDeviation="50"/>
<feColorMatrix type="matrix" values="0 0 0 0 0.439216 0 0 0 0 0.772549 0 0 0 0 0.639216 0 0 0 1 0"/>
<feBlend mode="normal" in2="BackgroundImageFix" result="effect1_dropShadow"/>
<feBlend mode="normal" in="SourceGraphic" in2="effect1_dropShadow" result="shape"/>
</filter>
<filter id="filter1_i" x="201.965" y="227.106" width="227.674" height="279.165" filterUnits="userSpaceOnUse" color-interpolation-filters="sRGB">
<feFlood flood-opacity="0" result="BackgroundImageFix"/>
<feBlend mode="normal" in="SourceGraphic" in2="BackgroundImageFix" result="shape"/>
<feColorMatrix in="SourceAlpha" type="matrix" values="0 0 0 0 0 0 0 0 0 0 0 0 0 0 0 0 0 0 127 0" result="hardAlpha"/>
<feOffset dy="4"/>
<feGaussianBlur stdDeviation="2"/>
<feComposite in2="hardAlpha" operator="arithmetic" k2="-1" k3="1"/>
<feColorMatrix type="matrix" values="0 0 0 0 0 0 0 0 0 0 0 0 0 0 0 0 0 0 0.25 0"/>
<feBlend mode="normal" in2="shape" result="effect1_innerShadow"/>
</filter>
<linearGradient id="paint0_linear" x1="316.5" y1="100" x2="316.5" y2="612.616" gradientUnits="userSpaceOnUse">
<stop stop-color="#28AA9A"/>
<stop offset="1" stop-color="#006B5E"/>
</linearGradient>
</defs>
</svg>
