<svg width="410" height="459" viewBox="0 0 410 459" fill="none" xmlns="http://www.w3.org/2000/svg">
<ellipse cx="97.5" cy="347.5" rx="87.5" ry="36.5" fill="#33C2FF"/>
<ellipse cx="312.5" cy="347.5" rx="87.5" ry="36.5" fill="#17D0C3"/>
<g filter="url(#filter0_d)">
<ellipse cx="97.5" cy="310.5" rx="87.5" ry="36.5" fill="#33C2FF"/>
</g>
<g filter="url(#filter1_d)">
<ellipse cx="312.5" cy="310.5" rx="87.5" ry="36.5" fill="#17D0C3"/>
</g>
<g filter="url(#filter2_d)">
<ellipse cx="97.5" cy="273.5" rx="87.5" ry="36.5" fill="#33C2FF"/>
</g>
<g filter="url(#filter3_d)">
<ellipse cx="312.5" cy="273.5" rx="87.5" ry="36.5" fill="#17D0C3"/>
</g>
<g filter="url(#filter4_d)">
<ellipse cx="97.5" cy="237.5" rx="87.5" ry="36.5" fill="#33C2FF"/>
</g>
<g filter="url(#filter5_d)">
<ellipse cx="312.5" cy="237.5" rx="87.5" ry="36.5" fill="#17D0C3"/>
</g>
<g filter="url(#filter6_d)">
<ellipse cx="97.5" cy="200.5" rx="87.5" ry="36.5" fill="#33C2FF"/>
</g>
<g filter="url(#filter7_d)">
<ellipse cx="312.5" cy="200.5" rx="87.5" ry="36.5" fill="#17D0C3"/>
</g>
<g filter="url(#filter8_d)">
<ellipse cx="312.5" cy="164.5" rx="87.5" ry="36.5" fill="#17D0C3"/>
</g>
<g filter="url(#filter9_d)">
<ellipse cx="312.5" cy="128.5" rx="87.5" ry="36.5" fill="#17D0C3"/>
</g>
<g filter="url(#filter10_f)">
<ellipse cx="222.5" cy="363.5" rx="97.5" ry="53.5" fill="#404040" fill-opacity="0.2"/>
</g>
<ellipse cx="224.5" cy="422.5" rx="87.5" ry="36.5" fill="#00E7FF"/>
<g filter="url(#filter11_d)">
<ellipse cx="224.5" cy="385.5" rx="87.5" ry="36.5" fill="#00E7FF"/>
</g>
<g filter="url(#filter12_d)">
<ellipse cx="224.5" cy="348.5" rx="87.5" ry="36.5" fill="#00E7FF"/>
</g>
<g filter="url(#filter13_d)">
<path fill-rule="evenodd" clip-rule="evenodd" d="M63 85C51.9543 85 43 93.9543 43 105V119C43 130.046 51.9543 139 63 139H85.1443L91.4952 150L97.8461 139H120C131.046 139 140 130.046 140 119V105C140 93.9543 131.046 85 120 85H63Z" fill="white"/>
</g>
<g filter="url(#filter14_d)">
<path fill-rule="evenodd" clip-rule="evenodd" d="M192 238C180.954 238 172 246.954 172 258V272C172 283.046 180.954 292 192 292H214.144L220.495 303L226.846 292H249C260.046 292 269 283.046 269 272V258C269 246.954 260.046 238 249 238H192Z" fill="white"/>
</g>
<g filter="url(#filter15_d)">
<path fill-rule="evenodd" clip-rule="evenodd" d="M279 10C267.954 10 259 18.9543 259 30V44C259 55.0457 267.954 64 279 64H301.144L307.495 75L313.846 64H336C347.046 64 356 55.0457 356 44V30C356 18.9543 347.046 10 336 10H279Z" fill="white"/>
</g>
<path d="M69.76 114.22H66.28V117.62H63.7V114.22H60.24V111.78H63.7V108.38H66.28V111.78H69.76V114.22Z" fill="#797979"/>
<path d="M82.7173 106V108.1L77.5173 120H73.9973L79.0173 108.64H74.3773V110.92H71.4973V106H82.7173Z" fill="#797979"/>
<path d="M85.2231 120.16C84.6764 120.16 84.2164 119.973 83.8431 119.6C83.4698 119.227 83.2831 118.76 83.2831 118.2C83.2831 117.627 83.4698 117.167 83.8431 116.82C84.2164 116.46 84.6764 116.28 85.2231 116.28C85.7698 116.28 86.2298 116.46 86.6031 116.82C86.9764 117.167 87.1631 117.627 87.1631 118.2C87.1631 118.76 86.9764 119.227 86.6031 119.6C86.2298 119.973 85.7698 120.16 85.2231 120.16Z" fill="#797979"/>
<path d="M93.905 106V120H90.665V108.6H87.865V106H93.905Z" fill="#797979"/>
<path d="M106.997 117.36V120H96.417V117.9L101.817 112.8C102.39 112.253 102.777 111.787 102.977 111.4C103.177 111 103.277 110.607 103.277 110.22C103.277 109.66 103.084 109.233 102.697 108.94C102.324 108.633 101.77 108.48 101.037 108.48C100.424 108.48 99.8704 108.6 99.377 108.84C98.8837 109.067 98.4704 109.413 98.137 109.88L95.777 108.36C96.3237 107.547 97.077 106.913 98.037 106.46C98.997 105.993 100.097 105.76 101.337 105.76C102.377 105.76 103.284 105.933 104.057 106.28C104.844 106.613 105.45 107.093 105.877 107.72C106.317 108.333 106.537 109.06 106.537 109.9C106.537 110.66 106.377 111.373 106.057 112.04C105.737 112.707 105.117 113.467 104.197 114.32L100.977 117.36H106.997Z" fill="#797979"/>
<path d="M111.969 113.56C110.943 113.56 110.103 113.213 109.449 112.52C108.809 111.813 108.489 110.873 108.489 109.7C108.489 108.527 108.809 107.593 109.449 106.9C110.103 106.193 110.943 105.84 111.969 105.84C112.996 105.84 113.829 106.193 114.469 106.9C115.109 107.593 115.429 108.527 115.429 109.7C115.429 110.873 115.109 111.813 114.469 112.52C113.829 113.213 112.996 113.56 111.969 113.56ZM120.309 106H122.689L113.129 120H110.749L120.309 106ZM111.969 111.92C112.423 111.92 112.776 111.733 113.029 111.36C113.296 110.987 113.429 110.433 113.429 109.7C113.429 108.967 113.296 108.413 113.029 108.04C112.776 107.667 112.423 107.48 111.969 107.48C111.529 107.48 111.176 107.673 110.909 108.06C110.643 108.433 110.509 108.98 110.509 109.7C110.509 110.42 110.643 110.973 110.909 111.36C111.176 111.733 111.529 111.92 111.969 111.92ZM121.469 120.16C120.803 120.16 120.203 120.007 119.669 119.7C119.149 119.38 118.743 118.927 118.449 118.34C118.156 117.753 118.009 117.073 118.009 116.3C118.009 115.527 118.156 114.847 118.449 114.26C118.743 113.673 119.149 113.227 119.669 112.92C120.203 112.6 120.803 112.44 121.469 112.44C122.496 112.44 123.329 112.793 123.969 113.5C124.623 114.193 124.949 115.127 124.949 116.3C124.949 117.473 124.623 118.413 123.969 119.12C123.329 119.813 122.496 120.16 121.469 120.16ZM121.469 118.52C121.923 118.52 122.276 118.333 122.529 117.96C122.796 117.573 122.929 117.02 122.929 116.3C122.929 115.58 122.796 115.033 122.529 114.66C122.276 114.273 121.923 114.08 121.469 114.08C121.029 114.08 120.676 114.267 120.409 114.64C120.143 115.013 120.009 115.567 120.009 116.3C120.009 117.033 120.143 117.587 120.409 117.96C120.676 118.333 121.029 118.52 121.469 118.52Z" fill="#797979"/>
<path d="M193.76 267.22H190.28V270.62H187.7V267.22H184.24V264.78H187.7V261.38H190.28V264.78H193.76V267.22Z" fill="#797979"/>
<path d="M208.851 270.06H206.571V273H203.411V270.06H195.871V267.88L202.471 259H205.871L199.751 267.42H203.511V264.8H206.571V267.42H208.851V270.06Z" fill="#797979"/>
<path d="M212.25 273.16C211.704 273.16 211.244 272.973 210.87 272.6C210.497 272.227 210.31 271.76 210.31 271.2C210.31 270.627 210.497 270.167 210.87 269.82C211.244 269.46 211.704 269.28 212.25 269.28C212.797 269.28 213.257 269.46 213.63 269.82C214.004 270.167 214.19 270.627 214.19 271.2C214.19 271.76 214.004 272.227 213.63 272.6C213.257 272.973 212.797 273.16 212.25 273.16Z" fill="#797979"/>
<path d="M220.765 258.76C222.725 258.76 224.258 259.36 225.365 260.56C226.472 261.747 227.025 263.46 227.025 265.7C227.025 267.287 226.725 268.647 226.125 269.78C225.538 270.913 224.705 271.773 223.625 272.36C222.545 272.947 221.298 273.24 219.885 273.24C219.138 273.24 218.425 273.16 217.745 273C217.065 272.827 216.485 272.587 216.005 272.28L217.205 269.9C217.885 270.367 218.758 270.6 219.825 270.6C221.012 270.6 221.951 270.253 222.645 269.56C223.338 268.853 223.711 267.84 223.765 266.52C222.925 267.36 221.765 267.78 220.285 267.78C219.391 267.78 218.578 267.6 217.845 267.24C217.111 266.88 216.531 266.373 216.105 265.72C215.678 265.053 215.465 264.287 215.465 263.42C215.465 262.487 215.698 261.667 216.165 260.96C216.632 260.253 217.265 259.713 218.065 259.34C218.878 258.953 219.778 258.76 220.765 258.76ZM221.005 265.36C221.711 265.36 222.285 265.167 222.725 264.78C223.178 264.38 223.405 263.873 223.405 263.26C223.405 262.647 223.185 262.147 222.745 261.76C222.318 261.373 221.725 261.18 220.965 261.18C220.271 261.18 219.705 261.367 219.265 261.74C218.838 262.113 218.625 262.62 218.625 263.26C218.625 263.9 218.838 264.413 219.265 264.8C219.705 265.173 220.285 265.36 221.005 265.36Z" fill="#797979"/>
<path d="M238.359 265.64C239.053 265.987 239.579 266.44 239.939 267C240.313 267.56 240.499 268.207 240.499 268.94C240.499 269.807 240.253 270.567 239.759 271.22C239.266 271.86 238.573 272.36 237.679 272.72C236.786 273.067 235.753 273.24 234.579 273.24C233.406 273.24 232.373 273.067 231.479 272.72C230.599 272.36 229.913 271.86 229.419 271.22C228.939 270.567 228.699 269.807 228.699 268.94C228.699 268.207 228.879 267.56 229.239 267C229.613 266.44 230.139 265.987 230.819 265.64C230.299 265.32 229.899 264.92 229.619 264.44C229.339 263.947 229.199 263.387 229.199 262.76C229.199 261.947 229.426 261.24 229.879 260.64C230.333 260.04 230.966 259.58 231.779 259.26C232.593 258.927 233.526 258.76 234.579 258.76C235.646 258.76 236.586 258.927 237.399 259.26C238.226 259.58 238.866 260.04 239.319 260.64C239.773 261.24 239.999 261.947 239.999 262.76C239.999 263.387 239.859 263.947 239.579 264.44C239.299 264.92 238.893 265.32 238.359 265.64ZM234.579 261.14C233.926 261.14 233.399 261.3 232.999 261.62C232.613 261.927 232.419 262.353 232.419 262.9C232.419 263.433 232.613 263.853 232.999 264.16C233.386 264.467 233.913 264.62 234.579 264.62C235.246 264.62 235.779 264.467 236.179 264.16C236.579 263.853 236.779 263.433 236.779 262.9C236.779 262.353 236.579 261.927 236.179 261.62C235.779 261.3 235.246 261.14 234.579 261.14ZM234.579 270.86C235.393 270.86 236.033 270.68 236.499 270.32C236.979 269.947 237.219 269.453 237.219 268.84C237.219 268.227 236.979 267.74 236.499 267.38C236.033 267.02 235.393 266.84 234.579 266.84C233.779 266.84 233.146 267.02 232.679 267.38C232.213 267.74 231.979 268.227 231.979 268.84C231.979 269.467 232.213 269.96 232.679 270.32C233.146 270.68 233.779 270.86 234.579 270.86Z" fill="#797979"/>
<path d="M245.227 266.56C244.2 266.56 243.36 266.213 242.707 265.52C242.067 264.813 241.747 263.873 241.747 262.7C241.747 261.527 242.067 260.593 242.707 259.9C243.36 259.193 244.2 258.84 245.227 258.84C246.254 258.84 247.087 259.193 247.727 259.9C248.367 260.593 248.687 261.527 248.687 262.7C248.687 263.873 248.367 264.813 247.727 265.52C247.087 266.213 246.254 266.56 245.227 266.56ZM253.567 259H255.947L246.387 273H244.007L253.567 259ZM245.227 264.92C245.68 264.92 246.034 264.733 246.287 264.36C246.554 263.987 246.687 263.433 246.687 262.7C246.687 261.967 246.554 261.413 246.287 261.04C246.034 260.667 245.68 260.48 245.227 260.48C244.787 260.48 244.434 260.673 244.167 261.06C243.9 261.433 243.767 261.98 243.767 262.7C243.767 263.42 243.9 263.973 244.167 264.36C244.434 264.733 244.787 264.92 245.227 264.92ZM254.727 273.16C254.06 273.16 253.46 273.007 252.927 272.7C252.407 272.38 252 271.927 251.707 271.34C251.414 270.753 251.267 270.073 251.267 269.3C251.267 268.527 251.414 267.847 251.707 267.26C252 266.673 252.407 266.227 252.927 265.92C253.46 265.6 254.06 265.44 254.727 265.44C255.754 265.44 256.587 265.793 257.227 266.5C257.88 267.193 258.207 268.127 258.207 269.3C258.207 270.473 257.88 271.413 257.227 272.12C256.587 272.813 255.754 273.16 254.727 273.16ZM254.727 271.52C255.18 271.52 255.534 271.333 255.787 270.96C256.054 270.573 256.187 270.02 256.187 269.3C256.187 268.58 256.054 268.033 255.787 267.66C255.534 267.273 255.18 267.08 254.727 267.08C254.287 267.08 253.934 267.267 253.667 267.64C253.4 268.013 253.267 268.567 253.267 269.3C253.267 270.033 253.4 270.587 253.667 270.96C253.934 271.333 254.287 271.52 254.727 271.52Z" fill="#797979"/>
<path d="M279.76 39.22H276.28V42.62H273.7V39.22H270.24V36.78H273.7V33.38H276.28V36.78H279.76V39.22Z" fill="#797979"/>
<path d="M286.923 31V45H283.683V33.6H280.883V31H286.923Z" fill="#797979"/>
<path d="M294.955 31V45H291.715V33.6H288.915V31H294.955Z" fill="#797979"/>
<path d="M299.427 45.16C298.88 45.16 298.42 44.9733 298.047 44.6C297.674 44.2266 297.487 43.76 297.487 43.2C297.487 42.6266 297.674 42.1666 298.047 41.82C298.42 41.46 298.88 41.28 299.427 41.28C299.974 41.28 300.434 41.46 300.807 41.82C301.18 42.1666 301.367 42.6266 301.367 43.2C301.367 43.76 301.18 44.2266 300.807 44.6C300.434 44.9733 299.974 45.16 299.427 45.16Z" fill="#797979"/>
<path d="M315.841 42.06H313.561V45H310.401V42.06H302.861V39.88L309.461 31H312.861L306.741 39.42H310.501V36.8H313.561V39.42H315.841V42.06Z" fill="#797979"/>
<path d="M327.131 31V33.1L321.931 45H318.411L323.431 33.64H318.791V35.92H315.911V31H327.131Z" fill="#797979"/>
<path d="M332.13 38.56C331.103 38.56 330.263 38.2133 329.61 37.52C328.97 36.8133 328.65 35.8733 328.65 34.7C328.65 33.5266 328.97 32.5933 329.61 31.9C330.263 31.1933 331.103 30.84 332.13 30.84C333.157 30.84 333.99 31.1933 334.63 31.9C335.27 32.5933 335.59 33.5266 335.59 34.7C335.59 35.8733 335.27 36.8133 334.63 37.52C333.99 38.2133 333.157 38.56 332.13 38.56ZM340.47 31H342.85L333.29 45H330.91L340.47 31ZM332.13 36.92C332.583 36.92 332.937 36.7333 333.19 36.36C333.457 35.9866 333.59 35.4333 333.59 34.7C333.59 33.9666 333.457 33.4133 333.19 33.04C332.937 32.6666 332.583 32.48 332.13 32.48C331.69 32.48 331.337 32.6733 331.07 33.06C330.803 33.4333 330.67 33.98 330.67 34.7C330.67 35.42 330.803 35.9733 331.07 36.36C331.337 36.7333 331.69 36.92 332.13 36.92ZM341.63 45.16C340.963 45.16 340.363 45.0066 339.83 44.7C339.31 44.38 338.903 43.9266 338.61 43.34C338.317 42.7533 338.17 42.0733 338.17 41.3C338.17 40.5266 338.317 39.8466 338.61 39.26C338.903 38.6733 339.31 38.2266 339.83 37.92C340.363 37.6 340.963 37.44 341.63 37.44C342.657 37.44 343.49 37.7933 344.13 38.5C344.783 39.1933 345.11 40.1266 345.11 41.3C345.11 42.4733 344.783 43.4133 344.13 44.12C343.49 44.8133 342.657 45.16 341.63 45.16ZM341.63 43.52C342.083 43.52 342.437 43.3333 342.69 42.96C342.957 42.5733 343.09 42.02 343.09 41.3C343.09 40.58 342.957 40.0333 342.69 39.66C342.437 39.2733 342.083 39.08 341.63 39.08C341.19 39.08 340.837 39.2666 340.57 39.64C340.303 40.0133 340.17 40.5666 340.17 41.3C340.17 42.0333 340.303 42.5866 340.57 42.96C340.837 43.3333 341.19 43.52 341.63 43.52Z" fill="#797979"/>
<defs>
<filter id="filter0_d" x="0" y="274" width="195" height="93" filterUnits="userSpaceOnUse" color-interpolation-filters="sRGB">
<feFlood flood-opacity="0" result="BackgroundImageFix"/>
<feColorMatrix in="SourceAlpha" type="matrix" values="0 0 0 0 0 0 0 0 0 0 0 0 0 0 0 0 0 0 127 0"/>
<feOffset dy="10"/>
<feGaussianBlur stdDeviation="5"/>
<feColorMatrix type="matrix" values="0 0 0 0 0 0 0 0 0 0 0 0 0 0 0 0 0 0 0.03 0"/>
<feBlend mode="normal" in2="BackgroundImageFix" result="effect1_dropShadow"/>
<feBlend mode="normal" in="SourceGraphic" in2="effect1_dropShadow" result="shape"/>
</filter>
<filter id="filter1_d" x="215" y="274" width="195" height="93" filterUnits="userSpaceOnUse" color-interpolation-filters="sRGB">
<feFlood flood-opacity="0" result="BackgroundImageFix"/>
<feColorMatrix in="SourceAlpha" type="matrix" values="0 0 0 0 0 0 0 0 0 0 0 0 0 0 0 0 0 0 127 0"/>
<feOffset dy="10"/>
<feGaussianBlur stdDeviation="5"/>
<feColorMatrix type="matrix" values="0 0 0 0 0 0 0 0 0 0 0 0 0 0 0 0 0 0 0.03 0"/>
<feBlend mode="normal" in2="BackgroundImageFix" result="effect1_dropShadow"/>
<feBlend mode="normal" in="SourceGraphic" in2="effect1_dropShadow" result="shape"/>
</filter>
<filter id="filter2_d" x="0" y="237" width="195" height="93" filterUnits="userSpaceOnUse" color-interpolation-filters="sRGB">
<feFlood flood-opacity="0" result="BackgroundImageFix"/>
<feColorMatrix in="SourceAlpha" type="matrix" values="0 0 0 0 0 0 0 0 0 0 0 0 0 0 0 0 0 0 127 0"/>
<feOffset dy="10"/>
<feGaussianBlur stdDeviation="5"/>
<feColorMatrix type="matrix" values="0 0 0 0 0 0 0 0 0 0 0 0 0 0 0 0 0 0 0.03 0"/>
<feBlend mode="normal" in2="BackgroundImageFix" result="effect1_dropShadow"/>
<feBlend mode="normal" in="SourceGraphic" in2="effect1_dropShadow" result="shape"/>
</filter>
<filter id="filter3_d" x="215" y="237" width="195" height="93" filterUnits="userSpaceOnUse" color-interpolation-filters="sRGB">
<feFlood flood-opacity="0" result="BackgroundImageFix"/>
<feColorMatrix in="SourceAlpha" type="matrix" values="0 0 0 0 0 0 0 0 0 0 0 0 0 0 0 0 0 0 127 0"/>
<feOffset dy="10"/>
<feGaussianBlur stdDeviation="5"/>
<feColorMatrix type="matrix" values="0 0 0 0 0 0 0 0 0 0 0 0 0 0 0 0 0 0 0.03 0"/>
<feBlend mode="normal" in2="BackgroundImageFix" result="effect1_dropShadow"/>
<feBlend mode="normal" in="SourceGraphic" in2="effect1_dropShadow" result="shape"/>
</filter>
<filter id="filter4_d" x="0" y="201" width="195" height="93" filterUnits="userSpaceOnUse" color-interpolation-filters="sRGB">
<feFlood flood-opacity="0" result="BackgroundImageFix"/>
<feColorMatrix in="SourceAlpha" type="matrix" values="0 0 0 0 0 0 0 0 0 0 0 0 0 0 0 0 0 0 127 0"/>
<feOffset dy="10"/>
<feGaussianBlur stdDeviation="5"/>
<feColorMatrix type="matrix" values="0 0 0 0 0 0 0 0 0 0 0 0 0 0 0 0 0 0 0.03 0"/>
<feBlend mode="normal" in2="BackgroundImageFix" result="effect1_dropShadow"/>
<feBlend mode="normal" in="SourceGraphic" in2="effect1_dropShadow" result="shape"/>
</filter>
<filter id="filter5_d" x="215" y="201" width="195" height="93" filterUnits="userSpaceOnUse" color-interpolation-filters="sRGB">
<feFlood flood-opacity="0" result="BackgroundImageFix"/>
<feColorMatrix in="SourceAlpha" type="matrix" values="0 0 0 0 0 0 0 0 0 0 0 0 0 0 0 0 0 0 127 0"/>
<feOffset dy="10"/>
<feGaussianBlur stdDeviation="5"/>
<feColorMatrix type="matrix" values="0 0 0 0 0 0 0 0 0 0 0 0 0 0 0 0 0 0 0.03 0"/>
<feBlend mode="normal" in2="BackgroundImageFix" result="effect1_dropShadow"/>
<feBlend mode="normal" in="SourceGraphic" in2="effect1_dropShadow" result="shape"/>
</filter>
<filter id="filter6_d" x="0" y="164" width="195" height="93" filterUnits="userSpaceOnUse" color-interpolation-filters="sRGB">
<feFlood flood-opacity="0" result="BackgroundImageFix"/>
<feColorMatrix in="SourceAlpha" type="matrix" values="0 0 0 0 0 0 0 0 0 0 0 0 0 0 0 0 0 0 127 0"/>
<feOffset dy="10"/>
<feGaussianBlur stdDeviation="5"/>
<feColorMatrix type="matrix" values="0 0 0 0 0 0 0 0 0 0 0 0 0 0 0 0 0 0 0.03 0"/>
<feBlend mode="normal" in2="BackgroundImageFix" result="effect1_dropShadow"/>
<feBlend mode="normal" in="SourceGraphic" in2="effect1_dropShadow" result="shape"/>
</filter>
<filter id="filter7_d" x="215" y="164" width="195" height="93" filterUnits="userSpaceOnUse" color-interpolation-filters="sRGB">
<feFlood flood-opacity="0" result="BackgroundImageFix"/>
<feColorMatrix in="SourceAlpha" type="matrix" values="0 0 0 0 0 0 0 0 0 0 0 0 0 0 0 0 0 0 127 0"/>
<feOffset dy="10"/>
<feGaussianBlur stdDeviation="5"/>
<feColorMatrix type="matrix" values="0 0 0 0 0 0 0 0 0 0 0 0 0 0 0 0 0 0 0.03 0"/>
<feBlend mode="normal" in2="BackgroundImageFix" result="effect1_dropShadow"/>
<feBlend mode="normal" in="SourceGraphic" in2="effect1_dropShadow" result="shape"/>
</filter>
<filter id="filter8_d" x="215" y="128" width="195" height="93" filterUnits="userSpaceOnUse" color-interpolation-filters="sRGB">
<feFlood flood-opacity="0" result="BackgroundImageFix"/>
<feColorMatrix in="SourceAlpha" type="matrix" values="0 0 0 0 0 0 0 0 0 0 0 0 0 0 0 0 0 0 127 0"/>
<feOffset dy="10"/>
<feGaussianBlur stdDeviation="5"/>
<feColorMatrix type="matrix" values="0 0 0 0 0 0 0 0 0 0 0 0 0 0 0 0 0 0 0.03 0"/>
<feBlend mode="normal" in2="BackgroundImageFix" result="effect1_dropShadow"/>
<feBlend mode="normal" in="SourceGraphic" in2="effect1_dropShadow" result="shape"/>
</filter>
<filter id="filter9_d" x="215" y="92" width="195" height="93" filterUnits="userSpaceOnUse" color-interpolation-filters="sRGB">
<feFlood flood-opacity="0" result="BackgroundImageFix"/>
<feColorMatrix in="SourceAlpha" type="matrix" values="0 0 0 0 0 0 0 0 0 0 0 0 0 0 0 0 0 0 127 0"/>
<feOffset dy="10"/>
<feGaussianBlur stdDeviation="5"/>
<feColorMatrix type="matrix" values="0 0 0 0 0 0 0 0 0 0 0 0 0 0 0 0 0 0 0.03 0"/>
<feBlend mode="normal" in2="BackgroundImageFix" result="effect1_dropShadow"/>
<feBlend mode="normal" in="SourceGraphic" in2="effect1_dropShadow" result="shape"/>
</filter>
<filter id="filter10_f" x="105" y="290" width="235" height="147" filterUnits="userSpaceOnUse" color-interpolation-filters="sRGB">
<feFlood flood-opacity="0" result="BackgroundImageFix"/>
<feBlend mode="normal" in="SourceGraphic" in2="BackgroundImageFix" result="shape"/>
<feGaussianBlur stdDeviation="10" result="effect1_foregroundBlur"/>
</filter>
<filter id="filter11_d" x="127" y="349" width="195" height="93" filterUnits="userSpaceOnUse" color-interpolation-filters="sRGB">
<feFlood flood-opacity="0" result="BackgroundImageFix"/>
<feColorMatrix in="SourceAlpha" type="matrix" values="0 0 0 0 0 0 0 0 0 0 0 0 0 0 0 0 0 0 127 0"/>
<feOffset dy="10"/>
<feGaussianBlur stdDeviation="5"/>
<feColorMatrix type="matrix" values="0 0 0 0 0 0 0 0 0 0 0 0 0 0 0 0 0 0 0.03 0"/>
<feBlend mode="normal" in2="BackgroundImageFix" result="effect1_dropShadow"/>
<feBlend mode="normal" in="SourceGraphic" in2="effect1_dropShadow" result="shape"/>
</filter>
<filter id="filter12_d" x="127" y="312" width="195" height="93" filterUnits="userSpaceOnUse" color-interpolation-filters="sRGB">
<feFlood flood-opacity="0" result="BackgroundImageFix"/>
<feColorMatrix in="SourceAlpha" type="matrix" values="0 0 0 0 0 0 0 0 0 0 0 0 0 0 0 0 0 0 127 0"/>
<feOffset dy="10"/>
<feGaussianBlur stdDeviation="5"/>
<feColorMatrix type="matrix" values="0 0 0 0 0 0 0 0 0 0 0 0 0 0 0 0 0 0 0.03 0"/>
<feBlend mode="normal" in2="BackgroundImageFix" result="effect1_dropShadow"/>
<feBlend mode="normal" in="SourceGraphic" in2="effect1_dropShadow" result="shape"/>
</filter>
<filter id="filter13_d" x="23" y="75" width="137" height="105" filterUnits="userSpaceOnUse" color-interpolation-filters="sRGB">
<feFlood flood-opacity="0" result="BackgroundImageFix"/>
<feColorMatrix in="SourceAlpha" type="matrix" values="0 0 0 0 0 0 0 0 0 0 0 0 0 0 0 0 0 0 127 0"/>
<feOffset dy="10"/>
<feGaussianBlur stdDeviation="10"/>
<feColorMatrix type="matrix" values="0 0 0 0 0 0 0 0 0 0 0 0 0 0 0 0 0 0 0.05 0"/>
<feBlend mode="normal" in2="BackgroundImageFix" result="effect1_dropShadow"/>
<feBlend mode="normal" in="SourceGraphic" in2="effect1_dropShadow" result="shape"/>
</filter>
<filter id="filter14_d" x="152" y="228" width="137" height="105" filterUnits="userSpaceOnUse" color-interpolation-filters="sRGB">
<feFlood flood-opacity="0" result="BackgroundImageFix"/>
<feColorMatrix in="SourceAlpha" type="matrix" values="0 0 0 0 0 0 0 0 0 0 0 0 0 0 0 0 0 0 127 0"/>
<feOffset dy="10"/>
<feGaussianBlur stdDeviation="10"/>
<feColorMatrix type="matrix" values="0 0 0 0 0 0 0 0 0 0 0 0 0 0 0 0 0 0 0.05 0"/>
<feBlend mode="normal" in2="BackgroundImageFix" result="effect1_dropShadow"/>
<feBlend mode="normal" in="SourceGraphic" in2="effect1_dropShadow" result="shape"/>
</filter>
<filter id="filter15_d" x="239" y="0" width="137" height="105" filterUnits="userSpaceOnUse" color-interpolation-filters="sRGB">
<feFlood flood-opacity="0" result="BackgroundImageFix"/>
<feColorMatrix in="SourceAlpha" type="matrix" values="0 0 0 0 0 0 0 0 0 0 0 0 0 0 0 0 0 0 127 0"/>
<feOffset dy="10"/>
<feGaussianBlur stdDeviation="10"/>
<feColorMatrix type="matrix" values="0 0 0 0 0 0 0 0 0 0 0 0 0 0 0 0 0 0 0.05 0"/>
<feBlend mode="normal" in2="BackgroundImageFix" result="effect1_dropShadow"/>
<feBlend mode="normal" in="SourceGraphic" in2="effect1_dropShadow" result="shape"/>
</filter>
</defs>
</svg>
